<svg width="350" height="350" viewBox="0 0 350 350" fill="none" xmlns="http://www.w3.org/2000/svg">
<path fill-rule="evenodd" clip-rule="evenodd" d="M44.3171 67.1531C22.1355 68.3807 7.40543 80.0349 2.11782 100.542C0.383378 107.266 0.282918 108.502 0.137419 124.983L0 140.365H15.6307H31.2615V128.134C31.2626 121.057 31.4024 114.765 31.5941 113.202C32.9243 102.35 38.2004 97.3037 48.2179 97.3037C60.0333 97.3037 64.9145 104.199 64.9145 120.889C64.9145 141.53 56.8508 156.976 32.4959 182.985C14.8952 201.783 6.94815 214.494 2.86495 230.379C0.465369 239.716 0.0496542 244.69 0.0484994 264.099L0.0473453 279.631H47.6186H95.1886V264.473V249.316H63.9318H32.6761L32.8527 243.989C33.3493 229.016 38.4094 219.716 56.9005 199.793C88.3987 165.857 98.9866 144.606 98.0986 117.104C96.9854 82.6285 78.2981 65.2731 44.3171 67.1531ZM150.113 67.0457C127.429 67.7675 112.383 79.4321 107.026 100.446C105.587 106.089 105.344 108.639 105.184 119.73L105.032 130.46H120.636H136.24L136.39 120.931C136.547 110.968 136.67 109.909 138.11 106.061C142.379 94.6511 160.083 94.0841 165.684 105.177C167.773 109.316 168.402 114.006 168.414 125.508C168.436 149.982 164.701 154.673 144.935 154.997L136.607 155.135V170.11V185.087L141.934 185.089C164.512 185.099 168.778 189.954 169.222 216.151C169.533 234.511 168.647 241.358 165.306 246.39C160.552 253.552 147.083 254.424 140.633 247.987C136.298 243.66 135.406 239.45 135.406 223.287V212.999H119.8H104.193V224.867C104.193 231.394 104.335 238.046 104.51 239.649C107.564 267.779 124.231 282.391 153.265 282.391C181.971 282.391 198.024 268.671 201.798 240.913C202.456 236.071 202.339 205.126 201.645 200.694C199.142 184.68 192.429 174.942 180.247 169.644L177.966 168.653L181.112 167.15C192.502 161.709 198.377 152.886 200.747 137.664C201.533 132.609 201.526 112.466 200.737 107.214C196.583 79.5995 179.579 66.108 150.113 67.0457ZM256.209 67.1531C234.027 68.3807 219.298 80.0349 214.01 100.542C212.276 107.266 212.176 108.502 212.029 124.983L211.893 140.365H227.523H243.153L243.154 128.134C243.155 121.057 243.295 114.765 243.487 113.202C244.816 102.35 250.093 97.3037 260.111 97.3037C271.926 97.3037 276.807 104.199 276.807 120.889C276.807 141.53 268.743 156.976 244.389 182.985C226.788 201.783 218.841 214.494 214.758 230.379C212.358 239.716 211.942 244.69 211.941 264.099L211.94 279.631H259.51H307.081V264.473V249.316H275.824H244.568L244.744 243.989C245.242 229.016 250.302 219.716 268.793 199.793C300.291 165.857 310.879 144.606 309.991 117.104C308.878 82.6285 290.191 65.2731 256.209 67.1531ZM318.487 263.423V279.331H334.243H350V263.423V247.516H334.243H318.487V263.423Z" fill="#ECC41C"/>
</svg>
