<svg width="1920" height="650" viewBox="0 0 1920 650" fill="none" xmlns="http://www.w3.org/2000/svg">
<g clip-path="url(#clip0)">
<path d="M521.15 259H537.65V301.75H555.35V259H571.85V364H555.35V316.75H537.65V364H521.15V259ZM584.138 259H600.638V364H584.138V259ZM584.888 236.65H599.888V251.95H584.888V236.65ZM609.696 349.3L640.296 274H611.196V259H657.996V273.7L627.396 349H657.996V364H609.696V349.3ZM667.341 259H690.891L701.391 334.15H701.691L712.191 259H735.741V364H720.141V284.5H719.841L707.841 364H694.041L682.041 284.5H681.741V364H667.341V259ZM748.054 259H793.054V274H764.554V301.75H787.204V316.75H764.554V349H793.054V364H748.054V259ZM815.446 274H798.196V259H849.196V274H831.946V364H815.446V274ZM857.185 259H873.685V349H900.835V364H857.185V259ZM908.748 259H953.748V274H925.248V301.75H947.898V316.75H925.248V349H953.748V364H908.748V259ZM963.24 259H987.69C996.19 259 1002.39 261 1006.29 265C1010.19 268.9 1012.14 274.95 1012.14 283.15V289.6C1012.14 300.5 1008.54 307.4 1001.34 310.3V310.6C1005.34 311.8 1008.14 314.25 1009.74 317.95C1011.44 321.65 1012.29 326.6 1012.29 332.8V351.25C1012.29 354.25 1012.39 356.7 1012.59 358.6C1012.79 360.4 1013.29 362.2 1014.09 364H997.29C996.69 362.3 996.29 360.7 996.09 359.2C995.89 357.7 995.79 355 995.79 351.1V331.9C995.79 327.1 994.99 323.75 993.39 321.85C991.89 319.95 989.24 319 985.44 319H979.74V364H963.24V259ZM985.74 304C989.04 304 991.49 303.15 993.09 301.45C994.79 299.75 995.64 296.9 995.64 292.9V284.8C995.64 281 994.94 278.25 993.54 276.55C992.24 274.85 990.14 274 987.24 274H979.74V304H985.74ZM1023.74 259H1040.24V364H1023.74V259ZM1024.49 236.65H1039.49V251.95H1024.49V236.65ZM1052.6 259H1076.15L1086.65 334.15H1086.95L1097.45 259H1121V364H1105.4V284.5H1105.1L1093.1 364H1079.3L1067.3 284.5H1067V364H1052.6V259ZM1133.31 259H1149.81V364H1133.31V259ZM1134.06 236.65H1149.06V251.95H1134.06V236.65ZM1158.87 349.3L1189.47 274H1160.37V259H1207.17V273.7L1176.57 349H1207.17V364H1158.87V349.3Z" fill="#ECC41C"/>
<rect x="1298" y="252" width="112" height="112" fill="#ECC41C"/>
<rect x="1285.5" y="269.5" width="107" height="107" stroke="white" stroke-width="5"/>
<path d="M1332.59 296.766L1329.3 300.049L1352.76 323.5L1329.31 346.954L1332.59 350.234L1357.68 325.14L1359.25 323.5L1357.68 321.86L1332.59 296.766Z" fill="white"/>
<path d="M-1 361C-1 361 5.5 361 44 361C82.5 361 107.5 229.5 132.5 229.5C157.5 229.5 192.5 480.5 217.5 480.5C242.5 480.5 266.5 293.5 279.5 293.5C292.5 293.5 302 366 317 366C332 366 347 318 363.5 318C380 318 395.5 492 417 492C438.5 492 441.5 359 467.5 359C493.5 359 523 359 523 359" stroke="#ECC41C" stroke-width="10"/>
</g>
<defs>
<clipPath id="clip0">
<rect width="1920" height="650" fill="white"/>
</clipPath>
</defs>
</svg>
