<svg xmlns="http://www.w3.org/2000/svg" width="1920" height="650" fill="none" viewBox="0 0 1920 650"><rect width="1920" height="650" fill="#000"/><path fill="#fff" d="M220.18 201H201.82V159.06H218.14C220.98 159.06 223.42 159.4 225.46 160.08C227.54 160.76 229.08 161.68 230.08 162.84C232 165 232.96 167.44 232.96 170.16C232.96 173.44 231.92 175.88 229.84 177.48C229.08 178.04 228.56 178.4 228.28 178.56C228 178.68 227.5 178.9 226.78 179.22C229.38 179.78 231.44 180.96 232.96 182.76C234.52 184.52 235.3 186.72 235.3 189.36C235.3 192.28 234.3 194.86 232.3 197.1C229.94 199.7 225.9 201 220.18 201ZM208.9 176.46H217.9C223.02 176.46 225.58 174.72 225.58 171.24C225.58 169.24 224.96 167.8 223.72 166.92C222.48 166.04 220.56 165.6 217.96 165.6H208.9V176.46ZM208.9 194.46H220C222.6 194.46 224.58 194.06 225.94 193.26C227.34 192.42 228.04 190.86 228.04 188.58C228.04 184.86 225.06 183 219.1 183H208.9V194.46ZM249.943 201H243.223V169.08H249.943V201ZM243.643 162.72C242.803 161.88 242.383 160.88 242.383 159.72C242.383 158.56 242.803 157.56 243.643 156.72C244.483 155.88 245.483 155.46 246.643 155.46C247.803 155.46 248.803 155.88 249.643 156.72C250.483 157.56 250.903 158.56 250.903 159.72C250.903 160.88 250.483 161.88 249.643 162.72C248.803 163.56 247.803 163.98 246.643 163.98C245.483 163.98 244.483 163.56 243.643 162.72ZM258.668 174.96V169.2H283.628V175.26L265.688 195.18H284.588V201H257.468V194.46L274.928 174.96H258.668ZM321.634 201.48C317.594 201.48 314.074 199.96 311.074 196.92C308.074 193.88 306.574 189.88 306.574 184.92C306.574 179.96 308.114 176 311.194 173.04C314.274 170.08 317.934 168.6 322.174 168.6C326.454 168.6 329.894 170.4 332.494 174V156.48H339.214V201H332.494V196.2C330.014 199.72 326.394 201.48 321.634 201.48ZM313.294 185.22C313.294 188.26 314.274 190.74 316.234 192.66C318.194 194.58 320.494 195.54 323.134 195.54C325.774 195.54 328.014 194.58 329.854 192.66C331.694 190.7 332.614 188.2 332.614 185.16C332.614 182.12 331.694 179.58 329.854 177.54C328.014 175.5 325.754 174.48 323.074 174.48C320.394 174.48 318.094 175.5 316.174 177.54C314.254 179.58 313.294 182.14 313.294 185.22ZM355.646 201H348.926V169.08H355.646V201ZM349.346 162.72C348.506 161.88 348.086 160.88 348.086 159.72C348.086 158.56 348.506 157.56 349.346 156.72C350.186 155.88 351.186 155.46 352.346 155.46C353.506 155.46 354.506 155.88 355.346 156.72C356.186 157.56 356.606 158.56 356.606 159.72C356.606 160.88 356.186 161.88 355.346 162.72C354.506 163.56 353.506 163.98 352.346 163.98C351.186 163.98 350.186 163.56 349.346 162.72ZM365.391 202.5V169.08H372.111V202.74C372.111 206.1 371.091 208.76 369.051 210.72C367.051 212.72 364.611 213.72 361.731 213.72C358.891 213.72 356.291 212.66 353.931 210.54L357.051 205.5C358.411 206.82 359.771 207.48 361.131 207.48C362.531 207.48 363.591 207.04 364.311 206.16C365.031 205.28 365.391 204.06 365.391 202.5ZM365.691 162.72C364.851 161.88 364.431 160.88 364.431 159.72C364.431 158.56 364.851 157.56 365.691 156.72C366.531 155.88 367.531 155.46 368.691 155.46C369.851 155.46 370.851 155.88 371.691 156.72C372.531 157.56 372.951 158.56 372.951 159.72C372.951 160.88 372.531 161.88 371.691 162.72C370.851 163.56 369.851 163.98 368.691 163.98C367.531 163.98 366.531 163.56 365.691 162.72ZM388.576 201H381.856V169.08H388.576V201ZM382.276 162.72C381.436 161.88 381.016 160.88 381.016 159.72C381.016 158.56 381.436 157.56 382.276 156.72C383.116 155.88 384.116 155.46 385.276 155.46C386.436 155.46 387.436 155.88 388.276 156.72C389.116 157.56 389.536 158.56 389.536 159.72C389.536 160.88 389.116 161.88 388.276 162.72C387.436 163.56 386.436 163.98 385.276 163.98C384.116 163.98 383.116 163.56 382.276 162.72ZM406.601 174.48V190.68C406.601 192.2 407.001 193.42 407.801 194.34C408.601 195.22 409.721 195.66 411.161 195.66C412.601 195.66 413.981 194.96 415.301 193.56L418.061 198.3C415.701 200.42 413.081 201.48 410.201 201.48C407.361 201.48 404.921 200.5 402.881 198.54C400.881 196.54 399.881 193.86 399.881 190.5V174.48H395.861V169.08H399.881V159.06H406.601V169.08H415.001V174.48H406.601ZM449.259 201H443.139V196.74C440.499 199.9 436.959 201.48 432.519 201.48C429.199 201.48 426.439 200.54 424.239 198.66C422.079 196.78 420.999 194.28 420.999 191.16C420.999 188 422.159 185.64 424.479 184.08C426.799 182.52 429.939 181.74 433.899 181.74H442.599V180.54C442.599 176.3 440.239 174.18 435.519 174.18C432.559 174.18 429.479 175.26 426.279 177.42L423.279 173.22C427.159 170.14 431.559 168.6 436.479 168.6C440.239 168.6 443.299 169.56 445.659 171.48C448.059 173.36 449.259 176.34 449.259 180.42V201ZM442.539 189.12V186.42H434.979C430.139 186.42 427.719 187.94 427.719 190.98C427.719 192.54 428.319 193.74 429.519 194.58C430.719 195.38 432.379 195.78 434.499 195.78C436.659 195.78 438.539 195.18 440.139 193.98C441.739 192.78 442.539 191.16 442.539 189.12ZM465.334 201H458.614V156.48H465.334V201ZM508.284 175.38C504.964 175.38 502.464 176.46 500.784 178.62C499.104 180.78 498.264 183.68 498.264 187.32V201H491.544V169.08H498.264V175.5C499.344 173.5 500.804 171.86 502.644 170.58C504.524 169.3 506.504 168.64 508.584 168.6L508.644 175.38C508.524 175.38 508.404 175.38 508.284 175.38ZM545.091 187.98H520.071C520.231 190.3 521.291 192.18 523.251 193.62C525.211 195.02 527.451 195.72 529.971 195.72C533.971 195.72 537.011 194.46 539.091 191.94L542.931 196.14C539.491 199.7 535.011 201.48 529.491 201.48C525.011 201.48 521.191 200 518.031 197.04C514.911 194.04 513.351 190.04 513.351 185.04C513.351 180 514.951 176 518.151 173.04C521.351 170.08 525.111 168.6 529.431 168.6C533.791 168.6 537.491 169.92 540.531 172.56C543.571 175.16 545.091 178.76 545.091 183.36V187.98ZM520.071 182.7H538.371C538.371 180.02 537.531 177.96 535.851 176.52C534.171 175.08 532.091 174.36 529.611 174.36C527.171 174.36 524.971 175.12 523.011 176.64C521.051 178.12 520.071 180.14 520.071 182.7ZM559.201 201H552.481V156.48H559.201V182.64L572.161 169.08H580.801L568.681 181.74L581.701 201H573.541L564.061 187.02L559.201 191.94V201ZM594.064 201H587.344V156.48H594.064V201ZM629.669 201H623.549V196.74C620.909 199.9 617.369 201.48 612.929 201.48C609.609 201.48 606.849 200.54 604.649 198.66C602.489 196.78 601.409 194.28 601.409 191.16C601.409 188 602.569 185.64 604.889 184.08C607.209 182.52 610.349 181.74 614.309 181.74H623.009V180.54C623.009 176.3 620.649 174.18 615.929 174.18C612.969 174.18 609.889 175.26 606.689 177.42L603.689 173.22C607.569 170.14 611.969 168.6 616.889 168.6C620.649 168.6 623.709 169.56 626.069 171.48C628.469 173.36 629.669 176.34 629.669 180.42V201ZM622.949 189.12V186.42H615.389C610.549 186.42 608.129 187.94 608.129 190.98C608.129 192.54 608.729 193.74 609.929 194.58C611.129 195.38 612.789 195.78 614.909 195.78C617.069 195.78 618.949 195.18 620.549 193.98C622.149 192.78 622.949 191.16 622.949 189.12ZM645.744 183.72V201H639.024V169.08H645.744V174.9C646.704 172.94 648.144 171.4 650.064 170.28C652.024 169.16 654.124 168.6 656.364 168.6C661.404 168.6 664.824 170.68 666.624 174.84C669.784 170.68 673.724 168.6 678.444 168.6C682.044 168.6 684.944 169.7 687.144 171.9C689.384 174.1 690.504 177.28 690.504 181.44V201H683.784V183.48C683.784 177.6 681.344 174.66 676.464 174.66C674.184 174.66 672.184 175.4 670.464 176.88C668.784 178.32 667.904 180.44 667.824 183.24V201H661.104V183.48C661.104 180.44 660.564 178.22 659.484 176.82C658.404 175.38 656.704 174.66 654.384 174.66C652.064 174.66 650.044 175.44 648.324 177C646.604 178.52 645.744 180.76 645.744 183.72ZM742.169 201H736.049V196.74C733.409 199.9 729.869 201.48 725.429 201.48C722.109 201.48 719.349 200.54 717.149 198.66C714.989 196.78 713.909 194.28 713.909 191.16C713.909 188 715.069 185.64 717.389 184.08C719.709 182.52 722.849 181.74 726.809 181.74H735.509V180.54C735.509 176.3 733.149 174.18 728.429 174.18C725.469 174.18 722.389 175.26 719.189 177.42L716.189 173.22C720.069 170.14 724.469 168.6 729.389 168.6C733.149 168.6 736.209 169.56 738.569 171.48C740.969 173.36 742.169 176.34 742.169 180.42V201ZM735.449 189.12V186.42H727.889C723.049 186.42 720.629 187.94 720.629 190.98C720.629 192.54 721.229 193.74 722.429 194.58C723.629 195.38 725.289 195.78 727.409 195.78C729.569 195.78 731.449 195.18 733.049 193.98C734.649 192.78 735.449 191.16 735.449 189.12ZM751.524 202.5V169.08H758.244V202.74C758.244 206.1 757.224 208.76 755.184 210.72C753.184 212.72 750.744 213.72 747.864 213.72C745.024 213.72 742.424 212.66 740.064 210.54L743.184 205.5C744.544 206.82 745.904 207.48 747.264 207.48C748.664 207.48 749.724 207.04 750.444 206.16C751.164 205.28 751.524 204.06 751.524 202.5ZM751.824 162.72C750.984 161.88 750.564 160.88 750.564 159.72C750.564 158.56 750.984 157.56 751.824 156.72C752.664 155.88 753.664 155.46 754.824 155.46C755.984 155.46 756.984 155.88 757.824 156.72C758.664 157.56 759.084 158.56 759.084 159.72C759.084 160.88 758.664 161.88 757.824 162.72C756.984 163.56 755.984 163.98 754.824 163.98C753.664 163.98 752.664 163.56 751.824 162.72ZM793.849 201H787.729V196.74C785.089 199.9 781.549 201.48 777.109 201.48C773.789 201.48 771.029 200.54 768.829 198.66C766.669 196.78 765.589 194.28 765.589 191.16C765.589 188 766.749 185.64 769.069 184.08C771.389 182.52 774.529 181.74 778.489 181.74H787.189V180.54C787.189 176.3 784.829 174.18 780.109 174.18C777.149 174.18 774.069 175.26 770.869 177.42L767.869 173.22C771.749 170.14 776.149 168.6 781.069 168.6C784.829 168.6 787.889 169.56 790.249 171.48C792.649 173.36 793.849 176.34 793.849 180.42V201ZM787.129 189.12V186.42H779.569C774.729 186.42 772.309 187.94 772.309 190.98C772.309 192.54 772.909 193.74 774.109 194.58C775.309 195.38 776.969 195.78 779.089 195.78C781.249 195.78 783.129 195.18 784.729 193.98C786.329 192.78 787.129 191.16 787.129 189.12ZM809.924 183.72V201H803.204V169.08H809.924V174.9C811.004 172.94 812.484 171.4 814.364 170.28C816.284 169.16 818.344 168.6 820.544 168.6C824.144 168.6 827.044 169.7 829.244 171.9C831.484 174.1 832.604 177.28 832.604 181.44V201H825.884V183.48C825.884 177.6 823.444 174.66 818.564 174.66C816.244 174.66 814.224 175.44 812.504 177C810.784 178.52 809.924 180.76 809.924 183.72ZM864.733 191.46C864.733 194.5 863.633 196.94 861.433 198.78C859.233 200.58 856.413 201.48 852.973 201.48C850.653 201.48 848.233 201.06 845.713 200.22C843.233 199.38 841.033 198.2 839.113 196.68L842.353 191.46C846.073 194.26 849.673 195.66 853.153 195.66C854.673 195.66 855.873 195.32 856.753 194.64C857.633 193.92 858.073 193.02 858.073 191.94C858.073 190.34 855.953 188.9 851.713 187.62C851.393 187.5 851.153 187.42 850.993 187.38C844.353 185.58 841.033 182.58 841.033 178.38C841.033 175.42 842.173 173.06 844.453 171.3C846.773 169.5 849.773 168.6 853.453 168.6C857.133 168.6 860.613 169.68 863.893 171.84L861.373 176.82C858.773 175.1 855.953 174.24 852.913 174.24C851.313 174.24 850.013 174.54 849.013 175.14C848.013 175.7 847.513 176.56 847.513 177.72C847.513 178.76 848.033 179.52 849.073 180C849.793 180.36 850.793 180.7 852.073 181.02C853.393 181.34 854.553 181.66 855.553 181.98C856.553 182.3 857.513 182.66 858.433 183.06C859.393 183.46 860.413 184.02 861.493 184.74C863.653 186.18 864.733 188.42 864.733 191.46ZM872.344 169.08H879.064V201H872.344V169.08ZM892.829 213.72C889.909 213.72 887.269 212.66 884.909 210.54L887.969 205.08C889.369 206.4 890.809 207.06 892.289 207.06C893.809 207.06 895.029 206.52 895.949 205.44C896.909 204.36 897.389 203.18 897.389 201.9C897.389 201.34 893.089 190.4 884.489 169.08H891.689L901.229 192.6L910.769 169.08H917.969L902.489 207C901.569 209.08 900.249 210.72 898.529 211.92C896.809 213.12 894.909 213.72 892.829 213.72ZM923.262 169.08H929.982V201H923.262V169.08ZM938.707 174.96V169.2H963.667V175.26L945.727 195.18H964.627V201H937.507V194.46L954.967 174.96H938.707ZM972.548 200.16C971.708 199.28 971.288 198.22 971.288 196.98C971.288 195.74 971.708 194.7 972.548 193.86C973.428 192.98 974.488 192.54 975.728 192.54C976.968 192.54 978.028 192.98 978.908 193.86C979.788 194.7 980.228 195.74 980.228 196.98C980.228 198.22 979.788 199.28 978.908 200.16C978.028 201.04 976.968 201.48 975.728 201.48C974.488 201.48 973.428 201.04 972.548 200.16ZM1018.49 201H1003.01V197.88L1008.05 196.74V162.48L1003.01 161.28V158.16H1018.49V161.28L1013.45 162.48V196.74L1018.49 197.88V201ZM1010.99 146.1C1011.79 146.1 1012.49 146.38 1013.09 146.94C1013.73 147.46 1014.05 148.3 1014.05 149.46C1014.05 150.58 1013.73 151.42 1013.09 151.98C1012.49 152.54 1011.79 152.82 1010.99 152.82C1010.11 152.82 1009.37 152.54 1008.77 151.98C1008.17 151.42 1007.87 150.58 1007.87 149.46C1007.87 148.3 1008.17 147.46 1008.77 146.94C1009.37 146.38 1010.11 146.1 1010.99 146.1ZM1046.98 192.12C1046.98 195.24 1045.82 197.6 1043.5 199.2C1041.18 200.8 1038.06 201.6 1034.14 201.6C1031.9 201.6 1029.96 201.42 1028.32 201.06C1026.72 200.7 1025.3 200.2 1024.06 199.56V194.76C1025.34 195.4 1026.88 196 1028.68 196.56C1030.52 197.08 1032.38 197.34 1034.26 197.34C1036.94 197.34 1038.88 196.92 1040.08 196.08C1041.28 195.2 1041.88 194.04 1041.88 192.6C1041.88 191.8 1041.66 191.08 1041.22 190.44C1040.78 189.8 1039.98 189.16 1038.82 188.52C1037.7 187.88 1036.08 187.16 1033.96 186.36C1031.88 185.56 1030.1 184.76 1028.62 183.96C1027.14 183.16 1026 182.2 1025.2 181.08C1024.4 179.96 1024 178.52 1024 176.76C1024 174.04 1025.1 171.94 1027.3 170.46C1029.54 168.98 1032.46 168.24 1036.06 168.24C1038.02 168.24 1039.84 168.44 1041.52 168.84C1043.24 169.2 1044.84 169.72 1046.32 170.4L1044.52 174.6C1043.16 174.04 1041.74 173.56 1040.26 173.16C1038.78 172.76 1037.26 172.56 1035.7 172.56C1033.54 172.56 1031.88 172.92 1030.72 173.64C1029.6 174.32 1029.04 175.26 1029.04 176.46C1029.04 177.34 1029.3 178.1 1029.82 178.74C1030.34 179.34 1031.2 179.94 1032.4 180.54C1033.64 181.1 1035.28 181.78 1037.32 182.58C1039.36 183.34 1041.1 184.12 1042.54 184.92C1043.98 185.72 1045.08 186.7 1045.84 187.86C1046.6 188.98 1046.98 190.4 1046.98 192.12ZM1041.4 209.34C1041.4 211.26 1040.66 212.74 1039.18 213.78C1037.7 214.86 1035.48 215.4 1032.52 215.4C1031.24 215.4 1030.24 215.3 1029.52 215.1V211.8C1029.88 211.88 1030.36 211.94 1030.96 211.98C1031.56 212.06 1032.14 212.1 1032.7 212.1C1034.14 212.1 1035.24 211.9 1036 211.5C1036.76 211.14 1037.14 210.46 1037.14 209.46C1037.14 208.42 1036.6 207.66 1035.52 207.18C1034.48 206.7 1033.2 206.36 1031.68 206.16L1034.26 201H1037.74L1036.18 204.18C1037.62 204.5 1038.84 205.06 1039.84 205.86C1040.88 206.66 1041.4 207.82 1041.4 209.34ZM1061.23 201H1054.51V169.08H1061.23V201ZM1054.93 162.72C1054.09 161.88 1053.67 160.88 1053.67 159.72C1053.67 158.56 1054.09 157.56 1054.93 156.72C1055.77 155.88 1056.77 155.46 1057.93 155.46C1059.09 155.46 1060.09 155.88 1060.93 156.72C1061.77 157.56 1062.19 158.56 1062.19 159.72C1062.19 160.88 1061.77 161.88 1060.93 162.72C1060.09 163.56 1059.09 163.98 1057.93 163.98C1056.77 163.98 1055.77 163.56 1054.93 162.72ZM1077.7 183.72V201H1070.98V169.08H1077.7V174.9C1078.66 172.94 1080.1 171.4 1082.02 170.28C1083.98 169.16 1086.08 168.6 1088.32 168.6C1093.36 168.6 1096.78 170.68 1098.58 174.84C1101.74 170.68 1105.68 168.6 1110.4 168.6C1114 168.6 1116.9 169.7 1119.1 171.9C1121.34 174.1 1122.46 177.28 1122.46 181.44V201H1115.74V183.48C1115.74 177.6 1113.3 174.66 1108.42 174.66C1106.14 174.66 1104.14 175.4 1102.42 176.88C1100.74 178.32 1099.86 180.44 1099.78 183.24V201H1093.06V183.48C1093.06 180.44 1092.52 178.22 1091.44 176.82C1090.36 175.38 1088.66 174.66 1086.34 174.66C1084.02 174.66 1082 175.44 1080.28 177C1078.56 178.52 1077.7 180.76 1077.7 183.72ZM1138.52 201H1131.8V169.08H1138.52V201ZM1132.22 162.72C1131.38 161.88 1130.96 160.88 1130.96 159.72C1130.96 158.56 1131.38 157.56 1132.22 156.72C1133.06 155.88 1134.06 155.46 1135.22 155.46C1136.38 155.46 1137.38 155.88 1138.22 156.72C1139.06 157.56 1139.48 158.56 1139.48 159.72C1139.48 160.88 1139.06 161.88 1138.22 162.72C1137.38 163.56 1136.38 163.98 1135.22 163.98C1134.06 163.98 1133.06 163.56 1132.22 162.72ZM1147.24 174.96V169.2H1172.2V175.26L1154.26 195.18H1173.16V201H1146.04V194.46L1163.5 174.96H1147.24ZM1180.24 197.04C1180.24 195.76 1180.68 194.7 1181.56 193.86C1182.44 192.98 1183.48 192.54 1184.68 192.54C1185.92 192.54 1186.98 192.98 1187.86 193.86C1188.78 194.7 1189.24 195.7 1189.24 196.86C1189.24 198.02 1188.7 199.52 1187.62 201.36L1183.96 207.3H1180.48L1182.7 201.06C1181.06 200.22 1180.24 198.88 1180.24 197.04ZM1181.5 185.46C1180.66 184.58 1180.24 183.52 1180.24 182.28C1180.24 181.04 1180.66 180 1181.5 179.16C1182.38 178.28 1183.44 177.84 1184.68 177.84C1185.92 177.84 1186.98 178.28 1187.86 179.16C1188.74 180 1189.18 181.04 1189.18 182.28C1189.18 183.52 1188.74 184.58 1187.86 185.46C1186.98 186.34 1185.92 186.78 1184.68 186.78C1183.44 186.78 1182.38 186.34 1181.5 185.46ZM1227.96 201.48C1223.92 201.48 1220.4 199.96 1217.4 196.92C1214.4 193.88 1212.9 189.88 1212.9 184.92C1212.9 179.96 1214.44 176 1217.52 173.04C1220.6 170.08 1224.26 168.6 1228.5 168.6C1232.78 168.6 1236.22 170.4 1238.82 174V156.48H1245.54V201H1238.82V196.2C1236.34 199.72 1232.72 201.48 1227.96 201.48ZM1219.62 185.22C1219.62 188.26 1220.6 190.74 1222.56 192.66C1224.52 194.58 1226.82 195.54 1229.46 195.54C1232.1 195.54 1234.34 194.58 1236.18 192.66C1238.02 190.7 1238.94 188.2 1238.94 185.16C1238.94 182.12 1238.02 179.58 1236.18 177.54C1234.34 175.5 1232.08 174.48 1229.4 174.48C1226.72 174.48 1224.42 175.5 1222.5 177.54C1220.58 179.58 1219.62 182.14 1219.62 185.22ZM1262.69 192.6C1264.61 194.52 1267.03 195.48 1269.95 195.48C1272.87 195.48 1275.27 194.52 1277.15 192.6C1279.07 190.64 1280.03 188.12 1280.03 185.04C1280.03 181.96 1279.07 179.46 1277.15 177.54C1275.27 175.58 1272.87 174.6 1269.95 174.6C1267.03 174.6 1264.61 175.58 1262.69 177.54C1260.81 179.46 1259.87 181.96 1259.87 185.04C1259.87 188.12 1260.81 190.64 1262.69 192.6ZM1281.95 196.74C1278.75 199.9 1274.75 201.48 1269.95 201.48C1265.15 201.48 1261.15 199.9 1257.95 196.74C1254.75 193.54 1253.15 189.64 1253.15 185.04C1253.15 180.44 1254.75 176.56 1257.95 173.4C1261.15 170.2 1265.15 168.6 1269.95 168.6C1274.75 168.6 1278.75 170.2 1281.95 173.4C1285.15 176.56 1286.75 180.44 1286.75 185.04C1286.75 189.64 1285.15 193.54 1281.95 196.74ZM1306.04 168.24C1308.16 168.24 1310.06 168.64 1311.74 169.44C1313.46 170.24 1314.92 171.46 1316.12 173.1H1316.42L1317.14 168.84H1321.34V201.54C1321.34 206.14 1320.16 209.6 1317.8 211.92C1315.48 214.24 1311.86 215.4 1306.94 215.4C1302.22 215.4 1298.36 214.72 1295.36 213.36V208.5C1298.52 210.18 1302.48 211.02 1307.24 211.02C1310 211.02 1312.16 210.2 1313.72 208.56C1315.32 206.96 1316.12 204.76 1316.12 201.96V200.7C1316.12 200.22 1316.14 199.54 1316.18 198.66C1316.22 197.74 1316.26 197.1 1316.3 196.74H1316.06C1313.9 199.98 1310.58 201.6 1306.1 201.6C1301.94 201.6 1298.68 200.14 1296.32 197.22C1294 194.3 1292.84 190.22 1292.84 184.98C1292.84 179.86 1294 175.8 1296.32 172.8C1298.68 169.76 1301.92 168.24 1306.04 168.24ZM1306.76 172.68C1304.08 172.68 1302 173.76 1300.52 175.92C1299.04 178.04 1298.3 181.08 1298.3 185.04C1298.3 189 1299.02 192.04 1300.46 194.16C1301.94 196.24 1304.08 197.28 1306.88 197.28C1310.12 197.28 1312.48 196.42 1313.96 194.7C1315.44 192.94 1316.18 190.12 1316.18 186.24V184.98C1316.18 180.58 1315.42 177.44 1313.9 175.56C1312.38 173.64 1310 172.68 1306.76 172.68ZM1316.96 156.6C1316.76 159 1315.84 160.94 1314.2 162.42C1312.6 163.9 1310.36 164.64 1307.48 164.64C1304.52 164.64 1302.28 163.92 1300.76 162.48C1299.28 161 1298.46 159.04 1298.3 156.6H1301.54C1301.74 158.24 1302.34 159.28 1303.34 159.72C1304.34 160.16 1305.76 160.38 1307.6 160.38C1309.16 160.38 1310.5 160.14 1311.62 159.66C1312.78 159.18 1313.46 158.16 1313.66 156.6H1316.96ZM1348.05 175.38C1344.73 175.38 1342.23 176.46 1340.55 178.62C1338.87 180.78 1338.03 183.68 1338.03 187.32V201H1331.31V169.08H1338.03V175.5C1339.11 173.5 1340.57 171.86 1342.41 170.58C1344.29 169.3 1346.27 168.64 1348.35 168.6L1348.41 175.38C1348.29 175.38 1348.17 175.38 1348.05 175.38ZM1377.48 186.36V169.08H1384.2V201H1377.48V195.18C1376.4 197.14 1374.9 198.68 1372.98 199.8C1371.1 200.92 1369.06 201.48 1366.86 201.48C1363.26 201.48 1360.34 200.38 1358.1 198.18C1355.9 195.98 1354.8 192.8 1354.8 188.64V169.08H1361.52V186.6C1361.52 192.48 1363.96 195.42 1368.84 195.42C1371.16 195.42 1373.18 194.66 1374.9 193.14C1376.62 191.58 1377.48 189.32 1377.48 186.36ZM1417.13 201H1410.41V169.08H1417.13V201ZM1410.83 162.72C1409.99 161.88 1409.57 160.88 1409.57 159.72C1409.57 158.56 1409.99 157.56 1410.83 156.72C1411.67 155.88 1412.67 155.46 1413.83 155.46C1414.99 155.46 1415.99 155.88 1416.83 156.72C1417.67 157.56 1418.09 158.56 1418.09 159.72C1418.09 160.88 1417.67 161.88 1416.83 162.72C1415.99 163.56 1414.99 163.98 1413.83 163.98C1412.67 163.98 1411.67 163.56 1410.83 162.72ZM1433.6 201H1426.88V156.48H1433.6V201ZM1473.04 187.98H1448.02C1448.18 190.3 1449.24 192.18 1451.2 193.62C1453.16 195.02 1455.4 195.72 1457.92 195.72C1461.92 195.72 1464.96 194.46 1467.04 191.94L1470.88 196.14C1467.44 199.7 1462.96 201.48 1457.44 201.48C1452.96 201.48 1449.14 200 1445.98 197.04C1442.86 194.04 1441.3 190.04 1441.3 185.04C1441.3 180 1442.9 176 1446.1 173.04C1449.3 170.08 1453.06 168.6 1457.38 168.6C1461.74 168.6 1465.44 169.92 1468.48 172.56C1471.52 175.16 1473.04 178.76 1473.04 183.36V187.98ZM1448.02 182.7H1466.32C1466.32 180.02 1465.48 177.96 1463.8 176.52C1462.12 175.08 1460.04 174.36 1457.56 174.36C1455.12 174.36 1452.92 175.12 1450.96 176.64C1449 178.12 1448.02 180.14 1448.02 182.7ZM1488.48 174.48V190.68C1488.48 192.2 1488.88 193.42 1489.68 194.34C1490.48 195.22 1491.6 195.66 1493.04 195.66C1494.48 195.66 1495.86 194.96 1497.18 193.56L1499.94 198.3C1497.58 200.42 1494.96 201.48 1492.08 201.48C1489.24 201.48 1486.8 200.5 1484.76 198.54C1482.76 196.54 1481.76 193.86 1481.76 190.5V174.48H1477.74V169.08H1481.76V159.06H1488.48V169.08H1496.88V174.48H1488.48ZM1511.99 201H1505.27V169.08H1511.99V201ZM1505.69 162.72C1504.85 161.88 1504.43 160.88 1504.43 159.72C1504.43 158.56 1504.85 157.56 1505.69 156.72C1506.53 155.88 1507.53 155.46 1508.69 155.46C1509.85 155.46 1510.85 155.88 1511.69 156.72C1512.53 157.56 1512.95 158.56 1512.95 159.72C1512.95 160.88 1512.53 161.88 1511.69 162.72C1510.85 163.56 1509.85 163.98 1508.69 163.98C1507.53 163.98 1506.53 163.56 1505.69 162.72ZM1542.92 192.12C1542.92 195.24 1541.76 197.6 1539.44 199.2C1537.12 200.8 1534 201.6 1530.08 201.6C1527.84 201.6 1525.9 201.42 1524.26 201.06C1522.66 200.7 1521.24 200.2 1520 199.56V194.76C1521.28 195.4 1522.82 196 1524.62 196.56C1526.46 197.08 1528.32 197.34 1530.2 197.34C1532.88 197.34 1534.82 196.92 1536.02 196.08C1537.22 195.2 1537.82 194.04 1537.82 192.6C1537.82 191.8 1537.6 191.08 1537.16 190.44C1536.72 189.8 1535.92 189.16 1534.76 188.52C1533.64 187.88 1532.02 187.16 1529.9 186.36C1527.82 185.56 1526.04 184.76 1524.56 183.96C1523.08 183.16 1521.94 182.2 1521.14 181.08C1520.34 179.96 1519.94 178.52 1519.94 176.76C1519.94 174.04 1521.04 171.94 1523.24 170.46C1525.48 168.98 1528.4 168.24 1532 168.24C1533.96 168.24 1535.78 168.44 1537.46 168.84C1539.18 169.2 1540.78 169.72 1542.26 170.4L1540.46 174.6C1539.1 174.04 1537.68 173.56 1536.2 173.16C1534.72 172.76 1533.2 172.56 1531.64 172.56C1529.48 172.56 1527.82 172.92 1526.66 173.64C1525.54 174.32 1524.98 175.26 1524.98 176.46C1524.98 177.34 1525.24 178.1 1525.76 178.74C1526.28 179.34 1527.14 179.94 1528.34 180.54C1529.58 181.1 1531.22 181.78 1533.26 182.58C1535.3 183.34 1537.04 184.12 1538.48 184.92C1539.92 185.72 1541.02 186.7 1541.78 187.86C1542.54 188.98 1542.92 190.4 1542.92 192.12ZM1537.34 209.34C1537.34 211.26 1536.6 212.74 1535.12 213.78C1533.64 214.86 1531.42 215.4 1528.46 215.4C1527.18 215.4 1526.18 215.3 1525.46 215.1V211.8C1525.82 211.88 1526.3 211.94 1526.9 211.98C1527.5 212.06 1528.08 212.1 1528.64 212.1C1530.08 212.1 1531.18 211.9 1531.94 211.5C1532.7 211.14 1533.08 210.46 1533.08 209.46C1533.08 208.42 1532.54 207.66 1531.46 207.18C1530.42 206.7 1529.14 206.36 1527.62 206.16L1530.2 201H1533.68L1532.12 204.18C1533.56 204.5 1534.78 205.06 1535.78 205.86C1536.82 206.66 1537.34 207.82 1537.34 209.34ZM1557.17 201H1550.45V169.08H1557.17V201ZM1550.87 162.72C1550.03 161.88 1549.61 160.88 1549.61 159.72C1549.61 158.56 1550.03 157.56 1550.87 156.72C1551.71 155.88 1552.71 155.46 1553.87 155.46C1555.03 155.46 1556.03 155.88 1556.87 156.72C1557.71 157.56 1558.13 158.56 1558.13 159.72C1558.13 160.88 1557.71 161.88 1556.87 162.72C1556.03 163.56 1555.03 163.98 1553.87 163.98C1552.71 163.98 1551.71 163.56 1550.87 162.72ZM1573.63 183.72V201H1566.91V169.08H1573.63V174.9C1574.59 172.94 1576.03 171.4 1577.95 170.28C1579.91 169.16 1582.01 168.6 1584.25 168.6C1589.29 168.6 1592.71 170.68 1594.51 174.84C1597.67 170.68 1601.61 168.6 1606.33 168.6C1609.93 168.6 1612.83 169.7 1615.03 171.9C1617.27 174.1 1618.39 177.28 1618.39 181.44V201H1611.67V183.48C1611.67 177.6 1609.23 174.66 1604.35 174.66C1602.07 174.66 1600.07 175.4 1598.35 176.88C1596.67 178.32 1595.79 180.44 1595.71 183.24V201H1588.99V183.48C1588.99 180.44 1588.45 178.22 1587.37 176.82C1586.29 175.38 1584.59 174.66 1582.27 174.66C1579.95 174.66 1577.93 175.44 1576.21 177C1574.49 178.52 1573.63 180.76 1573.63 183.72ZM204.88 286.72C201.96 286.72 199.32 285.66 196.96 283.54L200.02 278.08C201.42 279.4 202.86 280.06 204.34 280.06C205.86 280.06 207.08 279.52 208 278.44C208.96 277.36 209.44 276.18 209.44 274.9C209.44 274.34 205.14 263.4 196.54 242.08H203.74L213.28 265.6L222.82 242.08H230.02L214.54 280C213.62 282.08 212.3 283.72 210.58 284.92C208.86 286.12 206.96 286.72 204.88 286.72ZM241.553 236.92C240.873 236.2 240.533 235.32 240.533 234.28C240.533 233.24 240.893 232.38 241.613 231.7C242.333 230.98 243.193 230.62 244.193 230.62C245.233 230.62 246.113 230.98 246.833 231.7C247.553 232.38 247.913 233.24 247.913 234.28C247.913 235.32 247.533 236.2 246.773 236.92C246.053 237.64 245.173 238 244.133 238C243.133 238 242.273 237.64 241.553 236.92ZM255.293 238C254.293 238 253.433 237.64 252.713 236.92C251.993 236.2 251.633 235.34 251.633 234.34C251.633 233.3 251.993 232.42 252.713 231.7C253.433 230.98 254.293 230.62 255.293 230.62C256.333 230.62 257.213 230.98 257.933 231.7C258.653 232.38 259.013 233.24 259.013 234.28C259.013 235.32 258.653 236.2 257.933 236.92C257.213 237.64 256.333 238 255.293 238ZM242.753 265.6C244.673 267.52 247.093 268.48 250.013 268.48C252.933 268.48 255.333 267.52 257.213 265.6C259.133 263.64 260.093 261.12 260.093 258.04C260.093 254.96 259.133 252.46 257.213 250.54C255.333 248.58 252.933 247.6 250.013 247.6C247.093 247.6 244.673 248.58 242.753 250.54C240.873 252.46 239.933 254.96 239.933 258.04C239.933 261.12 240.873 263.64 242.753 265.6ZM262.013 269.74C258.813 272.9 254.813 274.48 250.013 274.48C245.213 274.48 241.213 272.9 238.013 269.74C234.813 266.54 233.213 262.64 233.213 258.04C233.213 253.44 234.813 249.56 238.013 246.4C241.213 243.2 245.213 241.6 250.013 241.6C254.813 241.6 258.813 243.2 262.013 246.4C265.213 249.56 266.813 253.44 266.813 258.04C266.813 262.64 265.213 266.54 262.013 269.74ZM281.174 256.72V274H274.454V242.08H281.174V247.9C282.254 245.94 283.734 244.4 285.614 243.28C287.534 242.16 289.594 241.6 291.794 241.6C295.394 241.6 298.294 242.7 300.494 244.9C302.734 247.1 303.854 250.28 303.854 254.44V274H297.134V256.48C297.134 250.6 294.694 247.66 289.814 247.66C287.494 247.66 285.474 248.44 283.754 250C282.034 251.52 281.174 253.76 281.174 256.72ZM321.113 247.48V263.68C321.113 265.2 321.513 266.42 322.313 267.34C323.113 268.22 324.233 268.66 325.673 268.66C327.113 268.66 328.493 267.96 329.813 266.56L332.573 271.3C330.213 273.42 327.593 274.48 324.713 274.48C321.873 274.48 319.433 273.5 317.393 271.54C315.393 269.54 314.393 266.86 314.393 263.5V247.48H310.373V242.08H314.393V232.06H321.113V242.08H329.513V247.48H321.113ZM367.611 260.98H342.591C342.751 263.3 343.811 265.18 345.771 266.62C347.731 268.02 349.971 268.72 352.491 268.72C356.491 268.72 359.531 267.46 361.611 264.94L365.451 269.14C362.011 272.7 357.531 274.48 352.011 274.48C347.531 274.48 343.711 273 340.551 270.04C337.431 267.04 335.871 263.04 335.871 258.04C335.871 253 337.471 249 340.671 246.04C343.871 243.08 347.631 241.6 351.951 241.6C356.311 241.6 360.011 242.92 363.051 245.56C366.091 248.16 367.611 251.76 367.611 256.36V260.98ZM342.591 255.7H360.891C360.891 253.02 360.051 250.96 358.371 249.52C356.691 248.08 354.611 247.36 352.131 247.36C349.691 247.36 347.491 248.12 345.531 249.64C343.571 251.12 342.591 253.14 342.591 255.7ZM381.721 256.72V274H375.001V242.08H381.721V247.9C382.681 245.94 384.121 244.4 386.041 243.28C388.001 242.16 390.101 241.6 392.341 241.6C397.381 241.6 400.801 243.68 402.601 247.84C405.761 243.68 409.701 241.6 414.421 241.6C418.021 241.6 420.921 242.7 423.121 244.9C425.361 247.1 426.481 250.28 426.481 254.44V274H419.761V256.48C419.761 250.6 417.321 247.66 412.441 247.66C410.161 247.66 408.161 248.4 406.441 249.88C404.761 251.32 403.881 253.44 403.801 256.24V274H397.081V256.48C397.081 253.44 396.541 251.22 395.461 249.82C394.381 248.38 392.681 247.66 390.361 247.66C388.041 247.66 386.021 248.44 384.301 250C382.581 251.52 381.721 253.76 381.721 256.72ZM442.541 274H435.821V229.48H442.541V274ZM481.986 260.98H456.966C457.126 263.3 458.186 265.18 460.146 266.62C462.106 268.02 464.346 268.72 466.866 268.72C470.866 268.72 473.906 267.46 475.986 264.94L479.826 269.14C476.386 272.7 471.906 274.48 466.386 274.48C461.906 274.48 458.086 273 454.926 270.04C451.806 267.04 450.246 263.04 450.246 258.04C450.246 253 451.846 249 455.046 246.04C458.246 243.08 462.006 241.6 466.326 241.6C470.686 241.6 474.386 242.92 477.426 245.56C480.466 248.16 481.986 251.76 481.986 256.36V260.98ZM456.966 255.7H475.266C475.266 253.02 474.426 250.96 472.746 249.52C471.066 248.08 468.986 247.36 466.506 247.36C464.066 247.36 461.866 248.12 459.906 249.64C457.946 251.12 456.966 253.14 456.966 255.7ZM506.116 248.38C502.796 248.38 500.296 249.46 498.616 251.62C496.936 253.78 496.096 256.68 496.096 260.32V274H489.376V242.08H496.096V248.5C497.176 246.5 498.636 244.86 500.476 243.58C502.356 242.3 504.336 241.64 506.416 241.6L506.476 248.38C506.356 248.38 506.236 248.38 506.116 248.38ZM519.943 274H513.223V242.08H519.943V274ZM513.643 235.72C512.803 234.88 512.383 233.88 512.383 232.72C512.383 231.56 512.803 230.56 513.643 229.72C514.483 228.88 515.483 228.46 516.643 228.46C517.803 228.46 518.803 228.88 519.643 229.72C520.483 230.56 520.903 231.56 520.903 232.72C520.903 233.88 520.483 234.88 519.643 235.72C518.803 236.56 517.803 236.98 516.643 236.98C515.483 236.98 514.483 236.56 513.643 235.72ZM536.408 256.72V274H529.688V242.08H536.408V247.9C537.488 245.94 538.968 244.4 540.848 243.28C542.768 242.16 544.828 241.6 547.028 241.6C550.628 241.6 553.528 242.7 555.728 244.9C557.968 247.1 559.088 250.28 559.088 254.44V274H552.368V256.48C552.368 250.6 549.928 247.66 545.048 247.66C542.728 247.66 540.708 248.44 538.988 250C537.268 251.52 536.408 253.76 536.408 256.72ZM575.197 274H568.477V242.08H575.197V274ZM568.897 235.72C568.057 234.88 567.637 233.88 567.637 232.72C567.637 231.56 568.057 230.56 568.897 229.72C569.737 228.88 570.737 228.46 571.897 228.46C573.057 228.46 574.057 228.88 574.897 229.72C575.737 230.56 576.157 231.56 576.157 232.72C576.157 233.88 575.737 234.88 574.897 235.72C574.057 236.56 573.057 236.98 571.897 236.98C570.737 236.98 569.737 236.56 568.897 235.72ZM618.507 241.6C622.787 241.6 626.447 243.08 629.487 246.04C632.527 249 634.047 252.94 634.047 257.86C634.047 262.78 632.527 266.78 629.487 269.86C626.487 272.94 622.967 274.48 618.927 274.48C614.927 274.48 611.327 272.72 608.127 269.2V274H601.407V229.48H608.127V247.66C610.767 243.62 614.227 241.6 618.507 241.6ZM608.007 258.1C608.007 261.14 608.927 263.64 610.767 265.6C612.607 267.52 614.847 268.48 617.487 268.48C620.127 268.48 622.427 267.52 624.387 265.6C626.347 263.68 627.327 261.2 627.327 258.16C627.327 255.08 626.367 252.54 624.447 250.54C622.527 248.5 620.227 247.48 617.547 247.48C614.867 247.48 612.607 248.5 610.767 250.54C608.927 252.54 608.007 255.06 608.007 258.1ZM671.419 260.98H646.399C646.559 263.3 647.619 265.18 649.579 266.62C651.539 268.02 653.779 268.72 656.299 268.72C660.299 268.72 663.339 267.46 665.419 264.94L669.259 269.14C665.819 272.7 661.339 274.48 655.819 274.48C651.339 274.48 647.519 273 644.359 270.04C641.239 267.04 639.679 263.04 639.679 258.04C639.679 253 641.279 249 644.479 246.04C647.679 243.08 651.439 241.6 655.759 241.6C660.119 241.6 663.819 242.92 666.859 245.56C669.899 248.16 671.419 251.76 671.419 256.36V260.98ZM646.399 255.7H664.699C664.699 253.02 663.859 250.96 662.179 249.52C660.499 248.08 658.419 247.36 655.939 247.36C653.499 247.36 651.299 248.12 649.339 249.64C647.379 251.12 646.399 253.14 646.399 255.7ZM685.529 274H678.809V229.48H685.529V274ZM701.994 274H695.274V242.08H701.994V274ZM695.694 235.72C694.854 234.88 694.434 233.88 694.434 232.72C694.434 231.56 694.854 230.56 695.694 229.72C696.534 228.88 697.534 228.46 698.694 228.46C699.854 228.46 700.854 228.88 701.694 229.72C702.534 230.56 702.954 231.56 702.954 232.72C702.954 233.88 702.534 234.88 701.694 235.72C700.854 236.56 699.854 236.98 698.694 236.98C697.534 236.98 696.534 236.56 695.694 235.72ZM728.479 248.38C725.159 248.38 722.659 249.46 720.979 251.62C719.299 253.78 718.459 256.68 718.459 260.32V274H711.739V242.08H718.459V248.5C719.539 246.5 720.999 244.86 722.839 243.58C724.719 242.3 726.699 241.64 728.779 241.6L728.839 248.38C728.719 248.38 728.599 248.38 728.479 248.38ZM742.307 274H735.587V229.48H742.307V274ZM781.751 260.98H756.731C756.891 263.3 757.951 265.18 759.911 266.62C761.871 268.02 764.111 268.72 766.631 268.72C770.631 268.72 773.671 267.46 775.751 264.94L779.591 269.14C776.151 272.7 771.671 274.48 766.151 274.48C761.671 274.48 757.851 273 754.691 270.04C751.571 267.04 750.011 263.04 750.011 258.04C750.011 253 751.611 249 754.811 246.04C758.011 243.08 761.771 241.6 766.091 241.6C770.451 241.6 774.151 242.92 777.191 245.56C780.231 248.16 781.751 251.76 781.751 256.36V260.98ZM756.731 255.7H775.031C775.031 253.02 774.191 250.96 772.511 249.52C770.831 248.08 768.751 247.36 766.271 247.36C763.831 247.36 761.631 248.12 759.671 249.64C757.711 251.12 756.731 253.14 756.731 255.7ZM792.81 286.72C789.89 286.72 787.25 285.66 784.89 283.54L787.95 278.08C789.35 279.4 790.79 280.06 792.27 280.06C793.79 280.06 795.01 279.52 795.93 278.44C796.89 277.36 797.37 276.18 797.37 274.9C797.37 274.34 793.07 263.4 784.47 242.08H791.67L801.21 265.6L810.75 242.08H817.95L802.47 280C801.55 282.08 800.23 283.72 798.51 284.92C796.79 286.12 794.89 286.72 792.81 286.72ZM829.963 274H823.243V242.08H829.963V274ZM823.663 235.72C822.823 234.88 822.403 233.88 822.403 232.72C822.403 231.56 822.823 230.56 823.663 229.72C824.503 228.88 825.503 228.46 826.663 228.46C827.823 228.46 828.823 228.88 829.663 229.72C830.503 230.56 830.923 231.56 830.923 232.72C830.923 233.88 830.503 234.88 829.663 235.72C828.823 236.56 827.823 236.98 826.663 236.98C825.503 236.98 824.503 236.56 823.663 235.72ZM856.808 241.6C861.088 241.6 864.748 243.08 867.788 246.04C870.828 249 872.348 252.94 872.348 257.86C872.348 262.78 870.828 266.78 867.788 269.86C864.788 272.94 861.268 274.48 857.228 274.48C853.228 274.48 849.628 272.72 846.428 269.2V285.64H839.708V242.08H846.428V247.66C849.068 243.62 852.528 241.6 856.808 241.6ZM846.308 258.1C846.308 261.14 847.228 263.64 849.068 265.6C850.908 267.52 853.148 268.48 855.788 268.48C858.428 268.48 860.728 267.52 862.688 265.6C864.648 263.68 865.628 261.2 865.628 258.16C865.628 255.08 864.668 252.54 862.748 250.54C860.828 248.5 858.528 247.48 855.848 247.48C853.168 247.48 850.908 248.5 849.068 250.54C847.228 252.54 846.308 255.06 846.308 258.1ZM879.12 270.1C879.12 268.82 879.56 267.76 880.44 266.92C881.32 266.04 882.36 265.6 883.56 265.6C884.76 265.6 885.8 266.04 886.68 266.92C887.6 267.76 888.06 268.78 888.06 269.98C888.06 271.18 887.52 272.64 886.44 274.36L882.84 280.3H879.36L881.58 274.06C879.94 273.3 879.12 271.98 879.12 270.1ZM920.08 256.72V274H913.36V242.08H920.08V247.9C921.04 245.94 922.48 244.4 924.4 243.28C926.36 242.16 928.46 241.6 930.7 241.6C935.74 241.6 939.16 243.68 940.96 247.84C944.12 243.68 948.06 241.6 952.78 241.6C956.38 241.6 959.28 242.7 961.48 244.9C963.72 247.1 964.84 250.28 964.84 254.44V274H958.12V256.48C958.12 250.6 955.68 247.66 950.8 247.66C948.52 247.66 946.52 248.4 944.8 249.88C943.12 251.32 942.24 253.44 942.16 256.24V274H935.44V256.48C935.44 253.44 934.9 251.22 933.82 249.82C932.74 248.38 931.04 247.66 928.72 247.66C926.4 247.66 924.38 248.44 922.66 250C920.94 251.52 920.08 253.76 920.08 256.72ZM1000.04 274H993.92V269.74C991.28 272.9 987.74 274.48 983.3 274.48C979.98 274.48 977.22 273.54 975.02 271.66C972.86 269.78 971.78 267.28 971.78 264.16C971.78 261 972.94 258.64 975.26 257.08C977.58 255.52 980.72 254.74 984.68 254.74H993.38V253.54C993.38 249.3 991.02 247.18 986.3 247.18C983.34 247.18 980.26 248.26 977.06 250.42L974.06 246.22C977.94 243.14 982.34 241.6 987.26 241.6C991.02 241.6 994.08 242.56 996.44 244.48C998.84 246.36 1000.04 249.34 1000.04 253.42V274ZM993.32 262.12V259.42H985.76C980.92 259.42 978.5 260.94 978.5 263.98C978.5 265.54 979.1 266.74 980.3 267.58C981.5 268.38 983.16 268.78 985.28 268.78C987.44 268.78 989.32 268.18 990.92 266.98C992.52 265.78 993.32 264.16 993.32 262.12ZM1026.14 248.38C1022.82 248.38 1020.32 249.46 1018.64 251.62C1016.96 253.78 1016.12 256.68 1016.12 260.32V274H1009.4V242.08H1016.12V248.5C1017.2 246.5 1018.66 244.86 1020.5 243.58C1022.38 242.3 1024.36 241.64 1026.44 241.6L1026.5 248.38C1026.38 248.38 1026.26 248.38 1026.14 248.38ZM1039.96 274H1033.24V229.48H1039.96V255.64L1052.92 242.08H1061.56L1049.44 254.74L1062.46 274H1054.3L1044.82 260.02L1039.96 264.94V274ZM1093.44 274H1087.32V269.74C1084.68 272.9 1081.14 274.48 1076.7 274.48C1073.38 274.48 1070.62 273.54 1068.42 271.66C1066.26 269.78 1065.18 267.28 1065.18 264.16C1065.18 261 1066.34 258.64 1068.66 257.08C1070.98 255.52 1074.12 254.74 1078.08 254.74H1086.78V253.54C1086.78 249.3 1084.42 247.18 1079.7 247.18C1076.74 247.18 1073.66 248.26 1070.46 250.42L1067.46 246.22C1071.34 243.14 1075.74 241.6 1080.66 241.6C1084.42 241.6 1087.48 242.56 1089.84 244.48C1092.24 246.36 1093.44 249.34 1093.44 253.42V274ZM1086.72 262.12V259.42H1079.16C1074.32 259.42 1071.9 260.94 1071.9 263.98C1071.9 265.54 1072.5 266.74 1073.7 267.58C1074.9 268.38 1076.56 268.78 1078.68 268.78C1080.84 268.78 1082.72 268.18 1084.32 266.98C1085.92 265.78 1086.72 264.16 1086.72 262.12ZM1109.51 274H1102.79V229.48H1109.51V274ZM1145.12 274H1139V269.74C1136.36 272.9 1132.82 274.48 1128.38 274.48C1125.06 274.48 1122.3 273.54 1120.1 271.66C1117.94 269.78 1116.86 267.28 1116.86 264.16C1116.86 261 1118.02 258.64 1120.34 257.08C1122.66 255.52 1125.8 254.74 1129.76 254.74H1138.46V253.54C1138.46 249.3 1136.1 247.18 1131.38 247.18C1128.42 247.18 1125.34 248.26 1122.14 250.42L1119.14 246.22C1123.02 243.14 1127.42 241.6 1132.34 241.6C1136.1 241.6 1139.16 242.56 1141.52 244.48C1143.92 246.36 1145.12 249.34 1145.12 253.42V274ZM1138.4 262.12V259.42H1130.84C1126 259.42 1123.58 260.94 1123.58 263.98C1123.58 265.54 1124.18 266.74 1125.38 267.58C1126.58 268.38 1128.24 268.78 1130.36 268.78C1132.52 268.78 1134.4 268.18 1136 266.98C1137.6 265.78 1138.4 264.16 1138.4 262.12ZM1171.21 248.38C1167.89 248.38 1165.39 249.46 1163.71 251.62C1162.03 253.78 1161.19 256.68 1161.19 260.32V274H1154.47V242.08H1161.19V248.5C1162.27 246.5 1163.73 244.86 1165.57 243.58C1167.45 242.3 1169.43 241.64 1171.51 241.6L1171.57 248.38C1171.45 248.38 1171.33 248.38 1171.21 248.38ZM1178.32 242.08H1185.04V274H1178.32V242.08ZM1201.51 256.72V274H1194.79V242.08H1201.51V247.9C1202.59 245.94 1204.07 244.4 1205.95 243.28C1207.87 242.16 1209.93 241.6 1212.13 241.6C1215.73 241.6 1218.63 242.7 1220.83 244.9C1223.07 247.1 1224.19 250.28 1224.19 254.44V274H1217.47V256.48C1217.47 250.6 1215.03 247.66 1210.15 247.66C1207.83 247.66 1205.81 248.44 1204.09 250C1202.37 251.52 1201.51 253.76 1201.51 256.72ZM1269.72 281.02C1269.72 282.54 1269.1 283.86 1267.86 284.98C1266.62 286.14 1265.04 286.72 1263.12 286.72C1261.24 286.72 1259.58 286.28 1258.14 285.4L1259.7 281.98C1260.46 282.38 1261.22 282.58 1261.98 282.58C1262.78 282.58 1263.4 282.34 1263.84 281.86C1264.28 281.42 1264.5 280.88 1264.5 280.24C1264.5 279.6 1264.26 279.02 1263.78 278.5C1263.34 278.02 1262.76 277.78 1262.04 277.78C1261.36 277.78 1260.78 277.88 1260.3 278.08L1262.28 274.36C1258.24 273.88 1254.84 272.18 1252.08 269.26C1249.36 266.3 1248 262.48 1248 257.8C1248 253.12 1249.66 249.26 1252.98 246.22C1256.34 243.14 1260.42 241.6 1265.22 241.6C1270.02 241.6 1274.08 243.26 1277.4 246.58L1273.44 251.44C1270.68 249.04 1267.9 247.84 1265.1 247.84C1262.3 247.84 1259.86 248.78 1257.78 250.66C1255.74 252.5 1254.72 254.9 1254.72 257.86C1254.72 260.78 1255.72 263.26 1257.72 265.3C1259.76 267.34 1262.28 268.36 1265.28 268.36C1268.28 268.36 1271.1 267 1273.74 264.28L1277.7 268.6C1274.42 271.88 1270.7 273.78 1266.54 274.3L1265.52 276.28C1268.32 276.64 1269.72 278.22 1269.72 281.02ZM1291.39 274H1284.67V242.08H1291.39V274ZM1285.09 235.72C1284.25 234.88 1283.83 233.88 1283.83 232.72C1283.83 231.56 1284.25 230.56 1285.09 229.72C1285.93 228.88 1286.93 228.46 1288.09 228.46C1289.25 228.46 1290.25 228.88 1291.09 229.72C1291.93 230.56 1292.35 231.56 1292.35 232.72C1292.35 233.88 1291.93 234.88 1291.09 235.72C1290.25 236.56 1289.25 236.98 1288.09 236.98C1286.93 236.98 1285.93 236.56 1285.09 235.72ZM1300.11 247.96V242.2H1325.07V248.26L1307.13 268.18H1326.03V274H1298.91V267.46L1316.37 247.96H1300.11ZM1363.11 242.08V269.92C1363.11 275.56 1361.57 279.78 1358.49 282.58C1355.45 285.42 1351.53 286.84 1346.73 286.84C1341.93 286.84 1337.59 285.34 1333.71 282.34L1336.89 277.24C1340.01 279.6 1343.15 280.78 1346.31 280.78C1349.51 280.78 1352.03 279.96 1353.87 278.32C1355.75 276.68 1356.69 274.06 1356.69 270.46V266.38C1355.69 268.26 1354.25 269.76 1352.37 270.88C1350.53 272 1348.45 272.56 1346.13 272.56C1341.89 272.56 1338.41 271.08 1335.69 268.12C1332.97 265.16 1331.61 261.48 1331.61 257.08C1331.61 252.68 1332.97 249 1335.69 246.04C1338.41 243.08 1341.87 241.6 1346.07 241.6C1350.31 241.6 1353.75 243.34 1356.39 246.82V242.08H1363.11ZM1338.21 256.84C1338.21 259.44 1339.01 261.7 1340.61 263.62C1342.25 265.5 1344.43 266.44 1347.15 266.44C1349.91 266.44 1352.13 265.52 1353.81 263.68C1355.53 261.84 1356.39 259.56 1356.39 256.84C1356.39 254.08 1355.53 251.76 1353.81 249.88C1352.09 247.96 1349.87 247 1347.15 247C1344.43 247 1342.25 247.98 1340.61 249.94C1339.01 251.9 1338.21 254.2 1338.21 256.84ZM1379.57 274H1372.85V242.08H1379.57V274ZM1373.27 235.72C1372.43 234.88 1372.01 233.88 1372.01 232.72C1372.01 231.56 1372.43 230.56 1373.27 229.72C1374.11 228.88 1375.11 228.46 1376.27 228.46C1377.43 228.46 1378.43 228.88 1379.27 229.72C1380.11 230.56 1380.53 231.56 1380.53 232.72C1380.53 233.88 1380.11 234.88 1379.27 235.72C1378.43 236.56 1377.43 236.98 1376.27 236.98C1375.11 236.98 1374.11 236.56 1373.27 235.72ZM1412.06 264.46C1412.06 267.5 1410.96 269.94 1408.76 271.78C1406.56 273.58 1403.74 274.48 1400.3 274.48C1397.98 274.48 1395.56 274.06 1393.04 273.22C1390.56 272.38 1388.36 271.2 1386.44 269.68L1389.68 264.46C1393.4 267.26 1397 268.66 1400.48 268.66C1402 268.66 1403.2 268.32 1404.08 267.64C1404.96 266.92 1405.4 266.02 1405.4 264.94C1405.4 263.34 1403.28 261.9 1399.04 260.62C1398.72 260.5 1398.48 260.42 1398.32 260.38C1391.68 258.58 1388.36 255.58 1388.36 251.38C1388.36 248.42 1389.5 246.06 1391.78 244.3C1394.1 242.5 1397.1 241.6 1400.78 241.6C1404.46 241.6 1407.94 242.68 1411.22 244.84L1408.7 249.82C1406.1 248.1 1403.28 247.24 1400.24 247.24C1398.64 247.24 1397.34 247.54 1396.34 248.14C1395.34 248.7 1394.84 249.56 1394.84 250.72C1394.84 251.76 1395.36 252.52 1396.4 253C1397.12 253.36 1398.12 253.7 1399.4 254.02C1400.72 254.34 1401.88 254.66 1402.88 254.98C1403.88 255.3 1404.84 255.66 1405.76 256.06C1406.72 256.46 1407.74 257.02 1408.82 257.74C1410.98 259.18 1412.06 261.42 1412.06 264.46ZM1426.39 274H1419.67V242.08H1426.39V274ZM1420.09 235.72C1419.25 234.88 1418.83 233.88 1418.83 232.72C1418.83 231.56 1419.25 230.56 1420.09 229.72C1420.93 228.88 1421.93 228.46 1423.09 228.46C1424.25 228.46 1425.25 228.88 1426.09 229.72C1426.93 230.56 1427.35 231.56 1427.35 232.72C1427.35 233.88 1426.93 234.88 1426.09 235.72C1425.25 236.56 1424.25 236.98 1423.09 236.98C1421.93 236.98 1420.93 236.56 1420.09 235.72ZM1442.85 256.72V274H1436.13V242.08H1442.85V247.9C1443.93 245.94 1445.41 244.4 1447.29 243.28C1449.21 242.16 1451.27 241.6 1453.47 241.6C1457.07 241.6 1459.97 242.7 1462.17 244.9C1464.41 247.1 1465.53 250.28 1465.53 254.44V274H1458.81V256.48C1458.81 250.6 1456.37 247.66 1451.49 247.66C1449.17 247.66 1447.15 248.44 1445.43 250C1443.71 251.52 1442.85 253.76 1442.85 256.72ZM1504.62 260.98H1479.6C1479.76 263.3 1480.82 265.18 1482.78 266.62C1484.74 268.02 1486.98 268.72 1489.5 268.72C1493.5 268.72 1496.54 267.46 1498.62 264.94L1502.46 269.14C1499.02 272.7 1494.54 274.48 1489.02 274.48C1484.54 274.48 1480.72 273 1477.56 270.04C1474.44 267.04 1472.88 263.04 1472.88 258.04C1472.88 253 1474.48 249 1477.68 246.04C1480.88 243.08 1484.64 241.6 1488.96 241.6C1493.32 241.6 1497.02 242.92 1500.06 245.56C1503.1 248.16 1504.62 251.76 1504.62 256.36V260.98ZM1479.6 255.7H1497.9C1497.9 253.02 1497.06 250.96 1495.38 249.52C1493.7 248.08 1491.62 247.36 1489.14 247.36C1486.7 247.36 1484.5 248.12 1482.54 249.64C1480.58 251.12 1479.6 253.14 1479.6 255.7ZM1550.8 259.36V242.08H1557.52V274H1550.8V268.18C1549.72 270.14 1548.22 271.68 1546.3 272.8C1544.42 273.92 1542.38 274.48 1540.18 274.48C1536.58 274.48 1533.66 273.38 1531.42 271.18C1529.22 268.98 1528.12 265.8 1528.12 261.64V242.08H1534.84V259.6C1534.84 265.48 1537.28 268.42 1542.16 268.42C1544.48 268.42 1546.5 267.66 1548.22 266.14C1549.94 264.58 1550.8 262.32 1550.8 259.36ZM1571.29 286.72C1568.37 286.72 1565.73 285.66 1563.37 283.54L1566.43 278.08C1567.83 279.4 1569.27 280.06 1570.75 280.06C1572.27 280.06 1573.49 279.52 1574.41 278.44C1575.37 277.36 1575.85 276.18 1575.85 274.9C1575.85 274.34 1571.55 263.4 1562.95 242.08H1570.15L1579.69 265.6L1589.23 242.08H1596.43L1580.95 280C1580.03 282.08 1578.71 283.72 1576.99 284.92C1575.27 286.12 1573.37 286.72 1571.29 286.72ZM1631.24 242.08V269.92C1631.24 275.56 1629.7 279.78 1626.62 282.58C1623.58 285.42 1619.66 286.84 1614.86 286.84C1610.06 286.84 1605.72 285.34 1601.84 282.34L1605.02 277.24C1608.14 279.6 1611.28 280.78 1614.44 280.78C1617.64 280.78 1620.16 279.96 1622 278.32C1623.88 276.68 1624.82 274.06 1624.82 270.46V266.38C1623.82 268.26 1622.38 269.76 1620.5 270.88C1618.66 272 1616.58 272.56 1614.26 272.56C1610.02 272.56 1606.54 271.08 1603.82 268.12C1601.1 265.16 1599.74 261.48 1599.74 257.08C1599.74 252.68 1601.1 249 1603.82 246.04C1606.54 243.08 1610 241.6 1614.2 241.6C1618.44 241.6 1621.88 243.34 1624.52 246.82V242.08H1631.24ZM1606.34 256.84C1606.34 259.44 1607.14 261.7 1608.74 263.62C1610.38 265.5 1612.56 266.44 1615.28 266.44C1618.04 266.44 1620.26 265.52 1621.94 263.68C1623.66 261.84 1624.52 259.56 1624.52 256.84C1624.52 254.08 1623.66 251.76 1621.94 249.88C1620.22 247.96 1618 247 1615.28 247C1612.56 247 1610.38 247.98 1608.74 249.94C1607.14 251.9 1606.34 254.2 1606.34 256.84ZM1663.3 259.36V242.08H1670.02V274H1663.3V268.18C1662.22 270.14 1660.72 271.68 1658.8 272.8C1656.92 273.92 1654.88 274.48 1652.68 274.48C1649.08 274.48 1646.16 273.38 1643.92 271.18C1641.72 268.98 1640.62 265.8 1640.62 261.64V242.08H1647.34V259.6C1647.34 265.48 1649.78 268.42 1654.66 268.42C1656.98 268.42 1659 267.66 1660.72 266.14C1662.44 264.58 1663.3 262.32 1663.3 259.36ZM1686.49 256.72V274H1679.77V242.08H1686.49V247.9C1687.57 245.94 1689.05 244.4 1690.93 243.28C1692.85 242.16 1694.91 241.6 1697.11 241.6C1700.71 241.6 1703.61 242.7 1705.81 244.9C1708.05 247.1 1709.17 250.28 1709.17 254.44V274H1702.45V256.48C1702.45 250.6 1700.01 247.66 1695.13 247.66C1692.81 247.66 1690.79 248.44 1689.07 250C1687.35 251.52 1686.49 253.76 1686.49 256.72ZM207.58 329.72V347H200.86V302.54H207.58V320.9C208.54 318.94 209.98 317.4 211.9 316.28C213.86 315.16 215.96 314.6 218.2 314.6C221.8 314.6 224.7 315.7 226.9 317.9C229.14 320.1 230.26 323.28 230.26 327.44V347H223.54V329.48C223.54 323.6 221.1 320.66 216.22 320.66C213.9 320.66 211.88 321.44 210.16 323C208.44 324.52 207.58 326.76 207.58 329.72ZM265.509 347H259.389V342.74C256.749 345.9 253.209 347.48 248.769 347.48C245.449 347.48 242.689 346.54 240.489 344.66C238.329 342.78 237.249 340.28 237.249 337.16C237.249 334 238.409 331.64 240.729 330.08C243.049 328.52 246.189 327.74 250.149 327.74H258.849V326.54C258.849 322.3 256.489 320.18 251.769 320.18C248.809 320.18 245.729 321.26 242.529 323.42L239.529 319.22C243.409 316.14 247.809 314.6 252.729 314.6C256.489 314.6 259.549 315.56 261.909 317.48C264.309 319.36 265.509 322.34 265.509 326.42V347ZM258.789 335.12V332.42H251.229C246.389 332.42 243.969 333.94 243.969 336.98C243.969 338.54 244.569 339.74 245.769 340.58C246.969 341.38 248.629 341.78 250.749 341.78C252.909 341.78 254.789 341.18 256.389 339.98C257.989 338.78 258.789 337.16 258.789 335.12ZM278.532 359.72C275.612 359.72 272.972 358.66 270.612 356.54L273.672 351.08C275.072 352.4 276.512 353.06 277.992 353.06C279.512 353.06 280.732 352.52 281.652 351.44C282.612 350.36 283.092 349.18 283.092 347.9C283.092 347.34 278.792 336.4 270.192 315.08H277.392L286.932 338.6L296.472 315.08H303.672L288.192 353C287.272 355.08 285.952 356.72 284.232 357.92C282.512 359.12 280.612 359.72 278.532 359.72ZM334.415 347H328.295V342.74C325.655 345.9 322.115 347.48 317.675 347.48C314.355 347.48 311.595 346.54 309.395 344.66C307.235 342.78 306.155 340.28 306.155 337.16C306.155 334 307.315 331.64 309.635 330.08C311.955 328.52 315.095 327.74 319.055 327.74H327.755V326.54C327.755 322.3 325.395 320.18 320.675 320.18C317.715 320.18 314.635 321.26 311.435 323.42L308.435 319.22C312.315 316.14 316.715 314.6 321.635 314.6C325.395 314.6 328.455 315.56 330.815 317.48C333.215 319.36 334.415 322.34 334.415 326.42V347ZM327.695 335.12V332.42H320.135C315.295 332.42 312.875 333.94 312.875 336.98C312.875 338.54 313.475 339.74 314.675 340.58C315.875 341.38 317.535 341.78 319.655 341.78C321.815 341.78 323.695 341.18 325.295 339.98C326.895 338.78 327.695 337.16 327.695 335.12ZM351.699 320.48V336.68C351.699 338.2 352.099 339.42 352.899 340.34C353.699 341.22 354.819 341.66 356.259 341.66C357.699 341.66 359.079 340.96 360.399 339.56L363.159 344.3C360.799 346.42 358.179 347.48 355.299 347.48C352.459 347.48 350.019 346.5 347.979 344.54C345.979 342.54 344.979 339.86 344.979 336.5V320.48H340.959V315.08H344.979V305.06H351.699V315.08H360.099V320.48H351.699ZM391.682 347H384.962V302.48H391.682V328.64L404.642 315.08H413.282L401.162 327.74L414.182 347H406.022L396.542 333.02L391.682 337.94V347ZM445.158 347H439.038V342.74C436.398 345.9 432.858 347.48 428.418 347.48C425.098 347.48 422.338 346.54 420.138 344.66C417.978 342.78 416.898 340.28 416.898 337.16C416.898 334 418.058 331.64 420.378 330.08C422.698 328.52 425.838 327.74 429.798 327.74H438.498V326.54C438.498 322.3 436.138 320.18 431.418 320.18C428.458 320.18 425.378 321.26 422.178 323.42L419.178 319.22C423.058 316.14 427.458 314.6 432.378 314.6C436.138 314.6 439.198 315.56 441.558 317.48C443.958 319.36 445.158 322.34 445.158 326.42V347ZM438.438 335.12V332.42H430.878C426.038 332.42 423.618 333.94 423.618 336.98C423.618 338.54 424.218 339.74 425.418 340.58C426.618 341.38 428.278 341.78 430.398 341.78C432.558 341.78 434.438 341.18 436.038 339.98C437.638 338.78 438.438 337.16 438.438 335.12ZM462.441 320.48V336.68C462.441 338.2 462.841 339.42 463.641 340.34C464.441 341.22 465.561 341.66 467.001 341.66C468.441 341.66 469.821 340.96 471.141 339.56L473.901 344.3C471.541 346.42 468.921 347.48 466.041 347.48C463.201 347.48 460.761 346.5 458.721 344.54C456.721 342.54 455.721 339.86 455.721 336.5V320.48H451.701V315.08H455.721V305.06H462.441V315.08H470.841V320.48H462.441ZM485.959 329.72V347H479.239V315.08H485.959V320.9C486.919 318.94 488.359 317.4 490.279 316.28C492.239 315.16 494.339 314.6 496.579 314.6C501.619 314.6 505.039 316.68 506.839 320.84C509.999 316.68 513.939 314.6 518.659 314.6C522.259 314.6 525.159 315.7 527.359 317.9C529.599 320.1 530.719 323.28 530.719 327.44V347H523.999V329.48C523.999 323.6 521.559 320.66 516.679 320.66C514.399 320.66 512.399 321.4 510.679 322.88C508.999 324.32 508.119 326.44 508.039 329.24V347H501.319V329.48C501.319 326.44 500.779 324.22 499.699 322.82C498.619 321.38 496.919 320.66 494.599 320.66C492.279 320.66 490.259 321.44 488.539 323C486.819 324.52 485.959 326.76 485.959 329.72ZM565.919 347H559.799V342.74C557.159 345.9 553.619 347.48 549.179 347.48C545.859 347.48 543.099 346.54 540.899 344.66C538.739 342.78 537.659 340.28 537.659 337.16C537.659 334 538.819 331.64 541.139 330.08C543.459 328.52 546.599 327.74 550.559 327.74H559.259V326.54C559.259 322.3 556.899 320.18 552.179 320.18C549.219 320.18 546.139 321.26 542.939 323.42L539.939 319.22C543.819 316.14 548.219 314.6 553.139 314.6C556.899 314.6 559.959 315.56 562.319 317.48C564.719 319.36 565.919 322.34 565.919 326.42V347ZM559.199 335.12V332.42H551.639C546.799 332.42 544.379 333.94 544.379 336.98C544.379 338.54 544.979 339.74 546.179 340.58C547.379 341.38 549.039 341.78 551.159 341.78C553.319 341.78 555.199 341.18 556.799 339.98C558.399 338.78 559.199 337.16 559.199 335.12ZM581.994 347H575.274V302.48H581.994V328.64L594.954 315.08H603.594L591.474 327.74L604.494 347H596.334L586.854 333.02L581.994 337.94V347ZM610.497 346.16C609.657 345.28 609.237 344.22 609.237 342.98C609.237 341.74 609.657 340.7 610.497 339.86C611.377 338.98 612.437 338.54 613.677 338.54C614.917 338.54 615.977 338.98 616.857 339.86C617.737 340.7 618.177 341.74 618.177 342.98C618.177 344.22 617.737 345.28 616.857 346.16C615.977 347.04 614.917 347.48 613.677 347.48C612.437 347.48 611.377 347.04 610.497 346.16ZM651.459 311.66V323.18H670.059V329.72H651.459V347H644.379V305.06H672.339L672.279 311.66H651.459ZM704.142 347H698.022V342.74C695.382 345.9 691.842 347.48 687.402 347.48C684.082 347.48 681.322 346.54 679.122 344.66C676.962 342.78 675.882 340.28 675.882 337.16C675.882 334 677.042 331.64 679.362 330.08C681.682 328.52 684.822 327.74 688.782 327.74H697.482V326.54C697.482 322.3 695.122 320.18 690.402 320.18C687.442 320.18 684.362 321.26 681.162 323.42L678.162 319.22C682.042 316.14 686.442 314.6 691.362 314.6C695.122 314.6 698.182 315.56 700.542 317.48C702.942 319.36 704.142 322.34 704.142 326.42V347ZM697.422 335.12V332.42H689.862C685.022 332.42 682.602 333.94 682.602 336.98C682.602 338.54 683.202 339.74 684.402 340.58C685.602 341.38 687.262 341.78 689.382 341.78C691.542 341.78 693.422 341.18 695.022 339.98C696.622 338.78 697.422 337.16 697.422 335.12ZM730.237 321.38C726.917 321.38 724.417 322.46 722.737 324.62C721.057 326.78 720.217 329.68 720.217 333.32V347H713.497V315.08H720.217V321.5C721.297 319.5 722.757 317.86 724.597 316.58C726.477 315.3 728.457 314.64 730.537 314.6L730.597 321.38C730.477 321.38 730.357 321.38 730.237 321.38ZM744.064 347H737.344V302.48H744.064V328.64L757.024 315.08H765.664L753.544 327.74L766.564 347H758.404L748.924 333.02L744.064 337.94V347ZM792.693 359.72C789.773 359.72 787.133 358.66 784.773 356.54L787.833 351.08C789.233 352.4 790.673 353.06 792.153 353.06C793.673 353.06 794.893 352.52 795.813 351.44C796.773 350.36 797.253 349.18 797.253 347.9C797.253 347.34 792.953 336.4 784.353 315.08H791.553L801.093 338.6L810.633 315.08H817.833L802.353 353C801.433 355.08 800.113 356.72 798.393 357.92C796.673 359.12 794.773 359.72 792.693 359.72ZM848.575 347H842.455V342.74C839.815 345.9 836.275 347.48 831.835 347.48C828.515 347.48 825.755 346.54 823.555 344.66C821.395 342.78 820.315 340.28 820.315 337.16C820.315 334 821.475 331.64 823.795 330.08C826.115 328.52 829.255 327.74 833.215 327.74H841.915V326.54C841.915 322.3 839.555 320.18 834.835 320.18C831.875 320.18 828.795 321.26 825.595 323.42L822.595 319.22C826.475 316.14 830.875 314.6 835.795 314.6C839.555 314.6 842.615 315.56 844.975 317.48C847.375 319.36 848.575 322.34 848.575 326.42V347ZM841.855 335.12V332.42H834.295C829.455 332.42 827.035 333.94 827.035 336.98C827.035 338.54 827.635 339.74 828.835 340.58C830.035 341.38 831.695 341.78 833.815 341.78C835.975 341.78 837.855 341.18 839.455 339.98C841.055 338.78 841.855 337.16 841.855 335.12ZM874.67 321.38C871.35 321.38 868.85 322.46 867.17 324.62C865.49 326.78 864.65 329.68 864.65 333.32V347H857.93V315.08H864.65V321.5C865.73 319.5 867.19 317.86 869.03 316.58C870.91 315.3 872.89 314.64 874.97 314.6L875.03 321.38C874.91 321.38 874.79 321.38 874.67 321.38ZM907.345 347H901.225V342.74C898.585 345.9 895.045 347.48 890.605 347.48C887.285 347.48 884.525 346.54 882.325 344.66C880.165 342.78 879.085 340.28 879.085 337.16C879.085 334 880.245 331.64 882.565 330.08C884.885 328.52 888.025 327.74 891.985 327.74H900.685V326.54C900.685 322.3 898.325 320.18 893.605 320.18C890.645 320.18 887.565 321.26 884.365 323.42L881.365 319.22C885.245 316.14 889.645 314.6 894.565 314.6C898.325 314.6 901.385 315.56 903.745 317.48C906.145 319.36 907.345 322.34 907.345 326.42V347ZM900.625 335.12V332.42H893.065C888.225 332.42 885.805 333.94 885.805 336.98C885.805 338.54 886.405 339.74 887.605 340.58C888.805 341.38 890.465 341.78 892.585 341.78C894.745 341.78 896.625 341.18 898.225 339.98C899.825 338.78 900.625 337.16 900.625 335.12ZM924.628 320.48V336.68C924.628 338.2 925.028 339.42 925.828 340.34C926.628 341.22 927.748 341.66 929.188 341.66C930.628 341.66 932.008 340.96 933.328 339.56L936.088 344.3C933.728 346.42 931.108 347.48 928.228 347.48C925.388 347.48 922.948 346.5 920.908 344.54C918.908 342.54 917.908 339.86 917.908 336.5V320.48H913.888V315.08H917.908V305.06H924.628V315.08H933.028V320.48H924.628ZM941.426 315.08H948.146V347H941.426V315.08ZM974.631 321.38C971.311 321.38 968.811 322.46 967.131 324.62C965.451 326.78 964.611 329.68 964.611 333.32V347H957.891V315.08H964.611V321.5C965.691 319.5 967.151 317.86 968.991 316.58C970.871 315.3 972.851 314.64 974.931 314.6L974.991 321.38C974.871 321.38 974.751 321.38 974.631 321.38ZM980.839 343.1C980.839 341.82 981.279 340.76 982.159 339.92C983.039 339.04 984.079 338.6 985.279 338.6C986.479 338.6 987.519 339.04 988.399 339.92C989.319 340.76 989.779 341.78 989.779 342.98C989.779 344.18 989.239 345.64 988.159 347.36L984.559 353.3H981.079L983.299 347.06C981.659 346.3 980.839 344.98 980.839 343.1ZM1037.82 337.46C1037.82 340.5 1036.72 342.94 1034.52 344.78C1032.32 346.58 1029.5 347.48 1026.06 347.48C1023.74 347.48 1021.32 347.06 1018.8 346.22C1016.32 345.38 1014.12 344.2 1012.2 342.68L1015.44 337.46C1019.16 340.26 1022.76 341.66 1026.24 341.66C1027.76 341.66 1028.96 341.32 1029.84 340.64C1030.72 339.92 1031.16 339.02 1031.16 337.94C1031.16 336.34 1029.04 334.9 1024.8 333.62C1024.48 333.5 1024.24 333.42 1024.08 333.38C1017.44 331.58 1014.12 328.58 1014.12 324.38C1014.12 321.42 1015.26 319.06 1017.54 317.3C1019.86 315.5 1022.86 314.6 1026.54 314.6C1030.22 314.6 1033.7 315.68 1036.98 317.84L1034.46 322.82C1031.86 321.1 1029.04 320.24 1026 320.24C1024.4 320.24 1023.1 320.54 1022.1 321.14C1021.1 321.7 1020.6 322.56 1020.6 323.72C1020.6 324.76 1021.12 325.52 1022.16 326C1022.88 326.36 1023.88 326.7 1025.16 327.02C1026.48 327.34 1027.64 327.66 1028.64 327.98C1029.64 328.3 1030.6 328.66 1031.52 329.06C1032.48 329.46 1033.5 330.02 1034.58 330.74C1036.74 332.18 1037.82 334.42 1037.82 337.46ZM1045.43 315.08H1052.15V347H1045.43V315.08ZM1068.62 329.72V347H1061.9V315.08H1068.62V320.9C1069.7 318.94 1071.18 317.4 1073.06 316.28C1074.98 315.16 1077.04 314.6 1079.24 314.6C1082.84 314.6 1085.74 315.7 1087.94 317.9C1090.18 320.1 1091.3 323.28 1091.3 327.44V347H1084.58V329.48C1084.58 323.6 1082.14 320.66 1077.26 320.66C1074.94 320.66 1072.92 321.44 1071.2 323C1069.48 324.52 1068.62 326.76 1068.62 329.72ZM1100.68 315.08H1107.4V347H1100.68V315.08ZM1133.89 321.38C1130.57 321.38 1128.07 322.46 1126.39 324.62C1124.71 326.78 1123.87 329.68 1123.87 333.32V347H1117.15V315.08H1123.87V321.5C1124.95 319.5 1126.41 317.86 1128.25 316.58C1130.13 315.3 1132.11 314.64 1134.19 314.6L1134.25 321.38C1134.13 321.38 1134.01 321.38 1133.89 321.38ZM1147.72 347H1141V302.48H1147.72V347ZM1183.32 347H1177.2V342.74C1174.56 345.9 1171.02 347.48 1166.58 347.48C1163.26 347.48 1160.5 346.54 1158.3 344.66C1156.14 342.78 1155.06 340.28 1155.06 337.16C1155.06 334 1156.22 331.64 1158.54 330.08C1160.86 328.52 1164 327.74 1167.96 327.74H1176.66V326.54C1176.66 322.3 1174.3 320.18 1169.58 320.18C1166.62 320.18 1163.54 321.26 1160.34 323.42L1157.34 319.22C1161.22 316.14 1165.62 314.6 1170.54 314.6C1174.3 314.6 1177.36 315.56 1179.72 317.48C1182.12 319.36 1183.32 322.34 1183.32 326.42V347ZM1176.6 335.12V332.42H1169.04C1164.2 332.42 1161.78 333.94 1161.78 336.98C1161.78 338.54 1162.38 339.74 1163.58 340.58C1164.78 341.38 1166.44 341.78 1168.56 341.78C1170.72 341.78 1172.6 341.18 1174.2 339.98C1175.8 338.78 1176.6 337.16 1176.6 335.12ZM1209.42 321.38C1206.1 321.38 1203.6 322.46 1201.92 324.62C1200.24 326.78 1199.4 329.68 1199.4 333.32V347H1192.68V315.08H1199.4V321.5C1200.48 319.5 1201.94 317.86 1203.78 316.58C1205.66 315.3 1207.64 314.64 1209.72 314.6L1209.78 321.38C1209.66 321.38 1209.54 321.38 1209.42 321.38ZM1216.52 315.08H1223.24V347H1216.52V315.08ZM1275.31 347H1269.19V342.74C1266.55 345.9 1263.01 347.48 1258.57 347.48C1255.25 347.48 1252.49 346.54 1250.29 344.66C1248.13 342.78 1247.05 340.28 1247.05 337.16C1247.05 334 1248.21 331.64 1250.53 330.08C1252.85 328.52 1255.99 327.74 1259.95 327.74H1268.65V326.54C1268.65 322.3 1266.29 320.18 1261.57 320.18C1258.61 320.18 1255.53 321.26 1252.33 323.42L1249.33 319.22C1253.21 316.14 1257.61 314.6 1262.53 314.6C1266.29 314.6 1269.35 315.56 1271.71 317.48C1274.11 319.36 1275.31 322.34 1275.31 326.42V347ZM1268.59 335.12V332.42H1261.03C1256.19 332.42 1253.77 333.94 1253.77 336.98C1253.77 338.54 1254.37 339.74 1255.57 340.58C1256.77 341.38 1258.43 341.78 1260.55 341.78C1262.71 341.78 1264.59 341.18 1266.19 339.98C1267.79 338.78 1268.59 337.16 1268.59 335.12ZM1305.85 338.12C1305.85 341.24 1304.69 343.6 1302.37 345.2C1300.05 346.8 1296.93 347.6 1293.01 347.6C1290.77 347.6 1288.83 347.42 1287.19 347.06C1285.59 346.7 1284.17 346.2 1282.93 345.56V340.76C1284.21 341.4 1285.75 342 1287.55 342.56C1289.39 343.08 1291.25 343.34 1293.13 343.34C1295.81 343.34 1297.75 342.92 1298.95 342.08C1300.15 341.2 1300.75 340.04 1300.75 338.6C1300.75 337.8 1300.53 337.08 1300.09 336.44C1299.65 335.8 1298.85 335.16 1297.69 334.52C1296.57 333.88 1294.95 333.16 1292.83 332.36C1290.75 331.56 1288.97 330.76 1287.49 329.96C1286.01 329.16 1284.87 328.2 1284.07 327.08C1283.27 325.96 1282.87 324.52 1282.87 322.76C1282.87 320.04 1283.97 317.94 1286.17 316.46C1288.41 314.98 1291.33 314.24 1294.93 314.24C1296.89 314.24 1298.71 314.44 1300.39 314.84C1302.11 315.2 1303.71 315.72 1305.19 316.4L1303.39 320.6C1302.03 320.04 1300.61 319.56 1299.13 319.16C1297.65 318.76 1296.13 318.56 1294.57 318.56C1292.41 318.56 1290.75 318.92 1289.59 319.64C1288.47 320.32 1287.91 321.26 1287.91 322.46C1287.91 323.34 1288.17 324.1 1288.69 324.74C1289.21 325.34 1290.07 325.94 1291.27 326.54C1292.51 327.1 1294.15 327.78 1296.19 328.58C1298.23 329.34 1299.97 330.12 1301.41 330.92C1302.85 331.72 1303.95 332.7 1304.71 333.86C1305.47 334.98 1305.85 336.4 1305.85 338.12ZM1300.27 355.34C1300.27 357.26 1299.53 358.74 1298.05 359.78C1296.57 360.86 1294.35 361.4 1291.39 361.4C1290.11 361.4 1289.11 361.3 1288.39 361.1V357.8C1288.75 357.88 1289.23 357.94 1289.83 357.98C1290.43 358.06 1291.01 358.1 1291.57 358.1C1293.01 358.1 1294.11 357.9 1294.87 357.5C1295.63 357.14 1296.01 356.46 1296.01 355.46C1296.01 354.42 1295.47 353.66 1294.39 353.18C1293.35 352.7 1292.07 352.36 1290.55 352.16L1293.13 347H1296.61L1295.05 350.18C1296.49 350.5 1297.71 351.06 1298.71 351.86C1299.75 352.66 1300.27 353.82 1300.27 355.34ZM1339.24 347H1333.12V342.74C1330.48 345.9 1326.94 347.48 1322.5 347.48C1319.18 347.48 1316.42 346.54 1314.22 344.66C1312.06 342.78 1310.98 340.28 1310.98 337.16C1310.98 334 1312.14 331.64 1314.46 330.08C1316.78 328.52 1319.92 327.74 1323.88 327.74H1332.58V326.54C1332.58 322.3 1330.22 320.18 1325.5 320.18C1322.54 320.18 1319.46 321.26 1316.26 323.42L1313.26 319.22C1317.14 316.14 1321.54 314.6 1326.46 314.6C1330.22 314.6 1333.28 315.56 1335.64 317.48C1338.04 319.36 1339.24 322.34 1339.24 326.42V347ZM1332.52 335.12V332.42H1324.96C1320.12 332.42 1317.7 333.94 1317.7 336.98C1317.7 338.54 1318.3 339.74 1319.5 340.58C1320.7 341.38 1322.36 341.78 1324.48 341.78C1326.64 341.78 1328.52 341.18 1330.12 339.98C1331.72 338.78 1332.52 337.16 1332.52 335.12ZM1365.33 321.38C1362.01 321.38 1359.51 322.46 1357.83 324.62C1356.15 326.78 1355.31 329.68 1355.31 333.32V347H1348.59V315.08H1355.31V321.5C1356.39 319.5 1357.85 317.86 1359.69 316.58C1361.57 315.3 1363.55 314.64 1365.63 314.6L1365.69 321.38C1365.57 321.38 1365.45 321.38 1365.33 321.38ZM1372.44 315.08H1379.16V347H1372.44V315.08ZM1387.89 320.96V315.2H1412.85V321.26L1394.91 341.18H1413.81V347H1386.69V340.46L1404.15 320.96H1387.89ZM1421.73 346.16C1420.89 345.28 1420.47 344.22 1420.47 342.98C1420.47 341.74 1420.89 340.7 1421.73 339.86C1422.61 338.98 1423.67 338.54 1424.91 338.54C1426.15 338.54 1427.21 338.98 1428.09 339.86C1428.97 340.7 1429.41 341.74 1429.41 342.98C1429.41 344.22 1428.97 345.28 1428.09 346.16C1427.21 347.04 1426.15 347.48 1424.91 347.48C1423.67 347.48 1422.61 347.04 1421.73 346.16ZM201.82 378.06H208.9V398.52L228.1 378.06H237.1L220.24 396.42L237.34 420H228.94L215.02 401.64L208.9 408.24V420H201.82V378.06ZM268.439 420H262.319V415.74C259.679 418.9 256.139 420.48 251.699 420.48C248.379 420.48 245.619 419.54 243.419 417.66C241.259 415.78 240.179 413.28 240.179 410.16C240.179 407 241.339 404.64 243.659 403.08C245.979 401.52 249.119 400.74 253.079 400.74H261.779V399.54C261.779 395.3 259.419 393.18 254.699 393.18C251.739 393.18 248.659 394.26 245.459 396.42L242.459 392.22C246.339 389.14 250.739 387.6 255.659 387.6C259.419 387.6 262.479 388.56 264.839 390.48C267.239 392.36 268.439 395.34 268.439 399.42V420ZM261.719 408.12V405.42H254.159C249.319 405.42 246.899 406.94 246.899 409.98C246.899 411.54 247.499 412.74 248.699 413.58C249.899 414.38 251.559 414.78 253.679 414.78C255.839 414.78 257.719 414.18 259.319 412.98C260.919 411.78 261.719 410.16 261.719 408.12ZM284.514 420H277.794V375.48H284.514V420ZM294.258 388.08H300.978V420H294.258V388.08ZM327.823 387.6C332.103 387.6 335.763 389.08 338.803 392.04C341.843 395 343.363 398.94 343.363 403.86C343.363 408.78 341.843 412.78 338.803 415.86C335.803 418.94 332.283 420.48 328.243 420.48C324.243 420.48 320.643 418.72 317.443 415.2V431.64H310.723V388.08H317.443V393.66C320.083 389.62 323.543 387.6 327.823 387.6ZM317.323 404.1C317.323 407.14 318.243 409.64 320.083 411.6C321.923 413.52 324.163 414.48 326.803 414.48C329.443 414.48 331.743 413.52 333.703 411.6C335.663 409.68 336.643 407.2 336.643 404.16C336.643 401.08 335.683 398.54 333.763 396.54C331.843 394.5 329.543 393.48 326.863 393.48C324.183 393.48 321.923 394.5 320.083 396.54C318.243 398.54 317.323 401.06 317.323 404.1ZM357.756 420H351.036V375.48H357.756V420ZM393.361 420H387.241V415.74C384.601 418.9 381.061 420.48 376.621 420.48C373.301 420.48 370.541 419.54 368.341 417.66C366.181 415.78 365.101 413.28 365.101 410.16C365.101 407 366.261 404.64 368.581 403.08C370.901 401.52 374.041 400.74 378.001 400.74H386.701V399.54C386.701 395.3 384.341 393.18 379.621 393.18C376.661 393.18 373.581 394.26 370.381 396.42L367.381 392.22C371.261 389.14 375.661 387.6 380.581 387.6C384.341 387.6 387.401 388.56 389.761 390.48C392.161 392.36 393.361 395.34 393.361 399.42V420ZM386.641 408.12V405.42H379.081C374.241 405.42 371.821 406.94 371.821 409.98C371.821 411.54 372.421 412.74 373.621 413.58C374.821 414.38 376.481 414.78 378.601 414.78C380.761 414.78 382.641 414.18 384.241 412.98C385.841 411.78 386.641 410.16 386.641 408.12ZM419.455 394.38C416.135 394.38 413.635 395.46 411.955 397.62C410.275 399.78 409.435 402.68 409.435 406.32V420H402.715V388.08H409.435V394.5C410.515 392.5 411.975 390.86 413.815 389.58C415.695 388.3 417.675 387.64 419.755 387.6L419.815 394.38C419.695 394.38 419.575 394.38 419.455 394.38ZM426.563 388.08H433.283V420H426.563V388.08ZM449.748 402.72V420H443.028V388.08H449.748V393.9C450.828 391.94 452.308 390.4 454.188 389.28C456.108 388.16 458.168 387.6 460.368 387.6C463.968 387.6 466.868 388.7 469.068 390.9C471.308 393.1 472.428 396.28 472.428 400.44V420H465.708V402.48C465.708 396.6 463.268 393.66 458.388 393.66C456.068 393.66 454.048 394.44 452.328 396C450.608 397.52 449.748 399.76 449.748 402.72ZM511.302 420.48C507.262 420.48 503.742 418.96 500.742 415.92C497.742 412.88 496.242 408.88 496.242 403.92C496.242 398.96 497.782 395 500.862 392.04C503.942 389.08 507.602 387.6 511.842 387.6C516.122 387.6 519.562 389.4 522.162 393V375.48H528.882V420H522.162V415.2C519.682 418.72 516.062 420.48 511.302 420.48ZM502.962 404.22C502.962 407.26 503.942 409.74 505.902 411.66C507.862 413.58 510.162 414.54 512.802 414.54C515.442 414.54 517.682 413.58 519.522 411.66C521.362 409.7 522.282 407.2 522.282 404.16C522.282 401.12 521.362 398.58 519.522 396.54C517.682 394.5 515.422 393.48 512.742 393.48C510.062 393.48 507.762 394.5 505.842 396.54C503.922 398.58 502.962 401.14 502.962 404.22ZM538.594 388.08H545.314V420H538.594V388.08ZM576.239 411.12C576.239 414.24 575.079 416.6 572.759 418.2C570.439 419.8 567.319 420.6 563.399 420.6C561.159 420.6 559.219 420.42 557.579 420.06C555.979 419.7 554.559 419.2 553.319 418.56V413.76C554.599 414.4 556.139 415 557.939 415.56C559.779 416.08 561.639 416.34 563.519 416.34C566.199 416.34 568.139 415.92 569.339 415.08C570.539 414.2 571.139 413.04 571.139 411.6C571.139 410.8 570.919 410.08 570.479 409.44C570.039 408.8 569.239 408.16 568.079 407.52C566.959 406.88 565.339 406.16 563.219 405.36C561.139 404.56 559.359 403.76 557.879 402.96C556.399 402.16 555.259 401.2 554.459 400.08C553.659 398.96 553.259 397.52 553.259 395.76C553.259 393.04 554.359 390.94 556.559 389.46C558.799 387.98 561.719 387.24 565.319 387.24C567.279 387.24 569.099 387.44 570.779 387.84C572.499 388.2 574.099 388.72 575.579 389.4L573.779 393.6C572.419 393.04 570.999 392.56 569.519 392.16C568.039 391.76 566.519 391.56 564.959 391.56C562.799 391.56 561.139 391.92 559.979 392.64C558.859 393.32 558.299 394.26 558.299 395.46C558.299 396.34 558.559 397.1 559.079 397.74C559.599 398.34 560.459 398.94 561.659 399.54C562.899 400.1 564.539 400.78 566.579 401.58C568.619 402.34 570.359 403.12 571.799 403.92C573.239 404.72 574.339 405.7 575.099 406.86C575.859 407.98 576.239 409.4 576.239 411.12ZM570.659 428.34C570.659 430.26 569.919 431.74 568.439 432.78C566.959 433.86 564.739 434.4 561.779 434.4C560.499 434.4 559.499 434.3 558.779 434.1V430.8C559.139 430.88 559.619 430.94 560.219 430.98C560.819 431.06 561.399 431.1 561.959 431.1C563.399 431.1 564.499 430.9 565.259 430.5C566.019 430.14 566.399 429.46 566.399 428.46C566.399 427.42 565.859 426.66 564.779 426.18C563.739 425.7 562.459 425.36 560.939 425.16L563.519 420H566.999L565.439 423.18C566.879 423.5 568.099 424.06 569.099 424.86C570.139 425.66 570.659 426.82 570.659 428.34ZM583.77 388.08H590.49V420H583.77V388.08ZM606.955 402.72V420H600.235V388.08H606.955V393.9C608.035 391.94 609.515 390.4 611.395 389.28C613.315 388.16 615.375 387.6 617.575 387.6C621.175 387.6 624.075 388.7 626.275 390.9C628.515 393.1 629.635 396.28 629.635 400.44V420H622.915V402.48C622.915 396.6 620.475 393.66 615.595 393.66C613.275 393.66 611.255 394.44 609.535 396C607.815 397.52 606.955 399.76 606.955 402.72ZM664.884 420H658.764V415.74C656.124 418.9 652.584 420.48 648.144 420.48C644.824 420.48 642.064 419.54 639.864 417.66C637.704 415.78 636.624 413.28 636.624 410.16C636.624 407 637.784 404.64 640.104 403.08C642.424 401.52 645.564 400.74 649.524 400.74H658.224V399.54C658.224 395.3 655.864 393.18 651.144 393.18C648.184 393.18 645.104 394.26 641.904 396.42L638.904 392.22C642.784 389.14 647.184 387.6 652.104 387.6C655.864 387.6 658.924 388.56 661.284 390.48C663.684 392.36 664.884 395.34 664.884 399.42V420ZM658.164 408.12V405.42H650.604C645.764 405.42 643.344 406.94 643.344 409.98C643.344 411.54 643.944 412.74 645.144 413.58C646.344 414.38 648.004 414.78 650.124 414.78C652.284 414.78 654.164 414.18 655.764 412.98C657.364 411.78 658.164 410.16 658.164 408.12ZM698.984 393.48V409.68C698.984 411.2 699.384 412.42 700.184 413.34C700.984 414.22 702.104 414.66 703.544 414.66C704.984 414.66 706.364 413.96 707.684 412.56L710.444 417.3C708.084 419.42 705.464 420.48 702.584 420.48C699.744 420.48 697.304 419.5 695.264 417.54C693.264 415.54 692.264 412.86 692.264 409.5V393.48H688.244V388.08H692.264V378.06H698.984V388.08H707.384V393.48H698.984ZM741.642 420H735.522V415.74C732.882 418.9 729.342 420.48 724.902 420.48C721.582 420.48 718.822 419.54 716.622 417.66C714.462 415.78 713.382 413.28 713.382 410.16C713.382 407 714.542 404.64 716.862 403.08C719.182 401.52 722.322 400.74 726.282 400.74H734.982V399.54C734.982 395.3 732.622 393.18 727.902 393.18C724.942 393.18 721.862 394.26 718.662 396.42L715.662 392.22C719.542 389.14 723.942 387.6 728.862 387.6C732.622 387.6 735.682 388.56 738.042 390.48C740.442 392.36 741.642 395.34 741.642 399.42V420ZM734.922 408.12V405.42H727.362C722.522 405.42 720.102 406.94 720.102 409.98C720.102 411.54 720.702 412.74 721.902 413.58C723.102 414.38 724.762 414.78 726.882 414.78C729.042 414.78 730.922 414.18 732.522 412.98C734.122 411.78 734.922 410.16 734.922 408.12ZM772.177 411.12C772.177 414.24 771.017 416.6 768.697 418.2C766.377 419.8 763.257 420.6 759.337 420.6C757.097 420.6 755.157 420.42 753.517 420.06C751.917 419.7 750.497 419.2 749.257 418.56V413.76C750.537 414.4 752.077 415 753.877 415.56C755.717 416.08 757.577 416.34 759.457 416.34C762.137 416.34 764.077 415.92 765.277 415.08C766.477 414.2 767.077 413.04 767.077 411.6C767.077 410.8 766.857 410.08 766.417 409.44C765.977 408.8 765.177 408.16 764.017 407.52C762.897 406.88 761.277 406.16 759.157 405.36C757.077 404.56 755.297 403.76 753.817 402.96C752.337 402.16 751.197 401.2 750.397 400.08C749.597 398.96 749.197 397.52 749.197 395.76C749.197 393.04 750.297 390.94 752.497 389.46C754.737 387.98 757.657 387.24 761.257 387.24C763.217 387.24 765.037 387.44 766.717 387.84C768.437 388.2 770.037 388.72 771.517 389.4L769.717 393.6C768.357 393.04 766.937 392.56 765.457 392.16C763.977 391.76 762.457 391.56 760.897 391.56C758.737 391.56 757.077 391.92 755.917 392.64C754.797 393.32 754.237 394.26 754.237 395.46C754.237 396.34 754.497 397.1 755.017 397.74C755.537 398.34 756.397 398.94 757.597 399.54C758.837 400.1 760.477 400.78 762.517 401.58C764.557 402.34 766.297 403.12 767.737 403.92C769.177 404.72 770.277 405.7 771.037 406.86C771.797 407.98 772.177 409.4 772.177 411.12ZM766.597 428.34C766.597 430.26 765.857 431.74 764.377 432.78C762.897 433.86 760.677 434.4 757.717 434.4C756.437 434.4 755.437 434.3 754.717 434.1V430.8C755.077 430.88 755.557 430.94 756.157 430.98C756.757 431.06 757.337 431.1 757.897 431.1C759.337 431.1 760.437 430.9 761.197 430.5C761.957 430.14 762.337 429.46 762.337 428.46C762.337 427.42 761.797 426.66 760.717 426.18C759.677 425.7 758.397 425.36 756.877 425.16L759.457 420H762.937L761.377 423.18C762.817 423.5 764.037 424.06 765.037 424.86C766.077 425.66 766.597 426.82 766.597 428.34ZM786.428 402.72V420H779.708V388.08H786.428V393.9C787.388 391.94 788.828 390.4 790.748 389.28C792.708 388.16 794.808 387.6 797.048 387.6C802.088 387.6 805.508 389.68 807.308 393.84C810.468 389.68 814.408 387.6 819.128 387.6C822.728 387.6 825.628 388.7 827.828 390.9C830.068 393.1 831.188 396.28 831.188 400.44V420H824.468V402.48C824.468 396.6 822.028 393.66 817.148 393.66C814.868 393.66 812.868 394.4 811.148 395.88C809.468 397.32 808.588 399.44 808.508 402.24V420H801.788V402.48C801.788 399.44 801.248 397.22 800.168 395.82C799.088 394.38 797.388 393.66 795.068 393.66C792.748 393.66 790.728 394.44 789.008 396C787.288 397.52 786.428 399.76 786.428 402.72ZM866.388 420H860.268V415.74C857.628 418.9 854.088 420.48 849.648 420.48C846.328 420.48 843.568 419.54 841.368 417.66C839.208 415.78 838.128 413.28 838.128 410.16C838.128 407 839.288 404.64 841.608 403.08C843.928 401.52 847.068 400.74 851.028 400.74H859.728V399.54C859.728 395.3 857.368 393.18 852.648 393.18C849.688 393.18 846.608 394.26 843.408 396.42L840.408 392.22C844.288 389.14 848.688 387.6 853.608 387.6C857.368 387.6 860.428 388.56 862.788 390.48C865.188 392.36 866.388 395.34 866.388 399.42V420ZM859.668 408.12V405.42H852.108C847.268 405.42 844.848 406.94 844.848 409.98C844.848 411.54 845.448 412.74 846.648 413.58C847.848 414.38 849.508 414.78 851.628 414.78C853.788 414.78 855.668 414.18 857.268 412.98C858.868 411.78 859.668 410.16 859.668 408.12ZM882.463 420H875.743V375.48H882.463V401.64L895.423 388.08H904.063L891.943 400.74L904.963 420H896.803L887.323 406.02L882.463 410.94V420ZM933.791 420H927.071V388.08H933.791V420ZM927.491 381.72C926.651 380.88 926.231 379.88 926.231 378.72C926.231 377.56 926.651 376.56 927.491 375.72C928.331 374.88 929.331 374.46 930.491 374.46C931.651 374.46 932.651 374.88 933.491 375.72C934.331 376.56 934.751 377.56 934.751 378.72C934.751 379.88 934.331 380.88 933.491 381.72C932.651 382.56 931.651 382.98 930.491 382.98C929.331 382.98 928.331 382.56 927.491 381.72ZM963.216 427.02C963.216 428.54 962.596 429.86 961.356 430.98C960.116 432.14 958.536 432.72 956.616 432.72C954.736 432.72 953.076 432.28 951.636 431.4L953.196 427.98C953.956 428.38 954.716 428.58 955.476 428.58C956.276 428.58 956.896 428.34 957.336 427.86C957.776 427.42 957.996 426.88 957.996 426.24C957.996 425.6 957.756 425.02 957.276 424.5C956.836 424.02 956.256 423.78 955.536 423.78C954.856 423.78 954.276 423.88 953.796 424.08L955.776 420.36C951.736 419.88 948.336 418.18 945.576 415.26C942.856 412.3 941.496 408.48 941.496 403.8C941.496 399.12 943.156 395.26 946.476 392.22C949.836 389.14 953.916 387.6 958.716 387.6C963.516 387.6 967.576 389.26 970.896 392.58L966.936 397.44C964.176 395.04 961.396 393.84 958.596 393.84C955.796 393.84 953.356 394.78 951.276 396.66C949.236 398.5 948.216 400.9 948.216 403.86C948.216 406.78 949.216 409.26 951.216 411.3C953.256 413.34 955.776 414.36 958.776 414.36C961.776 414.36 964.596 413 967.236 410.28L971.196 414.6C967.916 417.88 964.196 419.78 960.036 420.3L959.016 422.28C961.816 422.64 963.216 424.22 963.216 427.02ZM984.885 420H978.165V388.08H984.885V420ZM978.585 381.72C977.745 380.88 977.325 379.88 977.325 378.72C977.325 377.56 977.745 376.56 978.585 375.72C979.425 374.88 980.425 374.46 981.585 374.46C982.745 374.46 983.745 374.88 984.585 375.72C985.425 376.56 985.845 377.56 985.845 378.72C985.845 379.88 985.425 380.88 984.585 381.72C983.745 382.56 982.745 382.98 981.585 382.98C980.425 382.98 979.425 382.56 978.585 381.72ZM1001.35 402.72V420H994.63V388.08H1001.35V393.9C1002.43 391.94 1003.91 390.4 1005.79 389.28C1007.71 388.16 1009.77 387.6 1011.97 387.6C1015.57 387.6 1018.47 388.7 1020.67 390.9C1022.91 393.1 1024.03 396.28 1024.03 400.44V420H1017.31V402.48C1017.31 396.6 1014.87 393.66 1009.99 393.66C1007.67 393.66 1005.65 394.44 1003.93 396C1002.21 397.52 1001.35 399.76 1001.35 402.72ZM1072.62 410.46C1072.62 413.5 1071.52 415.94 1069.32 417.78C1067.12 419.58 1064.3 420.48 1060.86 420.48C1058.54 420.48 1056.12 420.06 1053.6 419.22C1051.12 418.38 1048.92 417.2 1047 415.68L1050.24 410.46C1053.96 413.26 1057.56 414.66 1061.04 414.66C1062.56 414.66 1063.76 414.32 1064.64 413.64C1065.52 412.92 1065.96 412.02 1065.96 410.94C1065.96 409.34 1063.84 407.9 1059.6 406.62C1059.28 406.5 1059.04 406.42 1058.88 406.38C1052.24 404.58 1048.92 401.58 1048.92 397.38C1048.92 394.42 1050.06 392.06 1052.34 390.3C1054.66 388.5 1057.66 387.6 1061.34 387.6C1065.02 387.6 1068.5 388.68 1071.78 390.84L1069.26 395.82C1066.66 394.1 1063.84 393.24 1060.8 393.24C1059.2 393.24 1057.9 393.54 1056.9 394.14C1055.9 394.7 1055.4 395.56 1055.4 396.72C1055.4 397.76 1055.92 398.52 1056.96 399C1057.68 399.36 1058.68 399.7 1059.96 400.02C1061.28 400.34 1062.44 400.66 1063.44 400.98C1064.44 401.3 1065.4 401.66 1066.32 402.06C1067.28 402.46 1068.3 403.02 1069.38 403.74C1071.54 405.18 1072.62 407.42 1072.62 410.46ZM1086.96 420H1080.24V388.08H1086.96V420ZM1080.66 381.72C1079.82 380.88 1079.4 379.88 1079.4 378.72C1079.4 377.56 1079.82 376.56 1080.66 375.72C1081.5 374.88 1082.5 374.46 1083.66 374.46C1084.82 374.46 1085.82 374.88 1086.66 375.72C1087.5 376.56 1087.92 377.56 1087.92 378.72C1087.92 379.88 1087.5 380.88 1086.66 381.72C1085.82 382.56 1084.82 382.98 1083.66 382.98C1082.5 382.98 1081.5 382.56 1080.66 381.72ZM1095.68 393.96V388.2H1120.64V394.26L1102.7 414.18H1121.6V420H1094.48V413.46L1111.94 393.96H1095.68ZM1135.88 420H1129.16V388.08H1135.88V420ZM1129.58 381.72C1128.74 380.88 1128.32 379.88 1128.32 378.72C1128.32 377.56 1128.74 376.56 1129.58 375.72C1130.42 374.88 1131.42 374.46 1132.58 374.46C1133.74 374.46 1134.74 374.88 1135.58 375.72C1136.42 376.56 1136.84 377.56 1136.84 378.72C1136.84 379.88 1136.42 380.88 1135.58 381.72C1134.74 382.56 1133.74 382.98 1132.58 382.98C1131.42 382.98 1130.42 382.56 1129.58 381.72ZM1152.35 402.72V420H1145.63V388.08H1152.35V393.9C1153.43 391.94 1154.91 390.4 1156.79 389.28C1158.71 388.16 1160.77 387.6 1162.97 387.6C1166.57 387.6 1169.47 388.7 1171.67 390.9C1173.91 393.1 1175.03 396.28 1175.03 400.44V420H1168.31V402.48C1168.31 396.6 1165.87 393.66 1160.99 393.66C1158.67 393.66 1156.65 394.44 1154.93 396C1153.21 397.52 1152.35 399.76 1152.35 402.72ZM1204.9 432.72C1201.98 432.72 1199.34 431.66 1196.98 429.54L1200.04 424.08C1201.44 425.4 1202.88 426.06 1204.36 426.06C1205.88 426.06 1207.1 425.52 1208.02 424.44C1208.98 423.36 1209.46 422.18 1209.46 420.9C1209.46 420.34 1205.16 409.4 1196.56 388.08H1203.76L1213.3 411.6L1222.84 388.08H1230.04L1214.56 426C1213.64 428.08 1212.32 429.72 1210.6 430.92C1208.88 432.12 1206.98 432.72 1204.9 432.72ZM1260.78 420H1254.66V415.74C1252.02 418.9 1248.48 420.48 1244.04 420.48C1240.72 420.48 1237.96 419.54 1235.76 417.66C1233.6 415.78 1232.52 413.28 1232.52 410.16C1232.52 407 1233.68 404.64 1236 403.08C1238.32 401.52 1241.46 400.74 1245.42 400.74H1254.12V399.54C1254.12 395.3 1251.76 393.18 1247.04 393.18C1244.08 393.18 1241 394.26 1237.8 396.42L1234.8 392.22C1238.68 389.14 1243.08 387.6 1248 387.6C1251.76 387.6 1254.82 388.56 1257.18 390.48C1259.58 392.36 1260.78 395.34 1260.78 399.42V420ZM1254.06 408.12V405.42H1246.5C1241.66 405.42 1239.24 406.94 1239.24 409.98C1239.24 411.54 1239.84 412.74 1241.04 413.58C1242.24 414.38 1243.9 414.78 1246.02 414.78C1248.18 414.78 1250.06 414.18 1251.66 412.98C1253.26 411.78 1254.06 410.16 1254.06 408.12ZM1276.86 402.72V420H1270.14V388.08H1276.86V393.9C1277.94 391.94 1279.42 390.4 1281.3 389.28C1283.22 388.16 1285.28 387.6 1287.48 387.6C1291.08 387.6 1293.98 388.7 1296.18 390.9C1298.42 393.1 1299.54 396.28 1299.54 400.44V420H1292.82V402.48C1292.82 396.6 1290.38 393.66 1285.5 393.66C1283.18 393.66 1281.16 394.44 1279.44 396C1277.72 397.52 1276.86 399.76 1276.86 402.72ZM1308.93 388.08H1315.65V420H1308.93V388.08ZM1332.11 402.72V420H1325.39V388.08H1332.11V393.9C1333.19 391.94 1334.67 390.4 1336.55 389.28C1338.47 388.16 1340.53 387.6 1342.73 387.6C1346.33 387.6 1349.23 388.7 1351.43 390.9C1353.67 393.1 1354.79 396.28 1354.79 400.44V420H1348.07V402.48C1348.07 396.6 1345.63 393.66 1340.75 393.66C1338.43 393.66 1336.41 394.44 1334.69 396C1332.97 397.52 1332.11 399.76 1332.11 402.72ZM1364.18 388.08H1370.9V420H1364.18V388.08ZM1379.63 393.96V388.2H1404.59V394.26L1386.65 414.18H1405.55V420H1378.43V413.46L1395.89 393.96H1379.63ZM1426.13 420.48C1422.09 420.48 1418.57 418.96 1415.57 415.92C1412.57 412.88 1411.07 408.88 1411.07 403.92C1411.07 398.96 1412.61 395 1415.69 392.04C1418.77 389.08 1422.43 387.6 1426.67 387.6C1430.95 387.6 1434.39 389.4 1436.99 393V375.48H1443.71V420H1436.99V415.2C1434.51 418.72 1430.89 420.48 1426.13 420.48ZM1417.79 404.22C1417.79 407.26 1418.77 409.74 1420.73 411.66C1422.69 413.58 1424.99 414.54 1427.63 414.54C1430.27 414.54 1432.51 413.58 1434.35 411.66C1436.19 409.7 1437.11 407.2 1437.11 404.16C1437.11 401.12 1436.19 398.58 1434.35 396.54C1432.51 394.5 1430.25 393.48 1427.57 393.48C1424.89 393.48 1422.59 394.5 1420.67 396.54C1418.75 398.58 1417.79 401.14 1417.79 404.22ZM1479.28 420H1473.16V415.74C1470.52 418.9 1466.98 420.48 1462.54 420.48C1459.22 420.48 1456.46 419.54 1454.26 417.66C1452.1 415.78 1451.02 413.28 1451.02 410.16C1451.02 407 1452.18 404.64 1454.5 403.08C1456.82 401.52 1459.96 400.74 1463.92 400.74H1472.62V399.54C1472.62 395.3 1470.26 393.18 1465.54 393.18C1462.58 393.18 1459.5 394.26 1456.3 396.42L1453.3 392.22C1457.18 389.14 1461.58 387.6 1466.5 387.6C1470.26 387.6 1473.32 388.56 1475.68 390.48C1478.08 392.36 1479.28 395.34 1479.28 399.42V420ZM1472.56 408.12V405.42H1465C1460.16 405.42 1457.74 406.94 1457.74 409.98C1457.74 411.54 1458.34 412.74 1459.54 413.58C1460.74 414.38 1462.4 414.78 1464.52 414.78C1466.68 414.78 1468.56 414.18 1470.16 412.98C1471.76 411.78 1472.56 410.16 1472.56 408.12ZM1522.2 387.6C1526.48 387.6 1530.14 389.08 1533.18 392.04C1536.22 395 1537.74 398.94 1537.74 403.86C1537.74 408.78 1536.22 412.78 1533.18 415.86C1530.18 418.94 1526.66 420.48 1522.62 420.48C1518.62 420.48 1515.02 418.72 1511.82 415.2V420H1505.1V375.48H1511.82V393.66C1514.46 389.62 1517.92 387.6 1522.2 387.6ZM1511.7 404.1C1511.7 407.14 1512.62 409.64 1514.46 411.6C1516.3 413.52 1518.54 414.48 1521.18 414.48C1523.82 414.48 1526.12 413.52 1528.08 411.6C1530.04 409.68 1531.02 407.2 1531.02 404.16C1531.02 401.08 1530.06 398.54 1528.14 396.54C1526.22 394.5 1523.92 393.48 1521.24 393.48C1518.56 393.48 1516.3 394.5 1514.46 396.54C1512.62 398.54 1511.7 401.06 1511.7 404.1ZM1552.13 420H1545.41V388.08H1552.13V420ZM1545.83 381.72C1544.99 380.88 1544.57 379.88 1544.57 378.72C1544.57 377.56 1544.99 376.56 1545.83 375.72C1546.67 374.88 1547.67 374.46 1548.83 374.46C1549.99 374.46 1550.99 374.88 1551.83 375.72C1552.67 376.56 1553.09 377.56 1553.09 378.72C1553.09 379.88 1552.67 380.88 1551.83 381.72C1550.99 382.56 1549.99 382.98 1548.83 382.98C1547.67 382.98 1546.67 382.56 1545.83 381.72ZM1560.86 393.96V388.2H1585.82V394.26L1567.88 414.18H1586.78V420H1559.66V413.46L1577.12 393.96H1560.86ZM209.32 493L196.48 461.08H203.44L213.16 485.2L222.88 461.08H229.84L217 493H209.32ZM260.646 493H254.526V488.74C251.886 491.9 248.346 493.48 243.906 493.48C240.586 493.48 237.826 492.54 235.626 490.66C233.466 488.78 232.386 486.28 232.386 483.16C232.386 480 233.546 477.64 235.866 476.08C238.186 474.52 241.326 473.74 245.286 473.74H253.986V472.54C253.986 468.3 251.626 466.18 246.906 466.18C243.946 466.18 240.866 467.26 237.666 469.42L234.666 465.22C238.546 462.14 242.946 460.6 247.866 460.6C251.626 460.6 254.686 461.56 257.046 463.48C259.446 465.36 260.646 468.34 260.646 472.42V493ZM253.926 481.12V478.42H246.366C241.526 478.42 239.106 479.94 239.106 482.98C239.106 484.54 239.706 485.74 240.906 486.58C242.106 487.38 243.766 487.78 245.886 487.78C248.046 487.78 249.926 487.18 251.526 485.98C253.126 484.78 253.926 483.16 253.926 481.12ZM286.741 467.38C283.421 467.38 280.921 468.46 279.241 470.62C277.561 472.78 276.721 475.68 276.721 479.32V493H270.001V461.08H276.721V467.5C277.801 465.5 279.261 463.86 281.101 462.58C282.981 461.3 284.961 460.64 287.041 460.6L287.101 467.38C286.981 467.38 286.861 467.38 286.741 467.38ZM293.848 461.08H300.568V493H293.848V461.08ZM309.293 466.96V461.2H334.253V467.26L316.313 487.18H335.213V493H308.093V486.46L325.553 466.96H309.293ZM342.594 450.04H350.994V457.78L349.194 479.44H344.394L342.594 457.78V450.04ZM346.794 493.48C345.594 493.48 344.554 493.04 343.674 492.16C342.794 491.28 342.354 490.24 342.354 489.04C342.354 487.8 342.794 486.74 343.674 485.86C344.554 484.98 345.594 484.54 346.794 484.54C348.034 484.54 349.094 484.98 349.974 485.86C350.854 486.74 351.294 487.8 351.294 489.04C351.294 490.24 350.854 491.28 349.974 492.16C349.094 493.04 348.034 493.48 346.794 493.48Z"/><path fill="#EAC61C" d="M396.254 493H377.894V451.06H394.214C397.054 451.06 399.494 451.4 401.534 452.08C403.614 452.76 405.154 453.68 406.154 454.84C408.074 457 409.034 459.44 409.034 462.16C409.034 465.44 407.994 467.88 405.914 469.48C405.154 470.04 404.634 470.4 404.354 470.56C404.074 470.68 403.574 470.9 402.854 471.22C405.454 471.78 407.514 472.96 409.034 474.76C410.594 476.52 411.374 478.72 411.374 481.36C411.374 484.28 410.374 486.86 408.374 489.1C406.014 491.7 401.974 493 396.254 493ZM384.974 468.46H393.974C399.094 468.46 401.654 466.72 401.654 463.24C401.654 461.24 401.034 459.8 399.794 458.92C398.554 458.04 396.634 457.6 394.034 457.6H384.974V468.46ZM384.974 486.46H396.074C398.674 486.46 400.654 486.06 402.014 485.26C403.414 484.42 404.114 482.86 404.114 480.58C404.114 476.86 401.134 475 395.174 475H384.974V486.46ZM448.998 479.98H423.978C424.138 482.3 425.198 484.18 427.158 485.62C429.118 487.02 431.358 487.72 433.878 487.72C437.878 487.72 440.918 486.46 442.998 483.94L446.838 488.14C443.398 491.7 438.918 493.48 433.398 493.48C428.918 493.48 425.098 492 421.938 489.04C418.818 486.04 417.258 482.04 417.258 477.04C417.258 472 418.858 468 422.058 465.04C425.258 462.08 429.018 460.6 433.338 460.6C437.698 460.6 441.398 461.92 444.438 464.56C447.478 467.16 448.998 470.76 448.998 475.36V479.98ZM423.978 474.7H442.278C442.278 472.02 441.438 469.96 439.758 468.52C438.078 467.08 435.998 466.36 433.518 466.36C431.078 466.36 428.878 467.12 426.918 468.64C424.958 470.12 423.978 472.14 423.978 474.7ZM481.132 466.48V482.68C481.132 484.2 481.532 485.42 482.332 486.34C483.132 487.22 484.252 487.66 485.692 487.66C487.132 487.66 488.512 486.96 489.832 485.56L492.592 490.3C490.232 492.42 487.612 493.48 484.732 493.48C481.892 493.48 479.452 492.5 477.412 490.54C475.412 488.54 474.412 485.86 474.412 482.5V466.48H470.392V461.08H474.412V451.06H481.132V461.08H489.532V466.48H481.132ZM505.136 484.6C507.056 486.52 509.476 487.48 512.396 487.48C515.316 487.48 517.716 486.52 519.596 484.6C521.516 482.64 522.476 480.12 522.476 477.04C522.476 473.96 521.516 471.46 519.596 469.54C517.716 467.58 515.316 466.6 512.396 466.6C509.476 466.6 507.056 467.58 505.136 469.54C503.256 471.46 502.316 473.96 502.316 477.04C502.316 480.12 503.256 482.64 505.136 484.6ZM524.396 488.74C521.196 491.9 517.196 493.48 512.396 493.48C507.596 493.48 503.596 491.9 500.396 488.74C497.196 485.54 495.596 481.64 495.596 477.04C495.596 472.44 497.196 468.56 500.396 465.4C503.596 462.2 507.596 460.6 512.396 460.6C517.196 460.6 521.196 462.2 524.396 465.4C527.596 468.56 529.196 472.44 529.196 477.04C529.196 481.64 527.596 485.54 524.396 488.74ZM561.341 457.66V469.18H579.941V475.72H561.341V493H554.261V451.06H582.221L582.161 457.66H561.341ZM599.892 483.4C601.812 485.64 604.412 486.76 607.692 486.76C610.972 486.76 613.572 485.64 615.492 483.4C617.412 481.16 618.372 478.12 618.372 474.28V451.06H625.452V474.58C625.452 480.62 623.792 485.28 620.472 488.56C617.152 491.8 612.892 493.42 607.692 493.42C602.492 493.42 598.232 491.8 594.912 488.56C591.592 485.28 589.932 480.62 589.932 474.58V451.06H597.012V474.28C597.012 478.12 597.972 481.16 599.892 483.4ZM652.367 457.54V493H645.287V457.54H632.567V451.06H665.087V457.54H652.367ZM682.158 483.4C684.078 485.64 686.678 486.76 689.958 486.76C693.238 486.76 695.838 485.64 697.758 483.4C699.678 481.16 700.638 478.12 700.638 474.28V451.06H707.718V474.58C707.718 480.62 706.058 485.28 702.738 488.56C699.418 491.8 695.158 493.42 689.958 493.42C684.758 493.42 680.498 491.8 677.178 488.56C673.858 485.28 672.198 480.62 672.198 474.58V451.06H679.278V474.28C679.278 478.12 680.238 481.16 682.158 483.4ZM752.273 464.68C752.273 471.6 749.253 475.96 743.213 477.76L754.193 493H745.193L735.173 478.9H725.873V493H718.793V451.06H734.393C740.793 451.06 745.373 452.14 748.133 454.3C750.893 456.46 752.273 459.92 752.273 464.68ZM734.693 472.48C738.693 472.48 741.413 471.86 742.853 470.62C744.293 469.38 745.013 467.4 745.013 464.68C745.013 461.92 744.273 460.04 742.793 459.04C741.313 458 738.673 457.48 734.873 457.48H725.873V472.48H734.693ZM791.905 451.06V457.72H769.525V468.82H789.625V475.12H769.525V486.34H792.625V493H762.445V451.06H791.905ZM801.103 492.16C800.263 491.28 799.843 490.22 799.843 488.98C799.843 487.74 800.263 486.7 801.103 485.86C801.983 484.98 803.043 484.54 804.283 484.54C805.523 484.54 806.583 484.98 807.463 485.86C808.343 486.7 808.783 487.74 808.783 488.98C808.783 490.22 808.343 491.28 807.463 492.16C806.583 493.04 805.523 493.48 804.283 493.48C803.043 493.48 801.983 493.04 801.103 492.16Z"/></svg>