<svg width="1920" height="650" viewBox="0 0 1920 650" fill="none" xmlns="http://www.w3.org/2000/svg">
<g clip-path="url(#clip0)">
<rect width="1920" height="650" fill="black"/>
<path d="M521.15 459V457.5H519.65V459H521.15ZM537.65 459H539.15V457.5H537.65V459ZM537.65 501.75H536.15V503.25H537.65V501.75ZM555.35 501.75V503.25H556.85V501.75H555.35ZM555.35 459V457.5H553.85V459H555.35ZM571.85 459H573.35V457.5H571.85V459ZM571.85 564V565.5H573.35V564H571.85ZM555.35 564H553.85V565.5H555.35V564ZM555.35 516.75H556.85V515.25H555.35V516.75ZM537.65 516.75V515.25H536.15V516.75H537.65ZM537.65 564V565.5H539.15V564H537.65ZM521.15 564H519.65V565.5H521.15V564ZM521.15 460.5H537.65V457.5H521.15V460.5ZM536.15 459V501.75H539.15V459H536.15ZM537.65 503.25H555.35V500.25H537.65V503.25ZM556.85 501.75V459H553.85V501.75H556.85ZM555.35 460.5H571.85V457.5H555.35V460.5ZM570.35 459V564H573.35V459H570.35ZM571.85 562.5H555.35V565.5H571.85V562.5ZM556.85 564V516.75H553.85V564H556.85ZM555.35 515.25H537.65V518.25H555.35V515.25ZM536.15 516.75V564H539.15V516.75H536.15ZM537.65 562.5H521.15V565.5H537.65V562.5ZM522.65 564V459H519.65V564H522.65ZM596.888 459V457.5H595.613L595.408 458.759L596.888 459ZM619.238 459L620.719 458.759L620.514 457.5H619.238V459ZM636.338 564V565.5H638.102L637.819 563.759L636.338 564ZM619.838 564L618.354 564.214L618.539 565.5H619.838V564ZM616.838 543.15L618.323 542.936L615.338 543.15H616.838ZM616.838 543.45V544.95H618.338V543.45H616.838ZM598.088 543.45V541.95H596.791L596.604 543.233L598.088 543.45ZM595.088 564V565.5H596.385L596.573 564.217L595.088 564ZM579.788 564L578.308 563.759L578.024 565.5H579.788V564ZM614.888 529.2V530.7H616.616L616.373 528.99L614.888 529.2ZM607.538 477.3L609.023 477.09L608.841 475.8H607.538V477.3ZM607.238 477.3V475.8H605.932L605.753 477.094L607.238 477.3ZM600.038 529.2L598.553 528.994L598.316 530.7H600.038V529.2ZM596.888 460.5H619.238V457.5H596.888V460.5ZM617.758 459.241L634.858 564.241L637.819 563.759L620.719 458.759L617.758 459.241ZM636.338 562.5H619.838V565.5H636.338V562.5ZM621.323 563.786L618.323 542.936L615.354 543.364L618.354 564.214L621.323 563.786ZM615.338 543.15V543.45H618.338V543.15H615.338ZM616.838 541.95H598.088V544.95H616.838V541.95ZM596.604 543.233L593.604 563.783L596.573 564.217L599.573 543.667L596.604 543.233ZM595.088 562.5H579.788V565.5H595.088V562.5ZM581.269 564.241L598.369 459.241L595.408 458.759L578.308 563.759L581.269 564.241ZM616.373 528.99L609.023 477.09L606.053 477.51L613.403 529.41L616.373 528.99ZM607.538 475.8H607.238V478.8H607.538V475.8ZM605.753 477.094L598.553 528.994L601.524 529.406L608.724 477.506L605.753 477.094ZM600.038 530.7H614.888V527.7H600.038V530.7ZM644.343 459V457.5H642.843V459H644.343ZM660.843 459H662.343V457.5H660.843V459ZM660.843 503.25H659.343L662.198 503.893L660.843 503.25ZM681.843 459V457.5H680.895L680.488 458.357L681.843 459ZM698.343 459L699.68 459.681L700.792 457.5H698.343V459ZM678.693 497.55L677.357 496.869L677.084 497.405L677.257 497.981L678.693 497.55ZM698.643 564V565.5H700.66L700.08 563.569L698.643 564ZM681.393 564L679.956 564.428L680.275 565.5H681.393V564ZM667.443 517.2L668.881 516.772L667.79 513.113L666.099 516.535L667.443 517.2ZM660.843 530.55L659.499 529.885L659.343 530.199V530.55H660.843ZM660.843 564V565.5H662.343V564H660.843ZM644.343 564H642.843V565.5H644.343V564ZM644.343 460.5H660.843V457.5H644.343V460.5ZM659.343 459V503.25H662.343V459H659.343ZM662.198 503.893L683.198 459.643L680.488 458.357L659.488 502.607L662.198 503.893ZM681.843 460.5H698.343V457.5H681.843V460.5ZM697.007 458.319L677.357 496.869L680.03 498.231L699.68 459.681L697.007 458.319ZM677.257 497.981L697.207 564.431L700.08 563.569L680.13 497.119L677.257 497.981ZM698.643 562.5H681.393V565.5H698.643V562.5ZM682.831 563.572L668.881 516.772L666.006 517.628L679.956 564.428L682.831 563.572ZM666.099 516.535L659.499 529.885L662.188 531.215L668.788 517.865L666.099 516.535ZM659.343 530.55V564H662.343V530.55H659.343ZM660.843 562.5H644.343V565.5H660.843V562.5ZM645.843 564V459H642.843V564H645.843ZM706.453 459V457.5H704.953V459H706.453ZM722.953 459H724.453V457.5H722.953V459ZM722.953 503.25H721.453L724.308 503.893L722.953 503.25ZM743.953 459V457.5H743.004L742.598 458.357L743.953 459ZM760.453 459L761.789 459.681L762.901 457.5H760.453V459ZM740.803 497.55L739.466 496.869L739.193 497.405L739.366 497.981L740.803 497.55ZM760.753 564V565.5H762.769L762.189 563.569L760.753 564ZM743.503 564L742.065 564.428L742.385 565.5H743.503V564ZM729.553 517.2L730.99 516.772L729.9 513.113L728.208 516.535L729.553 517.2ZM722.953 530.55L721.608 529.885L721.453 530.199V530.55H722.953ZM722.953 564V565.5H724.453V564H722.953ZM706.453 564H704.953V565.5H706.453V564ZM706.453 460.5H722.953V457.5H706.453V460.5ZM721.453 459V503.25H724.453V459H721.453ZM724.308 503.893L745.308 459.643L742.598 458.357L721.598 502.607L724.308 503.893ZM743.953 460.5H760.453V457.5H743.953V460.5ZM759.116 458.319L739.466 496.869L742.139 498.231L761.789 459.681L759.116 458.319ZM739.366 497.981L759.316 564.431L762.189 563.569L742.239 497.119L739.366 497.981ZM760.753 562.5H743.503V565.5H760.753V562.5ZM744.94 563.572L730.99 516.772L728.115 517.628L742.065 564.428L744.94 563.572ZM728.208 516.535L721.608 529.885L724.297 531.215L730.897 517.865L728.208 516.535ZM721.453 530.55V564H724.453V530.55H721.453ZM722.953 562.5H706.453V565.5H722.953V562.5ZM707.953 564V459H704.953V564H707.953ZM768.562 459V457.5H767.062V459H768.562ZM785.062 459H786.562V457.5H785.062V459ZM785.062 564V565.5H786.562V564H785.062ZM768.562 564H767.062V565.5H768.562V564ZM768.562 460.5H785.062V457.5H768.562V460.5ZM783.562 459V564H786.562V459H783.562ZM785.062 562.5H768.562V565.5H785.062V562.5ZM770.062 564V459H767.062V564H770.062ZM797.42 459V457.5H795.92V459H797.42ZM820.97 459L822.455 458.792L822.275 457.5H820.97V459ZM831.47 534.15L829.984 534.358L830.165 535.65H831.47V534.15ZM831.77 534.15V535.65H833.075L833.255 534.358L831.77 534.15ZM842.27 459V457.5H840.965L840.784 458.792L842.27 459ZM865.82 459H867.32V457.5H865.82V459ZM865.82 564V565.5H867.32V564H865.82ZM850.22 564H848.72V565.5H850.22V564ZM850.22 484.5H851.72V483H850.22V484.5ZM849.92 484.5V483H848.629L848.436 484.276L849.92 484.5ZM837.92 564V565.5H839.21L839.403 564.224L837.92 564ZM824.12 564L822.636 564.224L822.829 565.5H824.12V564ZM812.12 484.5L813.603 484.276L813.41 483H812.12V484.5ZM811.82 484.5V483H810.32V484.5H811.82ZM811.82 564V565.5H813.32V564H811.82ZM797.42 564H795.92V565.5H797.42V564ZM797.42 460.5H820.97V457.5H797.42V460.5ZM819.484 459.208L829.984 534.358L832.955 533.942L822.455 458.792L819.484 459.208ZM831.47 535.65H831.77V532.65H831.47V535.65ZM833.255 534.358L843.755 459.208L840.784 458.792L830.284 533.942L833.255 534.358ZM842.27 460.5H865.82V457.5H842.27V460.5ZM864.32 459V564H867.32V459H864.32ZM865.82 562.5H850.22V565.5H865.82V562.5ZM851.72 564V484.5H848.72V564H851.72ZM850.22 483H849.92V486H850.22V483ZM848.436 484.276L836.436 563.776L839.403 564.224L851.403 484.724L848.436 484.276ZM837.92 562.5H824.12V565.5H837.92V562.5ZM825.603 563.776L813.603 484.276L810.636 484.724L822.636 564.224L825.603 563.776ZM812.12 483H811.82V486H812.12V483ZM810.32 484.5V564H813.32V484.5H810.32ZM811.82 562.5H797.42V565.5H811.82V562.5ZM798.92 564V459H795.92V564H798.92ZM878.132 459V457.5H876.632V459H878.132ZM894.632 459H896.132V457.5H894.632V459ZM894.632 564V565.5H896.132V564H894.632ZM878.132 564H876.632V565.5H878.132V564ZM878.132 460.5H894.632V457.5H878.132V460.5ZM893.132 459V564H896.132V459H893.132ZM894.632 562.5H878.132V565.5H894.632V562.5ZM879.632 564V459H876.632V564H879.632ZM903.69 549.3L902.3 548.735L902.19 549.007V549.3H903.69ZM934.29 474L935.679 474.565L936.519 472.5H934.29V474ZM905.19 474H903.69V475.5H905.19V474ZM905.19 459V457.5H903.69V459H905.19ZM951.99 459H953.49V457.5H951.99V459ZM951.99 473.7L953.379 474.265L953.49 473.993V473.7H951.99ZM921.39 549L920 548.435L919.161 550.5H921.39V549ZM951.99 549H953.49V547.5H951.99V549ZM951.99 564V565.5H953.49V564H951.99ZM903.69 564H902.19V565.5H903.69V564ZM905.079 549.865L935.679 474.565L932.9 473.435L902.3 548.735L905.079 549.865ZM934.29 472.5H905.19V475.5H934.29V472.5ZM906.69 474V459H903.69V474H906.69ZM905.19 460.5H951.99V457.5H905.19V460.5ZM950.49 459V473.7H953.49V459H950.49ZM950.6 473.135L920 548.435L922.779 549.565L953.379 474.265L950.6 473.135ZM921.39 550.5H951.99V547.5H921.39V550.5ZM950.49 549V564H953.49V549H950.49ZM951.99 562.5H903.69V565.5H951.99V562.5ZM905.19 564V549.3H902.19V564H905.19ZM961.336 459V457.5H959.836V459H961.336ZM1004.99 465.6L1003.89 466.623L1003.89 466.623L1004.99 465.6ZM961.336 564H959.836V565.5H961.336V564ZM992.386 546.6L991.291 545.574L991.274 545.593L991.257 545.612L992.386 546.6ZM992.386 476.4L991.257 477.388L991.274 477.407L991.291 477.426L992.386 476.4ZM977.836 474V472.5H976.336V474H977.836ZM977.836 549H976.336V550.5H977.836V549ZM961.336 460.5H986.536V457.5H961.336V460.5ZM986.536 460.5C994.476 460.5 1000.16 462.625 1003.89 466.623L1006.08 464.577C1001.61 459.775 994.995 457.5 986.536 457.5V460.5ZM1003.89 466.623C1007.64 470.648 1009.64 476.673 1009.64 484.95H1012.64C1012.64 476.227 1010.53 469.352 1006.08 464.577L1003.89 466.623ZM1009.64 484.95V538.05H1012.64V484.95H1009.64ZM1009.64 538.05C1009.64 546.327 1007.64 552.352 1003.89 556.377L1006.08 558.423C1010.53 553.648 1012.64 546.773 1012.64 538.05H1009.64ZM1003.89 556.377C1000.16 560.375 994.476 562.5 986.536 562.5V565.5C994.995 565.5 1001.61 563.225 1006.08 558.423L1003.89 556.377ZM986.536 562.5H961.336V565.5H986.536V562.5ZM962.836 564V459H959.836V564H962.836ZM986.236 550.5C989.243 550.5 991.756 549.597 993.514 547.588L991.257 545.612C990.215 546.803 988.628 547.5 986.236 547.5V550.5ZM993.48 547.626C995.364 545.616 996.136 542.551 996.136 538.8H993.136C993.136 542.249 992.407 544.384 991.291 545.574L993.48 547.626ZM996.136 538.8V484.2H993.136V538.8H996.136ZM996.136 484.2C996.136 480.449 995.364 477.384 993.48 475.374L991.291 477.426C992.407 478.616 993.136 480.751 993.136 484.2H996.136ZM993.514 475.412C991.756 473.403 989.243 472.5 986.236 472.5V475.5C988.628 475.5 990.215 476.197 991.257 477.388L993.514 475.412ZM986.236 472.5H977.836V475.5H986.236V472.5ZM976.336 474V549H979.336V474H976.336ZM977.836 550.5H986.236V547.5H977.836V550.5ZM1034.73 459V457.5H1033.45L1033.25 458.759L1034.73 459ZM1057.08 459L1058.56 458.759L1058.36 457.5H1057.08V459ZM1074.18 564V565.5H1075.94L1075.66 563.759L1074.18 564ZM1057.68 564L1056.2 564.214L1056.38 565.5H1057.68V564ZM1054.68 543.15L1056.16 542.936L1053.18 543.15H1054.68ZM1054.68 543.45V544.95H1056.18V543.45H1054.68ZM1035.93 543.45V541.95H1034.63L1034.45 543.233L1035.93 543.45ZM1032.93 564V565.5H1034.23L1034.41 564.217L1032.93 564ZM1017.63 564L1016.15 563.759L1015.87 565.5H1017.63V564ZM1052.73 529.2V530.7H1054.46L1054.22 528.99L1052.73 529.2ZM1045.38 477.3L1046.87 477.09L1046.68 475.8H1045.38V477.3ZM1045.08 477.3V475.8H1043.77L1043.59 477.094L1045.08 477.3ZM1037.88 529.2L1036.39 528.994L1036.16 530.7H1037.88V529.2ZM1034.73 460.5H1057.08V457.5H1034.73V460.5ZM1055.6 459.241L1072.7 564.241L1075.66 563.759L1058.56 458.759L1055.6 459.241ZM1074.18 562.5H1057.68V565.5H1074.18V562.5ZM1059.16 563.786L1056.16 542.936L1053.2 543.364L1056.2 564.214L1059.16 563.786ZM1053.18 543.15V543.45H1056.18V543.15H1053.18ZM1054.68 541.95H1035.93V544.95H1054.68V541.95ZM1034.45 543.233L1031.45 563.783L1034.41 564.217L1037.41 543.667L1034.45 543.233ZM1032.93 562.5H1017.63V565.5H1032.93V562.5ZM1019.11 564.241L1036.21 459.241L1033.25 458.759L1016.15 563.759L1019.11 564.241ZM1054.22 528.99L1046.87 477.09L1043.89 477.51L1051.24 529.41L1054.22 528.99ZM1045.38 475.8H1045.08V478.8H1045.38V475.8ZM1043.59 477.094L1036.39 528.994L1039.37 529.406L1046.57 477.506L1043.59 477.094ZM1037.88 530.7H1052.73V527.7H1037.88V530.7Z" fill="white"/>
<rect x="515" y="428" width="696" height="115" fill="black"/>
<path d="M521.15 428V426.5H519.65V428H521.15ZM537.65 428H539.15V426.5H537.65V428ZM537.65 470.75H536.15V472.25H537.65V470.75ZM555.35 470.75V472.25H556.85V470.75H555.35ZM555.35 428V426.5H553.85V428H555.35ZM571.85 428H573.35V426.5H571.85V428ZM571.85 533V534.5H573.35V533H571.85ZM555.35 533H553.85V534.5H555.35V533ZM555.35 485.75H556.85V484.25H555.35V485.75ZM537.65 485.75V484.25H536.15V485.75H537.65ZM537.65 533V534.5H539.15V533H537.65ZM521.15 533H519.65V534.5H521.15V533ZM521.15 429.5H537.65V426.5H521.15V429.5ZM536.15 428V470.75H539.15V428H536.15ZM537.65 472.25H555.35V469.25H537.65V472.25ZM556.85 470.75V428H553.85V470.75H556.85ZM555.35 429.5H571.85V426.5H555.35V429.5ZM570.35 428V533H573.35V428H570.35ZM571.85 531.5H555.35V534.5H571.85V531.5ZM556.85 533V485.75H553.85V533H556.85ZM555.35 484.25H537.65V487.25H555.35V484.25ZM536.15 485.75V533H539.15V485.75H536.15ZM537.65 531.5H521.15V534.5H537.65V531.5ZM522.65 533V428H519.65V533H522.65ZM596.888 428V426.5H595.613L595.408 427.759L596.888 428ZM619.238 428L620.719 427.759L620.514 426.5H619.238V428ZM636.338 533V534.5H638.102L637.819 532.759L636.338 533ZM619.838 533L618.354 533.214L618.539 534.5H619.838V533ZM616.838 512.15L618.323 511.936L615.338 512.15H616.838ZM616.838 512.45V513.95H618.338V512.45H616.838ZM598.088 512.45V510.95H596.791L596.604 512.233L598.088 512.45ZM595.088 533V534.5H596.385L596.573 533.217L595.088 533ZM579.788 533L578.308 532.759L578.024 534.5H579.788V533ZM614.888 498.2V499.7H616.616L616.373 497.99L614.888 498.2ZM607.538 446.3L609.023 446.09L608.841 444.8H607.538V446.3ZM607.238 446.3V444.8H605.932L605.753 446.094L607.238 446.3ZM600.038 498.2L598.553 497.994L598.316 499.7H600.038V498.2ZM596.888 429.5H619.238V426.5H596.888V429.5ZM617.758 428.241L634.858 533.241L637.819 532.759L620.719 427.759L617.758 428.241ZM636.338 531.5H619.838V534.5H636.338V531.5ZM621.323 532.786L618.323 511.936L615.354 512.364L618.354 533.214L621.323 532.786ZM615.338 512.15V512.45H618.338V512.15H615.338ZM616.838 510.95H598.088V513.95H616.838V510.95ZM596.604 512.233L593.604 532.783L596.573 533.217L599.573 512.667L596.604 512.233ZM595.088 531.5H579.788V534.5H595.088V531.5ZM581.269 533.241L598.369 428.241L595.408 427.759L578.308 532.759L581.269 533.241ZM616.373 497.99L609.023 446.09L606.053 446.51L613.403 498.41L616.373 497.99ZM607.538 444.8H607.238V447.8H607.538V444.8ZM605.753 446.094L598.553 497.994L601.524 498.406L608.724 446.506L605.753 446.094ZM600.038 499.7H614.888V496.7H600.038V499.7ZM644.343 428V426.5H642.843V428H644.343ZM660.843 428H662.343V426.5H660.843V428ZM660.843 472.25H659.343L662.198 472.893L660.843 472.25ZM681.843 428V426.5H680.895L680.488 427.357L681.843 428ZM698.343 428L699.68 428.681L700.792 426.5H698.343V428ZM678.693 466.55L677.357 465.869L677.084 466.405L677.257 466.981L678.693 466.55ZM698.643 533V534.5H700.66L700.08 532.569L698.643 533ZM681.393 533L679.956 533.428L680.275 534.5H681.393V533ZM667.443 486.2L668.881 485.772L667.79 482.113L666.099 485.535L667.443 486.2ZM660.843 499.55L659.499 498.885L659.343 499.199V499.55H660.843ZM660.843 533V534.5H662.343V533H660.843ZM644.343 533H642.843V534.5H644.343V533ZM644.343 429.5H660.843V426.5H644.343V429.5ZM659.343 428V472.25H662.343V428H659.343ZM662.198 472.893L683.198 428.643L680.488 427.357L659.488 471.607L662.198 472.893ZM681.843 429.5H698.343V426.5H681.843V429.5ZM697.007 427.319L677.357 465.869L680.03 467.231L699.68 428.681L697.007 427.319ZM677.257 466.981L697.207 533.431L700.08 532.569L680.13 466.119L677.257 466.981ZM698.643 531.5H681.393V534.5H698.643V531.5ZM682.831 532.572L668.881 485.772L666.006 486.628L679.956 533.428L682.831 532.572ZM666.099 485.535L659.499 498.885L662.188 500.215L668.788 486.865L666.099 485.535ZM659.343 499.55V533H662.343V499.55H659.343ZM660.843 531.5H644.343V534.5H660.843V531.5ZM645.843 533V428H642.843V533H645.843ZM706.453 428V426.5H704.953V428H706.453ZM722.953 428H724.453V426.5H722.953V428ZM722.953 472.25H721.453L724.308 472.893L722.953 472.25ZM743.953 428V426.5H743.004L742.598 427.357L743.953 428ZM760.453 428L761.789 428.681L762.901 426.5H760.453V428ZM740.803 466.55L739.466 465.869L739.193 466.405L739.366 466.981L740.803 466.55ZM760.753 533V534.5H762.769L762.189 532.569L760.753 533ZM743.503 533L742.065 533.428L742.385 534.5H743.503V533ZM729.553 486.2L730.99 485.772L729.9 482.113L728.208 485.535L729.553 486.2ZM722.953 499.55L721.608 498.885L721.453 499.199V499.55H722.953ZM722.953 533V534.5H724.453V533H722.953ZM706.453 533H704.953V534.5H706.453V533ZM706.453 429.5H722.953V426.5H706.453V429.5ZM721.453 428V472.25H724.453V428H721.453ZM724.308 472.893L745.308 428.643L742.598 427.357L721.598 471.607L724.308 472.893ZM743.953 429.5H760.453V426.5H743.953V429.5ZM759.116 427.319L739.466 465.869L742.139 467.231L761.789 428.681L759.116 427.319ZM739.366 466.981L759.316 533.431L762.189 532.569L742.239 466.119L739.366 466.981ZM760.753 531.5H743.503V534.5H760.753V531.5ZM744.94 532.572L730.99 485.772L728.115 486.628L742.065 533.428L744.94 532.572ZM728.208 485.535L721.608 498.885L724.297 500.215L730.897 486.865L728.208 485.535ZM721.453 499.55V533H724.453V499.55H721.453ZM722.953 531.5H706.453V534.5H722.953V531.5ZM707.953 533V428H704.953V533H707.953ZM768.562 428V426.5H767.062V428H768.562ZM785.062 428H786.562V426.5H785.062V428ZM785.062 533V534.5H786.562V533H785.062ZM768.562 533H767.062V534.5H768.562V533ZM768.562 429.5H785.062V426.5H768.562V429.5ZM783.562 428V533H786.562V428H783.562ZM785.062 531.5H768.562V534.5H785.062V531.5ZM770.062 533V428H767.062V533H770.062ZM797.42 428V426.5H795.92V428H797.42ZM820.97 428L822.455 427.792L822.275 426.5H820.97V428ZM831.47 503.15L829.984 503.358L830.165 504.65H831.47V503.15ZM831.77 503.15V504.65H833.075L833.255 503.358L831.77 503.15ZM842.27 428V426.5H840.965L840.784 427.792L842.27 428ZM865.82 428H867.32V426.5H865.82V428ZM865.82 533V534.5H867.32V533H865.82ZM850.22 533H848.72V534.5H850.22V533ZM850.22 453.5H851.72V452H850.22V453.5ZM849.92 453.5V452H848.629L848.436 453.276L849.92 453.5ZM837.92 533V534.5H839.21L839.403 533.224L837.92 533ZM824.12 533L822.636 533.224L822.829 534.5H824.12V533ZM812.12 453.5L813.603 453.276L813.41 452H812.12V453.5ZM811.82 453.5V452H810.32V453.5H811.82ZM811.82 533V534.5H813.32V533H811.82ZM797.42 533H795.92V534.5H797.42V533ZM797.42 429.5H820.97V426.5H797.42V429.5ZM819.484 428.208L829.984 503.358L832.955 502.942L822.455 427.792L819.484 428.208ZM831.47 504.65H831.77V501.65H831.47V504.65ZM833.255 503.358L843.755 428.208L840.784 427.792L830.284 502.942L833.255 503.358ZM842.27 429.5H865.82V426.5H842.27V429.5ZM864.32 428V533H867.32V428H864.32ZM865.82 531.5H850.22V534.5H865.82V531.5ZM851.72 533V453.5H848.72V533H851.72ZM850.22 452H849.92V455H850.22V452ZM848.436 453.276L836.436 532.776L839.403 533.224L851.403 453.724L848.436 453.276ZM837.92 531.5H824.12V534.5H837.92V531.5ZM825.603 532.776L813.603 453.276L810.636 453.724L822.636 533.224L825.603 532.776ZM812.12 452H811.82V455H812.12V452ZM810.32 453.5V533H813.32V453.5H810.32ZM811.82 531.5H797.42V534.5H811.82V531.5ZM798.92 533V428H795.92V533H798.92ZM878.132 428V426.5H876.632V428H878.132ZM894.632 428H896.132V426.5H894.632V428ZM894.632 533V534.5H896.132V533H894.632ZM878.132 533H876.632V534.5H878.132V533ZM878.132 429.5H894.632V426.5H878.132V429.5ZM893.132 428V533H896.132V428H893.132ZM894.632 531.5H878.132V534.5H894.632V531.5ZM879.632 533V428H876.632V533H879.632ZM903.69 518.3L902.3 517.735L902.19 518.007V518.3H903.69ZM934.29 443L935.679 443.565L936.519 441.5H934.29V443ZM905.19 443H903.69V444.5H905.19V443ZM905.19 428V426.5H903.69V428H905.19ZM951.99 428H953.49V426.5H951.99V428ZM951.99 442.7L953.379 443.265L953.49 442.993V442.7H951.99ZM921.39 518L920 517.435L919.161 519.5H921.39V518ZM951.99 518H953.49V516.5H951.99V518ZM951.99 533V534.5H953.49V533H951.99ZM903.69 533H902.19V534.5H903.69V533ZM905.079 518.865L935.679 443.565L932.9 442.435L902.3 517.735L905.079 518.865ZM934.29 441.5H905.19V444.5H934.29V441.5ZM906.69 443V428H903.69V443H906.69ZM905.19 429.5H951.99V426.5H905.19V429.5ZM950.49 428V442.7H953.49V428H950.49ZM950.6 442.135L920 517.435L922.779 518.565L953.379 443.265L950.6 442.135ZM921.39 519.5H951.99V516.5H921.39V519.5ZM950.49 518V533H953.49V518H950.49ZM951.99 531.5H903.69V534.5H951.99V531.5ZM905.19 533V518.3H902.19V533H905.19ZM961.336 428V426.5H959.836V428H961.336ZM1004.99 434.6L1003.89 435.623L1003.89 435.623L1004.99 434.6ZM961.336 533H959.836V534.5H961.336V533ZM992.386 515.6L991.291 514.574L991.274 514.593L991.257 514.612L992.386 515.6ZM992.386 445.4L991.257 446.388L991.274 446.407L991.291 446.426L992.386 445.4ZM977.836 443V441.5H976.336V443H977.836ZM977.836 518H976.336V519.5H977.836V518ZM961.336 429.5H986.536V426.5H961.336V429.5ZM986.536 429.5C994.476 429.5 1000.16 431.625 1003.89 435.623L1006.08 433.577C1001.61 428.775 994.995 426.5 986.536 426.5V429.5ZM1003.89 435.623C1007.64 439.648 1009.64 445.673 1009.64 453.95H1012.64C1012.64 445.227 1010.53 438.352 1006.08 433.577L1003.89 435.623ZM1009.64 453.95V507.05H1012.64V453.95H1009.64ZM1009.64 507.05C1009.64 515.327 1007.64 521.352 1003.89 525.377L1006.08 527.423C1010.53 522.648 1012.64 515.773 1012.64 507.05H1009.64ZM1003.89 525.377C1000.16 529.375 994.476 531.5 986.536 531.5V534.5C994.995 534.5 1001.61 532.225 1006.08 527.423L1003.89 525.377ZM986.536 531.5H961.336V534.5H986.536V531.5ZM962.836 533V428H959.836V533H962.836ZM986.236 519.5C989.243 519.5 991.756 518.597 993.514 516.588L991.257 514.612C990.215 515.803 988.628 516.5 986.236 516.5V519.5ZM993.48 516.626C995.364 514.616 996.136 511.551 996.136 507.8H993.136C993.136 511.249 992.407 513.384 991.291 514.574L993.48 516.626ZM996.136 507.8V453.2H993.136V507.8H996.136ZM996.136 453.2C996.136 449.449 995.364 446.384 993.48 444.374L991.291 446.426C992.407 447.616 993.136 449.751 993.136 453.2H996.136ZM993.514 444.412C991.756 442.403 989.243 441.5 986.236 441.5V444.5C988.628 444.5 990.215 445.197 991.257 446.388L993.514 444.412ZM986.236 441.5H977.836V444.5H986.236V441.5ZM976.336 443V518H979.336V443H976.336ZM977.836 519.5H986.236V516.5H977.836V519.5ZM1034.73 428V426.5H1033.45L1033.25 427.759L1034.73 428ZM1057.08 428L1058.56 427.759L1058.36 426.5H1057.08V428ZM1074.18 533V534.5H1075.94L1075.66 532.759L1074.18 533ZM1057.68 533L1056.2 533.214L1056.38 534.5H1057.68V533ZM1054.68 512.15L1056.16 511.936L1053.18 512.15H1054.68ZM1054.68 512.45V513.95H1056.18V512.45H1054.68ZM1035.93 512.45V510.95H1034.63L1034.45 512.233L1035.93 512.45ZM1032.93 533V534.5H1034.23L1034.41 533.217L1032.93 533ZM1017.63 533L1016.15 532.759L1015.87 534.5H1017.63V533ZM1052.73 498.2V499.7H1054.46L1054.22 497.99L1052.73 498.2ZM1045.38 446.3L1046.87 446.09L1046.68 444.8H1045.38V446.3ZM1045.08 446.3V444.8H1043.77L1043.59 446.094L1045.08 446.3ZM1037.88 498.2L1036.39 497.994L1036.16 499.7H1037.88V498.2ZM1034.73 429.5H1057.08V426.5H1034.73V429.5ZM1055.6 428.241L1072.7 533.241L1075.66 532.759L1058.56 427.759L1055.6 428.241ZM1074.18 531.5H1057.68V534.5H1074.18V531.5ZM1059.16 532.786L1056.16 511.936L1053.2 512.364L1056.2 533.214L1059.16 532.786ZM1053.18 512.15V512.45H1056.18V512.15H1053.18ZM1054.68 510.95H1035.93V513.95H1054.68V510.95ZM1034.45 512.233L1031.45 532.783L1034.41 533.217L1037.41 512.667L1034.45 512.233ZM1032.93 531.5H1017.63V534.5H1032.93V531.5ZM1019.11 533.241L1036.21 428.241L1033.25 427.759L1016.15 532.759L1019.11 533.241ZM1054.22 497.99L1046.87 446.09L1043.89 446.51L1051.24 498.41L1054.22 497.99ZM1045.38 444.8H1045.08V447.8H1045.38V444.8ZM1043.59 446.094L1036.39 497.994L1039.37 498.406L1046.57 446.506L1043.59 446.094ZM1037.88 499.7H1052.73V496.7H1037.88V499.7Z" fill="white"/>
<rect x="515" y="397" width="696" height="98" fill="black"/>
<rect x="1247" y="255" width="112" height="112" fill="#ECC41C"/>
<rect x="1234.5" y="272.5" width="107" height="107" stroke="white" stroke-width="5"/>
<path d="M1281.59 299.766L1278.3 303.049L1301.76 326.5L1278.31 349.954L1281.59 353.234L1306.68 328.14L1308.25 326.5L1306.68 324.86L1281.59 299.766Z" fill="white"/>
<path d="M521.15 383V381.5H519.65V383H521.15ZM537.65 383H539.15V381.5H537.65V383ZM537.65 425.75H536.15V427.25H537.65V425.75ZM555.35 425.75V427.25H556.85V425.75H555.35ZM555.35 383V381.5H553.85V383H555.35ZM571.85 383H573.35V381.5H571.85V383ZM571.85 488V489.5H573.35V488H571.85ZM555.35 488H553.85V489.5H555.35V488ZM555.35 440.75H556.85V439.25H555.35V440.75ZM537.65 440.75V439.25H536.15V440.75H537.65ZM537.65 488V489.5H539.15V488H537.65ZM521.15 488H519.65V489.5H521.15V488ZM521.15 384.5H537.65V381.5H521.15V384.5ZM536.15 383V425.75H539.15V383H536.15ZM537.65 427.25H555.35V424.25H537.65V427.25ZM556.85 425.75V383H553.85V425.75H556.85ZM555.35 384.5H571.85V381.5H555.35V384.5ZM570.35 383V488H573.35V383H570.35ZM571.85 486.5H555.35V489.5H571.85V486.5ZM556.85 488V440.75H553.85V488H556.85ZM555.35 439.25H537.65V442.25H555.35V439.25ZM536.15 440.75V488H539.15V440.75H536.15ZM537.65 486.5H521.15V489.5H537.65V486.5ZM522.65 488V383H519.65V488H522.65ZM596.888 383V381.5H595.613L595.408 382.759L596.888 383ZM619.238 383L620.719 382.759L620.514 381.5H619.238V383ZM636.338 488V489.5H638.102L637.819 487.759L636.338 488ZM619.838 488L618.354 488.214L618.539 489.5H619.838V488ZM616.838 467.15L618.323 466.936L615.338 467.15H616.838ZM616.838 467.45V468.95H618.338V467.45H616.838ZM598.088 467.45V465.95H596.791L596.604 467.233L598.088 467.45ZM595.088 488V489.5H596.385L596.573 488.217L595.088 488ZM579.788 488L578.308 487.759L578.024 489.5H579.788V488ZM614.888 453.2V454.7H616.616L616.373 452.99L614.888 453.2ZM607.538 401.3L609.023 401.09L608.841 399.8H607.538V401.3ZM607.238 401.3V399.8H605.932L605.753 401.094L607.238 401.3ZM600.038 453.2L598.553 452.994L598.316 454.7H600.038V453.2ZM596.888 384.5H619.238V381.5H596.888V384.5ZM617.758 383.241L634.858 488.241L637.819 487.759L620.719 382.759L617.758 383.241ZM636.338 486.5H619.838V489.5H636.338V486.5ZM621.323 487.786L618.323 466.936L615.354 467.364L618.354 488.214L621.323 487.786ZM615.338 467.15V467.45H618.338V467.15H615.338ZM616.838 465.95H598.088V468.95H616.838V465.95ZM596.604 467.233L593.604 487.783L596.573 488.217L599.573 467.667L596.604 467.233ZM595.088 486.5H579.788V489.5H595.088V486.5ZM581.269 488.241L598.369 383.241L595.408 382.759L578.308 487.759L581.269 488.241ZM616.373 452.99L609.023 401.09L606.053 401.51L613.403 453.41L616.373 452.99ZM607.538 399.8H607.238V402.8H607.538V399.8ZM605.753 401.094L598.553 452.994L601.524 453.406L608.724 401.506L605.753 401.094ZM600.038 454.7H614.888V451.7H600.038V454.7ZM644.343 383V381.5H642.843V383H644.343ZM660.843 383H662.343V381.5H660.843V383ZM660.843 427.25H659.343L662.198 427.893L660.843 427.25ZM681.843 383V381.5H680.895L680.488 382.357L681.843 383ZM698.343 383L699.68 383.681L700.792 381.5H698.343V383ZM678.693 421.55L677.357 420.869L677.084 421.405L677.257 421.981L678.693 421.55ZM698.643 488V489.5H700.66L700.08 487.569L698.643 488ZM681.393 488L679.956 488.428L680.275 489.5H681.393V488ZM667.443 441.2L668.881 440.772L667.79 437.113L666.099 440.535L667.443 441.2ZM660.843 454.55L659.499 453.885L659.343 454.199V454.55H660.843ZM660.843 488V489.5H662.343V488H660.843ZM644.343 488H642.843V489.5H644.343V488ZM644.343 384.5H660.843V381.5H644.343V384.5ZM659.343 383V427.25H662.343V383H659.343ZM662.198 427.893L683.198 383.643L680.488 382.357L659.488 426.607L662.198 427.893ZM681.843 384.5H698.343V381.5H681.843V384.5ZM697.007 382.319L677.357 420.869L680.03 422.231L699.68 383.681L697.007 382.319ZM677.257 421.981L697.207 488.431L700.08 487.569L680.13 421.119L677.257 421.981ZM698.643 486.5H681.393V489.5H698.643V486.5ZM682.831 487.572L668.881 440.772L666.006 441.628L679.956 488.428L682.831 487.572ZM666.099 440.535L659.499 453.885L662.188 455.215L668.788 441.865L666.099 440.535ZM659.343 454.55V488H662.343V454.55H659.343ZM660.843 486.5H644.343V489.5H660.843V486.5ZM645.843 488V383H642.843V488H645.843ZM706.453 383V381.5H704.953V383H706.453ZM722.953 383H724.453V381.5H722.953V383ZM722.953 427.25H721.453L724.308 427.893L722.953 427.25ZM743.953 383V381.5H743.004L742.598 382.357L743.953 383ZM760.453 383L761.789 383.681L762.901 381.5H760.453V383ZM740.803 421.55L739.466 420.869L739.193 421.405L739.366 421.981L740.803 421.55ZM760.753 488V489.5H762.769L762.189 487.569L760.753 488ZM743.503 488L742.065 488.428L742.385 489.5H743.503V488ZM729.553 441.2L730.99 440.772L729.9 437.113L728.208 440.535L729.553 441.2ZM722.953 454.55L721.608 453.885L721.453 454.199V454.55H722.953ZM722.953 488V489.5H724.453V488H722.953ZM706.453 488H704.953V489.5H706.453V488ZM706.453 384.5H722.953V381.5H706.453V384.5ZM721.453 383V427.25H724.453V383H721.453ZM724.308 427.893L745.308 383.643L742.598 382.357L721.598 426.607L724.308 427.893ZM743.953 384.5H760.453V381.5H743.953V384.5ZM759.116 382.319L739.466 420.869L742.139 422.231L761.789 383.681L759.116 382.319ZM739.366 421.981L759.316 488.431L762.189 487.569L742.239 421.119L739.366 421.981ZM760.753 486.5H743.503V489.5H760.753V486.5ZM744.94 487.572L730.99 440.772L728.115 441.628L742.065 488.428L744.94 487.572ZM728.208 440.535L721.608 453.885L724.297 455.215L730.897 441.865L728.208 440.535ZM721.453 454.55V488H724.453V454.55H721.453ZM722.953 486.5H706.453V489.5H722.953V486.5ZM707.953 488V383H704.953V488H707.953ZM768.562 383V381.5H767.062V383H768.562ZM785.062 383H786.562V381.5H785.062V383ZM785.062 488V489.5H786.562V488H785.062ZM768.562 488H767.062V489.5H768.562V488ZM768.562 384.5H785.062V381.5H768.562V384.5ZM783.562 383V488H786.562V383H783.562ZM785.062 486.5H768.562V489.5H785.062V486.5ZM770.062 488V383H767.062V488H770.062ZM797.42 383V381.5H795.92V383H797.42ZM820.97 383L822.455 382.792L822.275 381.5H820.97V383ZM831.47 458.15L829.984 458.358L830.165 459.65H831.47V458.15ZM831.77 458.15V459.65H833.075L833.255 458.358L831.77 458.15ZM842.27 383V381.5H840.965L840.784 382.792L842.27 383ZM865.82 383H867.32V381.5H865.82V383ZM865.82 488V489.5H867.32V488H865.82ZM850.22 488H848.72V489.5H850.22V488ZM850.22 408.5H851.72V407H850.22V408.5ZM849.92 408.5V407H848.629L848.436 408.276L849.92 408.5ZM837.92 488V489.5H839.21L839.403 488.224L837.92 488ZM824.12 488L822.636 488.224L822.829 489.5H824.12V488ZM812.12 408.5L813.603 408.276L813.41 407H812.12V408.5ZM811.82 408.5V407H810.32V408.5H811.82ZM811.82 488V489.5H813.32V488H811.82ZM797.42 488H795.92V489.5H797.42V488ZM797.42 384.5H820.97V381.5H797.42V384.5ZM819.484 383.208L829.984 458.358L832.955 457.942L822.455 382.792L819.484 383.208ZM831.47 459.65H831.77V456.65H831.47V459.65ZM833.255 458.358L843.755 383.208L840.784 382.792L830.284 457.942L833.255 458.358ZM842.27 384.5H865.82V381.5H842.27V384.5ZM864.32 383V488H867.32V383H864.32ZM865.82 486.5H850.22V489.5H865.82V486.5ZM851.72 488V408.5H848.72V488H851.72ZM850.22 407H849.92V410H850.22V407ZM848.436 408.276L836.436 487.776L839.403 488.224L851.403 408.724L848.436 408.276ZM837.92 486.5H824.12V489.5H837.92V486.5ZM825.603 487.776L813.603 408.276L810.636 408.724L822.636 488.224L825.603 487.776ZM812.12 407H811.82V410H812.12V407ZM810.32 408.5V488H813.32V408.5H810.32ZM811.82 486.5H797.42V489.5H811.82V486.5ZM798.92 488V383H795.92V488H798.92ZM878.132 383V381.5H876.632V383H878.132ZM894.632 383H896.132V381.5H894.632V383ZM894.632 488V489.5H896.132V488H894.632ZM878.132 488H876.632V489.5H878.132V488ZM878.132 384.5H894.632V381.5H878.132V384.5ZM893.132 383V488H896.132V383H893.132ZM894.632 486.5H878.132V489.5H894.632V486.5ZM879.632 488V383H876.632V488H879.632ZM903.69 473.3L902.3 472.735L902.19 473.007V473.3H903.69ZM934.29 398L935.679 398.565L936.519 396.5H934.29V398ZM905.19 398H903.69V399.5H905.19V398ZM905.19 383V381.5H903.69V383H905.19ZM951.99 383H953.49V381.5H951.99V383ZM951.99 397.7L953.379 398.265L953.49 397.993V397.7H951.99ZM921.39 473L920 472.435L919.161 474.5H921.39V473ZM951.99 473H953.49V471.5H951.99V473ZM951.99 488V489.5H953.49V488H951.99ZM903.69 488H902.19V489.5H903.69V488ZM905.079 473.865L935.679 398.565L932.9 397.435L902.3 472.735L905.079 473.865ZM934.29 396.5H905.19V399.5H934.29V396.5ZM906.69 398V383H903.69V398H906.69ZM905.19 384.5H951.99V381.5H905.19V384.5ZM950.49 383V397.7H953.49V383H950.49ZM950.6 397.135L920 472.435L922.779 473.565L953.379 398.265L950.6 397.135ZM921.39 474.5H951.99V471.5H921.39V474.5ZM950.49 473V488H953.49V473H950.49ZM951.99 486.5H903.69V489.5H951.99V486.5ZM905.19 488V473.3H902.19V488H905.19ZM961.336 383V381.5H959.836V383H961.336ZM1004.99 389.6L1003.89 390.623L1003.89 390.623L1004.99 389.6ZM961.336 488H959.836V489.5H961.336V488ZM992.386 470.6L991.291 469.574L991.274 469.593L991.257 469.612L992.386 470.6ZM992.386 400.4L991.257 401.388L991.274 401.407L991.291 401.426L992.386 400.4ZM977.836 398V396.5H976.336V398H977.836ZM977.836 473H976.336V474.5H977.836V473ZM961.336 384.5H986.536V381.5H961.336V384.5ZM986.536 384.5C994.476 384.5 1000.16 386.625 1003.89 390.623L1006.08 388.577C1001.61 383.775 994.995 381.5 986.536 381.5V384.5ZM1003.89 390.623C1007.64 394.648 1009.64 400.673 1009.64 408.95H1012.64C1012.64 400.227 1010.53 393.352 1006.08 388.577L1003.89 390.623ZM1009.64 408.95V462.05H1012.64V408.95H1009.64ZM1009.64 462.05C1009.64 470.327 1007.64 476.352 1003.89 480.377L1006.08 482.423C1010.53 477.648 1012.64 470.773 1012.64 462.05H1009.64ZM1003.89 480.377C1000.16 484.375 994.476 486.5 986.536 486.5V489.5C994.995 489.5 1001.61 487.225 1006.08 482.423L1003.89 480.377ZM986.536 486.5H961.336V489.5H986.536V486.5ZM962.836 488V383H959.836V488H962.836ZM986.236 474.5C989.243 474.5 991.756 473.597 993.514 471.588L991.257 469.612C990.215 470.803 988.628 471.5 986.236 471.5V474.5ZM993.48 471.626C995.364 469.616 996.136 466.551 996.136 462.8H993.136C993.136 466.249 992.407 468.384 991.291 469.574L993.48 471.626ZM996.136 462.8V408.2H993.136V462.8H996.136ZM996.136 408.2C996.136 404.449 995.364 401.384 993.48 399.374L991.291 401.426C992.407 402.616 993.136 404.751 993.136 408.2H996.136ZM993.514 399.412C991.756 397.403 989.243 396.5 986.236 396.5V399.5C988.628 399.5 990.215 400.197 991.257 401.388L993.514 399.412ZM986.236 396.5H977.836V399.5H986.236V396.5ZM976.336 398V473H979.336V398H976.336ZM977.836 474.5H986.236V471.5H977.836V474.5ZM1034.73 383V381.5H1033.45L1033.25 382.759L1034.73 383ZM1057.08 383L1058.56 382.759L1058.36 381.5H1057.08V383ZM1074.18 488V489.5H1075.94L1075.66 487.759L1074.18 488ZM1057.68 488L1056.2 488.214L1056.38 489.5H1057.68V488ZM1054.68 467.15L1056.16 466.936L1053.18 467.15H1054.68ZM1054.68 467.45V468.95H1056.18V467.45H1054.68ZM1035.93 467.45V465.95H1034.63L1034.45 467.233L1035.93 467.45ZM1032.93 488V489.5H1034.23L1034.41 488.217L1032.93 488ZM1017.63 488L1016.15 487.759L1015.87 489.5H1017.63V488ZM1052.73 453.2V454.7H1054.46L1054.22 452.99L1052.73 453.2ZM1045.38 401.3L1046.87 401.09L1046.68 399.8H1045.38V401.3ZM1045.08 401.3V399.8H1043.77L1043.59 401.094L1045.08 401.3ZM1037.88 453.2L1036.39 452.994L1036.16 454.7H1037.88V453.2ZM1034.73 384.5H1057.08V381.5H1034.73V384.5ZM1055.6 383.241L1072.7 488.241L1075.66 487.759L1058.56 382.759L1055.6 383.241ZM1074.18 486.5H1057.68V489.5H1074.18V486.5ZM1059.16 487.786L1056.16 466.936L1053.2 467.364L1056.2 488.214L1059.16 487.786ZM1053.18 467.15V467.45H1056.18V467.15H1053.18ZM1054.68 465.95H1035.93V468.95H1054.68V465.95ZM1034.45 467.233L1031.45 487.783L1034.41 488.217L1037.41 467.667L1034.45 467.233ZM1032.93 486.5H1017.63V489.5H1032.93V486.5ZM1019.11 488.241L1036.21 383.241L1033.25 382.759L1016.15 487.759L1019.11 488.241ZM1054.22 452.99L1046.87 401.09L1043.89 401.51L1051.24 453.41L1054.22 452.99ZM1045.38 399.8H1045.08V402.8H1045.38V399.8ZM1043.59 401.094L1036.39 452.994L1039.37 453.406L1046.57 401.506L1043.59 401.094ZM1037.88 454.7H1052.73V451.7H1037.88V454.7Z" fill="white"/>
<rect x="515" y="352" width="696" height="83" fill="black"/>
<path d="M521.15 323V321.5H519.65V323H521.15ZM537.65 323H539.15V321.5H537.65V323ZM537.65 365.75H536.15V367.25H537.65V365.75ZM555.35 365.75V367.25H556.85V365.75H555.35ZM555.35 323V321.5H553.85V323H555.35ZM571.85 323H573.35V321.5H571.85V323ZM571.85 428V429.5H573.35V428H571.85ZM555.35 428H553.85V429.5H555.35V428ZM555.35 380.75H556.85V379.25H555.35V380.75ZM537.65 380.75V379.25H536.15V380.75H537.65ZM537.65 428V429.5H539.15V428H537.65ZM521.15 428H519.65V429.5H521.15V428ZM521.15 324.5H537.65V321.5H521.15V324.5ZM536.15 323V365.75H539.15V323H536.15ZM537.65 367.25H555.35V364.25H537.65V367.25ZM556.85 365.75V323H553.85V365.75H556.85ZM555.35 324.5H571.85V321.5H555.35V324.5ZM570.35 323V428H573.35V323H570.35ZM571.85 426.5H555.35V429.5H571.85V426.5ZM556.85 428V380.75H553.85V428H556.85ZM555.35 379.25H537.65V382.25H555.35V379.25ZM536.15 380.75V428H539.15V380.75H536.15ZM537.65 426.5H521.15V429.5H537.65V426.5ZM522.65 428V323H519.65V428H522.65ZM596.888 323V321.5H595.613L595.408 322.759L596.888 323ZM619.238 323L620.719 322.759L620.514 321.5H619.238V323ZM636.338 428V429.5H638.102L637.819 427.759L636.338 428ZM619.838 428L618.354 428.214L618.539 429.5H619.838V428ZM616.838 407.15L618.323 406.936L615.338 407.15H616.838ZM616.838 407.45V408.95H618.338V407.45H616.838ZM598.088 407.45V405.95H596.791L596.604 407.233L598.088 407.45ZM595.088 428V429.5H596.385L596.573 428.217L595.088 428ZM579.788 428L578.308 427.759L578.024 429.5H579.788V428ZM614.888 393.2V394.7H616.616L616.373 392.99L614.888 393.2ZM607.538 341.3L609.023 341.09L608.841 339.8H607.538V341.3ZM607.238 341.3V339.8H605.932L605.753 341.094L607.238 341.3ZM600.038 393.2L598.553 392.994L598.316 394.7H600.038V393.2ZM596.888 324.5H619.238V321.5H596.888V324.5ZM617.758 323.241L634.858 428.241L637.819 427.759L620.719 322.759L617.758 323.241ZM636.338 426.5H619.838V429.5H636.338V426.5ZM621.323 427.786L618.323 406.936L615.354 407.364L618.354 428.214L621.323 427.786ZM615.338 407.15V407.45H618.338V407.15H615.338ZM616.838 405.95H598.088V408.95H616.838V405.95ZM596.604 407.233L593.604 427.783L596.573 428.217L599.573 407.667L596.604 407.233ZM595.088 426.5H579.788V429.5H595.088V426.5ZM581.269 428.241L598.369 323.241L595.408 322.759L578.308 427.759L581.269 428.241ZM616.373 392.99L609.023 341.09L606.053 341.51L613.403 393.41L616.373 392.99ZM607.538 339.8H607.238V342.8H607.538V339.8ZM605.753 341.094L598.553 392.994L601.524 393.406L608.724 341.506L605.753 341.094ZM600.038 394.7H614.888V391.7H600.038V394.7ZM644.343 323V321.5H642.843V323H644.343ZM660.843 323H662.343V321.5H660.843V323ZM660.843 367.25H659.343L662.198 367.893L660.843 367.25ZM681.843 323V321.5H680.895L680.488 322.357L681.843 323ZM698.343 323L699.68 323.681L700.792 321.5H698.343V323ZM678.693 361.55L677.357 360.869L677.084 361.405L677.257 361.981L678.693 361.55ZM698.643 428V429.5H700.66L700.08 427.569L698.643 428ZM681.393 428L679.956 428.428L680.275 429.5H681.393V428ZM667.443 381.2L668.881 380.772L667.79 377.113L666.099 380.535L667.443 381.2ZM660.843 394.55L659.499 393.885L659.343 394.199V394.55H660.843ZM660.843 428V429.5H662.343V428H660.843ZM644.343 428H642.843V429.5H644.343V428ZM644.343 324.5H660.843V321.5H644.343V324.5ZM659.343 323V367.25H662.343V323H659.343ZM662.198 367.893L683.198 323.643L680.488 322.357L659.488 366.607L662.198 367.893ZM681.843 324.5H698.343V321.5H681.843V324.5ZM697.007 322.319L677.357 360.869L680.03 362.231L699.68 323.681L697.007 322.319ZM677.257 361.981L697.207 428.431L700.08 427.569L680.13 361.119L677.257 361.981ZM698.643 426.5H681.393V429.5H698.643V426.5ZM682.831 427.572L668.881 380.772L666.006 381.628L679.956 428.428L682.831 427.572ZM666.099 380.535L659.499 393.885L662.188 395.215L668.788 381.865L666.099 380.535ZM659.343 394.55V428H662.343V394.55H659.343ZM660.843 426.5H644.343V429.5H660.843V426.5ZM645.843 428V323H642.843V428H645.843ZM706.453 323V321.5H704.953V323H706.453ZM722.953 323H724.453V321.5H722.953V323ZM722.953 367.25H721.453L724.308 367.893L722.953 367.25ZM743.953 323V321.5H743.004L742.598 322.357L743.953 323ZM760.453 323L761.789 323.681L762.901 321.5H760.453V323ZM740.803 361.55L739.466 360.869L739.193 361.405L739.366 361.981L740.803 361.55ZM760.753 428V429.5H762.769L762.189 427.569L760.753 428ZM743.503 428L742.065 428.428L742.385 429.5H743.503V428ZM729.553 381.2L730.99 380.772L729.9 377.113L728.208 380.535L729.553 381.2ZM722.953 394.55L721.608 393.885L721.453 394.199V394.55H722.953ZM722.953 428V429.5H724.453V428H722.953ZM706.453 428H704.953V429.5H706.453V428ZM706.453 324.5H722.953V321.5H706.453V324.5ZM721.453 323V367.25H724.453V323H721.453ZM724.308 367.893L745.308 323.643L742.598 322.357L721.598 366.607L724.308 367.893ZM743.953 324.5H760.453V321.5H743.953V324.5ZM759.116 322.319L739.466 360.869L742.139 362.231L761.789 323.681L759.116 322.319ZM739.366 361.981L759.316 428.431L762.189 427.569L742.239 361.119L739.366 361.981ZM760.753 426.5H743.503V429.5H760.753V426.5ZM744.94 427.572L730.99 380.772L728.115 381.628L742.065 428.428L744.94 427.572ZM728.208 380.535L721.608 393.885L724.297 395.215L730.897 381.865L728.208 380.535ZM721.453 394.55V428H724.453V394.55H721.453ZM722.953 426.5H706.453V429.5H722.953V426.5ZM707.953 428V323H704.953V428H707.953ZM768.562 323V321.5H767.062V323H768.562ZM785.062 323H786.562V321.5H785.062V323ZM785.062 428V429.5H786.562V428H785.062ZM768.562 428H767.062V429.5H768.562V428ZM768.562 324.5H785.062V321.5H768.562V324.5ZM783.562 323V428H786.562V323H783.562ZM785.062 426.5H768.562V429.5H785.062V426.5ZM770.062 428V323H767.062V428H770.062ZM797.42 323V321.5H795.92V323H797.42ZM820.97 323L822.455 322.792L822.275 321.5H820.97V323ZM831.47 398.15L829.984 398.358L830.165 399.65H831.47V398.15ZM831.77 398.15V399.65H833.075L833.255 398.358L831.77 398.15ZM842.27 323V321.5H840.965L840.784 322.792L842.27 323ZM865.82 323H867.32V321.5H865.82V323ZM865.82 428V429.5H867.32V428H865.82ZM850.22 428H848.72V429.5H850.22V428ZM850.22 348.5H851.72V347H850.22V348.5ZM849.92 348.5V347H848.629L848.436 348.276L849.92 348.5ZM837.92 428V429.5H839.21L839.403 428.224L837.92 428ZM824.12 428L822.636 428.224L822.829 429.5H824.12V428ZM812.12 348.5L813.603 348.276L813.41 347H812.12V348.5ZM811.82 348.5V347H810.32V348.5H811.82ZM811.82 428V429.5H813.32V428H811.82ZM797.42 428H795.92V429.5H797.42V428ZM797.42 324.5H820.97V321.5H797.42V324.5ZM819.484 323.208L829.984 398.358L832.955 397.942L822.455 322.792L819.484 323.208ZM831.47 399.65H831.77V396.65H831.47V399.65ZM833.255 398.358L843.755 323.208L840.784 322.792L830.284 397.942L833.255 398.358ZM842.27 324.5H865.82V321.5H842.27V324.5ZM864.32 323V428H867.32V323H864.32ZM865.82 426.5H850.22V429.5H865.82V426.5ZM851.72 428V348.5H848.72V428H851.72ZM850.22 347H849.92V350H850.22V347ZM848.436 348.276L836.436 427.776L839.403 428.224L851.403 348.724L848.436 348.276ZM837.92 426.5H824.12V429.5H837.92V426.5ZM825.603 427.776L813.603 348.276L810.636 348.724L822.636 428.224L825.603 427.776ZM812.12 347H811.82V350H812.12V347ZM810.32 348.5V428H813.32V348.5H810.32ZM811.82 426.5H797.42V429.5H811.82V426.5ZM798.92 428V323H795.92V428H798.92ZM878.132 323V321.5H876.632V323H878.132ZM894.632 323H896.132V321.5H894.632V323ZM894.632 428V429.5H896.132V428H894.632ZM878.132 428H876.632V429.5H878.132V428ZM878.132 324.5H894.632V321.5H878.132V324.5ZM893.132 323V428H896.132V323H893.132ZM894.632 426.5H878.132V429.5H894.632V426.5ZM879.632 428V323H876.632V428H879.632ZM903.69 413.3L902.3 412.735L902.19 413.007V413.3H903.69ZM934.29 338L935.679 338.565L936.519 336.5H934.29V338ZM905.19 338H903.69V339.5H905.19V338ZM905.19 323V321.5H903.69V323H905.19ZM951.99 323H953.49V321.5H951.99V323ZM951.99 337.7L953.379 338.265L953.49 337.993V337.7H951.99ZM921.39 413L920 412.435L919.161 414.5H921.39V413ZM951.99 413H953.49V411.5H951.99V413ZM951.99 428V429.5H953.49V428H951.99ZM903.69 428H902.19V429.5H903.69V428ZM905.079 413.865L935.679 338.565L932.9 337.435L902.3 412.735L905.079 413.865ZM934.29 336.5H905.19V339.5H934.29V336.5ZM906.69 338V323H903.69V338H906.69ZM905.19 324.5H951.99V321.5H905.19V324.5ZM950.49 323V337.7H953.49V323H950.49ZM950.6 337.135L920 412.435L922.779 413.565L953.379 338.265L950.6 337.135ZM921.39 414.5H951.99V411.5H921.39V414.5ZM950.49 413V428H953.49V413H950.49ZM951.99 426.5H903.69V429.5H951.99V426.5ZM905.19 428V413.3H902.19V428H905.19ZM961.336 323V321.5H959.836V323H961.336ZM1004.99 329.6L1003.89 330.623L1003.89 330.623L1004.99 329.6ZM961.336 428H959.836V429.5H961.336V428ZM992.386 410.6L991.291 409.574L991.274 409.593L991.257 409.612L992.386 410.6ZM992.386 340.4L991.257 341.388L991.274 341.407L991.291 341.426L992.386 340.4ZM977.836 338V336.5H976.336V338H977.836ZM977.836 413H976.336V414.5H977.836V413ZM961.336 324.5H986.536V321.5H961.336V324.5ZM986.536 324.5C994.476 324.5 1000.16 326.625 1003.89 330.623L1006.08 328.577C1001.61 323.775 994.995 321.5 986.536 321.5V324.5ZM1003.89 330.623C1007.64 334.648 1009.64 340.673 1009.64 348.95H1012.64C1012.64 340.227 1010.53 333.352 1006.08 328.577L1003.89 330.623ZM1009.64 348.95V402.05H1012.64V348.95H1009.64ZM1009.64 402.05C1009.64 410.327 1007.64 416.352 1003.89 420.377L1006.08 422.423C1010.53 417.648 1012.64 410.773 1012.64 402.05H1009.64ZM1003.89 420.377C1000.16 424.375 994.476 426.5 986.536 426.5V429.5C994.995 429.5 1001.61 427.225 1006.08 422.423L1003.89 420.377ZM986.536 426.5H961.336V429.5H986.536V426.5ZM962.836 428V323H959.836V428H962.836ZM986.236 414.5C989.243 414.5 991.756 413.597 993.514 411.588L991.257 409.612C990.215 410.803 988.628 411.5 986.236 411.5V414.5ZM993.48 411.626C995.364 409.616 996.136 406.551 996.136 402.8H993.136C993.136 406.249 992.407 408.384 991.291 409.574L993.48 411.626ZM996.136 402.8V348.2H993.136V402.8H996.136ZM996.136 348.2C996.136 344.449 995.364 341.384 993.48 339.374L991.291 341.426C992.407 342.616 993.136 344.751 993.136 348.2H996.136ZM993.514 339.412C991.756 337.403 989.243 336.5 986.236 336.5V339.5C988.628 339.5 990.215 340.197 991.257 341.388L993.514 339.412ZM986.236 336.5H977.836V339.5H986.236V336.5ZM976.336 338V413H979.336V338H976.336ZM977.836 414.5H986.236V411.5H977.836V414.5ZM1034.73 323V321.5H1033.45L1033.25 322.759L1034.73 323ZM1057.08 323L1058.56 322.759L1058.36 321.5H1057.08V323ZM1074.18 428V429.5H1075.94L1075.66 427.759L1074.18 428ZM1057.68 428L1056.2 428.214L1056.38 429.5H1057.68V428ZM1054.68 407.15L1056.16 406.936L1053.18 407.15H1054.68ZM1054.68 407.45V408.95H1056.18V407.45H1054.68ZM1035.93 407.45V405.95H1034.63L1034.45 407.233L1035.93 407.45ZM1032.93 428V429.5H1034.23L1034.41 428.217L1032.93 428ZM1017.63 428L1016.15 427.759L1015.87 429.5H1017.63V428ZM1052.73 393.2V394.7H1054.46L1054.22 392.99L1052.73 393.2ZM1045.38 341.3L1046.87 341.09L1046.68 339.8H1045.38V341.3ZM1045.08 341.3V339.8H1043.77L1043.59 341.094L1045.08 341.3ZM1037.88 393.2L1036.39 392.994L1036.16 394.7H1037.88V393.2ZM1034.73 324.5H1057.08V321.5H1034.73V324.5ZM1055.6 323.241L1072.7 428.241L1075.66 427.759L1058.56 322.759L1055.6 323.241ZM1074.18 426.5H1057.68V429.5H1074.18V426.5ZM1059.16 427.786L1056.16 406.936L1053.2 407.364L1056.2 428.214L1059.16 427.786ZM1053.18 407.15V407.45H1056.18V407.15H1053.18ZM1054.68 405.95H1035.93V408.95H1054.68V405.95ZM1034.45 407.233L1031.45 427.783L1034.41 428.217L1037.41 407.667L1034.45 407.233ZM1032.93 426.5H1017.63V429.5H1032.93V426.5ZM1019.11 428.241L1036.21 323.241L1033.25 322.759L1016.15 427.759L1019.11 428.241ZM1054.22 392.99L1046.87 341.09L1043.89 341.51L1051.24 393.41L1054.22 392.99ZM1045.38 339.8H1045.08V342.8H1045.38V339.8ZM1043.59 341.094L1036.39 392.994L1039.37 393.406L1046.57 341.506L1043.59 341.094ZM1037.88 394.7H1052.73V391.7H1037.88V394.7Z" fill="white"/>
<rect x="515" y="292" width="696" height="77" fill="black"/>
<path d="M521.15 259H537.65V301.75H555.35V259H571.85V364H555.35V316.75H537.65V364H521.15V259ZM596.888 259H619.238L636.338 364H619.838L616.838 343.15V343.45H598.088L595.088 364H579.788L596.888 259ZM614.888 329.2L607.538 277.3H607.238L600.038 329.2H614.888ZM644.343 259H660.843V303.25L681.843 259H698.343L678.693 297.55L698.643 364H681.393L667.443 317.2L660.843 330.55V364H644.343V259ZM706.453 259H722.953V303.25L743.953 259H760.453L740.803 297.55L760.753 364H743.503L729.553 317.2L722.953 330.55V364H706.453V259ZM768.562 259H785.062V364H768.562V259ZM797.42 259H820.97L831.47 334.15H831.77L842.27 259H865.82V364H850.22V284.5H849.92L837.92 364H824.12L812.12 284.5H811.82V364H797.42V259ZM878.132 259H894.632V364H878.132V259ZM903.69 349.3L934.29 274H905.19V259H951.99V273.7L921.39 349H951.99V364H903.69V349.3ZM961.336 259H986.536C994.736 259 1000.89 261.2 1004.99 265.6C1009.09 270 1011.14 276.45 1011.14 284.95V338.05C1011.14 346.55 1009.09 353 1004.99 357.4C1000.89 361.8 994.736 364 986.536 364H961.336V259ZM986.236 349C988.936 349 990.986 348.2 992.386 346.6C993.886 345 994.636 342.4 994.636 338.8V284.2C994.636 280.6 993.886 278 992.386 276.4C990.986 274.8 988.936 274 986.236 274H977.836V349H986.236ZM1034.73 259H1057.08L1074.18 364H1057.68L1054.68 343.15V343.45H1035.93L1032.93 364H1017.63L1034.73 259ZM1052.73 329.2L1045.38 277.3H1045.08L1037.88 329.2H1052.73Z" fill="#ECC41C"/>
<path d="M-1 361C-1 361 5.5 361 44 361C82.5 361 107.5 229.5 132.5 229.5C157.5 229.5 192.5 480.5 217.5 480.5C242.5 480.5 266.5 293.5 279.5 293.5C292.5 293.5 302 366 317 366C332 366 347 318 363.5 318C380 318 395.5 492 417 492C438.5 492 441.5 359 467.5 359C493.5 359 523 359 523 359" stroke="#ECC41C" stroke-width="10"/>
</g>
<defs>
<clipPath id="clip0">
<rect width="1920" height="650" fill="white"/>
</clipPath>
</defs>
</svg>
