<svg width="1920" height="550" viewBox="0 0 1920 550" fill="none" xmlns="http://www.w3.org/2000/svg">
<g clip-path="url(#clip0)">
<g filter="url(#filter0_d)">
<path d="M521.15 206H537.65V248.75H555.35V206H571.85V311H555.35V263.75H537.65V311H521.15V206ZM596.888 206H619.238L636.338 311H619.838L616.838 290.15V290.45H598.088L595.088 311H579.788L596.888 206ZM614.888 276.2L607.538 224.3H607.238L600.038 276.2H614.888ZM644.343 206H660.843V250.25L681.843 206H698.343L678.693 244.55L698.643 311H681.393L667.443 264.2L660.843 277.55V311H644.343V206ZM706.453 206H722.953V250.25L743.953 206H760.453L740.803 244.55L760.753 311H743.503L729.553 264.2L722.953 277.55V311H706.453V206ZM768.562 206H785.062V311H768.562V206ZM797.42 206H820.97L831.47 281.15H831.77L842.27 206H865.82V311H850.22V231.5H849.92L837.92 311H824.12L812.12 231.5H811.82V311H797.42V206ZM878.132 206H894.632V311H878.132V206ZM903.69 296.3L934.29 221H905.19V206H951.99V220.7L921.39 296H951.99V311H903.69V296.3ZM961.336 206H986.536C994.736 206 1000.89 208.2 1004.99 212.6C1009.09 217 1011.14 223.45 1011.14 231.95V285.05C1011.14 293.55 1009.09 300 1004.99 304.4C1000.89 308.8 994.736 311 986.536 311H961.336V206ZM986.236 296C988.936 296 990.986 295.2 992.386 293.6C993.886 292 994.636 289.4 994.636 285.8V231.2C994.636 227.6 993.886 225 992.386 223.4C990.986 221.8 988.936 221 986.236 221H977.836V296H986.236ZM1034.73 206H1057.08L1074.18 311H1057.68L1054.68 290.15V290.45H1035.93L1032.93 311H1017.63L1034.73 206ZM1052.73 276.2L1045.38 224.3H1045.08L1037.88 276.2H1052.73Z" fill="black"/>
</g>
<g filter="url(#filter1_d)">
<path d="M-1 311C-1 311 5.5 311 44 311C82.5 311 107.5 179.5 132.5 179.5C157.5 179.5 192.5 430.5 217.5 430.5C242.5 430.5 266.5 243.5 279.5 243.5C292.5 243.5 302 316 317 316C332 316 347 268 363.5 268C380 268 395.5 442 417 442C438.5 442 441.5 309 467.5 309C493.5 309 523 309 523 309" stroke="black" stroke-width="4"/>
</g>
<g filter="url(#filter2_d)">
<rect x="1090" y="205" width="31" height="31" fill="#EAC61C"/>
</g>
</g>
<defs>
<filter id="filter0_d" x="521.15" y="206" width="606.03" height="188" filterUnits="userSpaceOnUse" color-interpolation-filters="sRGB">
<feFlood flood-opacity="0" result="BackgroundImageFix"/>
<feColorMatrix in="SourceAlpha" type="matrix" values="0 0 0 0 0 0 0 0 0 0 0 0 0 0 0 0 0 0 127 0" result="hardAlpha"/>
<feOffset dx="31" dy="61"/>
<feGaussianBlur stdDeviation="11"/>
<feComposite in2="hardAlpha" operator="out"/>
<feColorMatrix type="matrix" values="0 0 0 0 0 0 0 0 0 0 0 0 0 0 0 0 0 0 0.15 0"/>
<feBlend mode="normal" in2="BackgroundImageFix" result="effect1_dropShadow"/>
<feBlend mode="normal" in="SourceGraphic" in2="effect1_dropShadow" result="shape"/>
</filter>
<filter id="filter1_d" x="-1" y="177.5" width="577" height="349.5" filterUnits="userSpaceOnUse" color-interpolation-filters="sRGB">
<feFlood flood-opacity="0" result="BackgroundImageFix"/>
<feColorMatrix in="SourceAlpha" type="matrix" values="0 0 0 0 0 0 0 0 0 0 0 0 0 0 0 0 0 0 127 0" result="hardAlpha"/>
<feOffset dx="31" dy="61"/>
<feGaussianBlur stdDeviation="11"/>
<feComposite in2="hardAlpha" operator="out"/>
<feColorMatrix type="matrix" values="0 0 0 0 0 0 0 0 0 0 0 0 0 0 0 0 0 0 0.25 0"/>
<feBlend mode="normal" in2="BackgroundImageFix" result="effect1_dropShadow"/>
<feBlend mode="normal" in="SourceGraphic" in2="effect1_dropShadow" result="shape"/>
</filter>
<filter id="filter2_d" x="1090" y="205" width="84" height="114" filterUnits="userSpaceOnUse" color-interpolation-filters="sRGB">
<feFlood flood-opacity="0" result="BackgroundImageFix"/>
<feColorMatrix in="SourceAlpha" type="matrix" values="0 0 0 0 0 0 0 0 0 0 0 0 0 0 0 0 0 0 127 0" result="hardAlpha"/>
<feOffset dx="31" dy="61"/>
<feGaussianBlur stdDeviation="11"/>
<feComposite in2="hardAlpha" operator="out"/>
<feColorMatrix type="matrix" values="0 0 0 0 0 0 0 0 0 0 0 0 0 0 0 0 0 0 0.15 0"/>
<feBlend mode="normal" in2="BackgroundImageFix" result="effect1_dropShadow"/>
<feBlend mode="normal" in="SourceGraphic" in2="effect1_dropShadow" result="shape"/>
</filter>
<clipPath id="clip0">
<rect width="1920" height="550" fill="white"/>
</clipPath>
</defs>
</svg>
