<svg width="1920" height="650" viewBox="0 0 1920 650" fill="none" xmlns="http://www.w3.org/2000/svg">
<g clip-path="url(#clip0)">
<rect width="1920" height="650" fill="black"/>
<path d="M521.15 459V457.5H519.65V459H521.15ZM537.65 459H539.15V457.5H537.65V459ZM537.65 501.75H536.15V503.25H537.65V501.75ZM555.35 501.75V503.25H556.85V501.75H555.35ZM555.35 459V457.5H553.85V459H555.35ZM571.85 459H573.35V457.5H571.85V459ZM571.85 564V565.5H573.35V564H571.85ZM555.35 564H553.85V565.5H555.35V564ZM555.35 516.75H556.85V515.25H555.35V516.75ZM537.65 516.75V515.25H536.15V516.75H537.65ZM537.65 564V565.5H539.15V564H537.65ZM521.15 564H519.65V565.5H521.15V564ZM521.15 460.5H537.65V457.5H521.15V460.5ZM536.15 459V501.75H539.15V459H536.15ZM537.65 503.25H555.35V500.25H537.65V503.25ZM556.85 501.75V459H553.85V501.75H556.85ZM555.35 460.5H571.85V457.5H555.35V460.5ZM570.35 459V564H573.35V459H570.35ZM571.85 562.5H555.35V565.5H571.85V562.5ZM556.85 564V516.75H553.85V564H556.85ZM555.35 515.25H537.65V518.25H555.35V515.25ZM536.15 516.75V564H539.15V516.75H536.15ZM537.65 562.5H521.15V565.5H537.65V562.5ZM522.65 564V459H519.65V564H522.65ZM584.138 459V457.5H582.638V459H584.138ZM600.638 459H602.138V457.5H600.638V459ZM600.638 564V565.5H602.138V564H600.638ZM584.138 564H582.638V565.5H584.138V564ZM584.888 436.65V435.15H583.388V436.65H584.888ZM599.888 436.65H601.388V435.15H599.888V436.65ZM599.888 451.95V453.45H601.388V451.95H599.888ZM584.888 451.95H583.388V453.45H584.888V451.95ZM584.138 460.5H600.638V457.5H584.138V460.5ZM599.138 459V564H602.138V459H599.138ZM600.638 562.5H584.138V565.5H600.638V562.5ZM585.638 564V459H582.638V564H585.638ZM584.888 438.15H599.888V435.15H584.888V438.15ZM598.388 436.65V451.95H601.388V436.65H598.388ZM599.888 450.45H584.888V453.45H599.888V450.45ZM586.388 451.95V436.65H583.388V451.95H586.388ZM609.696 549.3L608.306 548.735L608.196 549.007V549.3H609.696ZM640.296 474L641.685 474.565L642.524 472.5H640.296V474ZM611.196 474H609.696V475.5H611.196V474ZM611.196 459V457.5H609.696V459H611.196ZM657.996 459H659.496V457.5H657.996V459ZM657.996 473.7L659.385 474.265L659.496 473.993V473.7H657.996ZM627.396 549L626.006 548.435L625.167 550.5H627.396V549ZM657.996 549H659.496V547.5H657.996V549ZM657.996 564V565.5H659.496V564H657.996ZM609.696 564H608.196V565.5H609.696V564ZM611.085 549.865L641.685 474.565L638.906 473.435L608.306 548.735L611.085 549.865ZM640.296 472.5H611.196V475.5H640.296V472.5ZM612.696 474V459H609.696V474H612.696ZM611.196 460.5H657.996V457.5H611.196V460.5ZM656.496 459V473.7H659.496V459H656.496ZM656.606 473.135L626.006 548.435L628.785 549.565L659.385 474.265L656.606 473.135ZM627.396 550.5H657.996V547.5H627.396V550.5ZM656.496 549V564H659.496V549H656.496ZM657.996 562.5H609.696V565.5H657.996V562.5ZM611.196 564V549.3H608.196V564H611.196ZM667.341 459V457.5H665.841V459H667.341ZM690.891 459L692.377 458.792L692.196 457.5H690.891V459ZM701.391 534.15L699.906 534.358L700.086 535.65H701.391V534.15ZM701.691 534.15V535.65H702.996L703.177 534.358L701.691 534.15ZM712.191 459V457.5H710.886L710.706 458.792L712.191 459ZM735.741 459H737.241V457.5H735.741V459ZM735.741 564V565.5H737.241V564H735.741ZM720.141 564H718.641V565.5H720.141V564ZM720.141 484.5H721.641V483H720.141V484.5ZM719.841 484.5V483H718.551L718.358 484.276L719.841 484.5ZM707.841 564V565.5H709.132L709.325 564.224L707.841 564ZM694.041 564L692.558 564.224L692.751 565.5H694.041V564ZM682.041 484.5L683.525 484.276L683.332 483H682.041V484.5ZM681.741 484.5V483H680.241V484.5H681.741ZM681.741 564V565.5H683.241V564H681.741ZM667.341 564H665.841V565.5H667.341V564ZM667.341 460.5H690.891V457.5H667.341V460.5ZM689.406 459.208L699.906 534.358L702.877 533.942L692.377 458.792L689.406 459.208ZM701.391 535.65H701.691V532.65H701.391V535.65ZM703.177 534.358L713.677 459.208L710.706 458.792L700.206 533.942L703.177 534.358ZM712.191 460.5H735.741V457.5H712.191V460.5ZM734.241 459V564H737.241V459H734.241ZM735.741 562.5H720.141V565.5H735.741V562.5ZM721.641 564V484.5H718.641V564H721.641ZM720.141 483H719.841V486H720.141V483ZM718.358 484.276L706.358 563.776L709.325 564.224L721.325 484.724L718.358 484.276ZM707.841 562.5H694.041V565.5H707.841V562.5ZM695.525 563.776L683.525 484.276L680.558 484.724L692.558 564.224L695.525 563.776ZM682.041 483H681.741V486H682.041V483ZM680.241 484.5V564H683.241V484.5H680.241ZM681.741 562.5H667.341V565.5H681.741V562.5ZM668.841 564V459H665.841V564H668.841ZM748.054 459V457.5H746.554V459H748.054ZM793.054 459H794.554V457.5H793.054V459ZM793.054 474V475.5H794.554V474H793.054ZM764.554 474V472.5H763.054V474H764.554ZM764.554 501.75H763.054V503.25H764.554V501.75ZM787.204 501.75H788.704V500.25H787.204V501.75ZM787.204 516.75V518.25H788.704V516.75H787.204ZM764.554 516.75V515.25H763.054V516.75H764.554ZM764.554 549H763.054V550.5H764.554V549ZM793.054 549H794.554V547.5H793.054V549ZM793.054 564V565.5H794.554V564H793.054ZM748.054 564H746.554V565.5H748.054V564ZM748.054 460.5H793.054V457.5H748.054V460.5ZM791.554 459V474H794.554V459H791.554ZM793.054 472.5H764.554V475.5H793.054V472.5ZM763.054 474V501.75H766.054V474H763.054ZM764.554 503.25H787.204V500.25H764.554V503.25ZM785.704 501.75V516.75H788.704V501.75H785.704ZM787.204 515.25H764.554V518.25H787.204V515.25ZM763.054 516.75V549H766.054V516.75H763.054ZM764.554 550.5H793.054V547.5H764.554V550.5ZM791.554 549V564H794.554V549H791.554ZM793.054 562.5H748.054V565.5H793.054V562.5ZM749.554 564V459H746.554V564H749.554ZM815.446 474H816.946V472.5H815.446V474ZM798.196 474H796.696V475.5H798.196V474ZM798.196 459V457.5H796.696V459H798.196ZM849.196 459H850.696V457.5H849.196V459ZM849.196 474V475.5H850.696V474H849.196ZM831.946 474V472.5H830.446V474H831.946ZM831.946 564V565.5H833.446V564H831.946ZM815.446 564H813.946V565.5H815.446V564ZM815.446 472.5H798.196V475.5H815.446V472.5ZM799.696 474V459H796.696V474H799.696ZM798.196 460.5H849.196V457.5H798.196V460.5ZM847.696 459V474H850.696V459H847.696ZM849.196 472.5H831.946V475.5H849.196V472.5ZM830.446 474V564H833.446V474H830.446ZM831.946 562.5H815.446V565.5H831.946V562.5ZM816.946 564V474H813.946V564H816.946ZM857.185 459V457.5H855.685V459H857.185ZM873.685 459H875.185V457.5H873.685V459ZM873.685 549H872.185V550.5H873.685V549ZM900.835 549H902.335V547.5H900.835V549ZM900.835 564V565.5H902.335V564H900.835ZM857.185 564H855.685V565.5H857.185V564ZM857.185 460.5H873.685V457.5H857.185V460.5ZM872.185 459V549H875.185V459H872.185ZM873.685 550.5H900.835V547.5H873.685V550.5ZM899.335 549V564H902.335V549H899.335ZM900.835 562.5H857.185V565.5H900.835V562.5ZM858.685 564V459H855.685V564H858.685ZM908.748 459V457.5H907.248V459H908.748ZM953.748 459H955.248V457.5H953.748V459ZM953.748 474V475.5H955.248V474H953.748ZM925.248 474V472.5H923.748V474H925.248ZM925.248 501.75H923.748V503.25H925.248V501.75ZM947.898 501.75H949.398V500.25H947.898V501.75ZM947.898 516.75V518.25H949.398V516.75H947.898ZM925.248 516.75V515.25H923.748V516.75H925.248ZM925.248 549H923.748V550.5H925.248V549ZM953.748 549H955.248V547.5H953.748V549ZM953.748 564V565.5H955.248V564H953.748ZM908.748 564H907.248V565.5H908.748V564ZM908.748 460.5H953.748V457.5H908.748V460.5ZM952.248 459V474H955.248V459H952.248ZM953.748 472.5H925.248V475.5H953.748V472.5ZM923.748 474V501.75H926.748V474H923.748ZM925.248 503.25H947.898V500.25H925.248V503.25ZM946.398 501.75V516.75H949.398V501.75H946.398ZM947.898 515.25H925.248V518.25H947.898V515.25ZM923.748 516.75V549H926.748V516.75H923.748ZM925.248 550.5H953.748V547.5H925.248V550.5ZM952.248 549V564H955.248V549H952.248ZM953.748 562.5H908.748V565.5H953.748V562.5ZM910.248 564V459H907.248V564H910.248ZM963.24 459V457.5H961.74V459H963.24ZM1006.29 465L1005.22 466.047L1005.22 466.054L1005.23 466.061L1006.29 465ZM1001.34 510.3L1000.78 508.909L999.84 509.287V510.3H1001.34ZM1001.34 510.6H999.84V511.716L1000.91 512.037L1001.34 510.6ZM1009.74 517.95L1008.36 518.545L1008.37 518.561L1008.38 518.576L1009.74 517.95ZM1012.59 558.6L1011.1 558.757L1011.1 558.766L1012.59 558.6ZM1014.09 564V565.5H1016.4L1015.46 563.391L1014.09 564ZM997.29 564L995.875 564.499L996.229 565.5H997.29V564ZM993.39 521.85L992.213 522.779L992.227 522.798L992.242 522.816L993.39 521.85ZM979.74 519V517.5H978.24V519H979.74ZM979.74 564V565.5H981.24V564H979.74ZM963.24 564H961.74V565.5H963.24V564ZM993.09 501.45L992.029 500.389L992.013 500.405L991.998 500.422L993.09 501.45ZM993.54 476.55L992.348 477.461L992.365 477.483L992.382 477.504L993.54 476.55ZM979.74 474V472.5H978.24V474H979.74ZM979.74 504H978.24V505.5H979.74V504ZM963.24 460.5H987.69V457.5H963.24V460.5ZM987.69 460.5C995.993 460.5 1001.72 462.458 1005.22 466.047L1007.36 463.953C1003.06 459.542 996.386 457.5 987.69 457.5V460.5ZM1005.23 466.061C1008.74 469.568 1010.64 475.156 1010.64 483.15H1013.64C1013.64 474.744 1011.64 468.232 1007.35 463.939L1005.23 466.061ZM1010.64 483.15V489.6H1013.64V483.15H1010.64ZM1010.64 489.6C1010.64 494.9 1009.76 499.089 1008.11 502.256C1006.47 505.39 1004.05 507.592 1000.78 508.909L1001.9 511.691C1005.83 510.108 1008.8 507.41 1010.77 503.644C1012.72 499.911 1013.64 495.2 1013.64 489.6H1010.64ZM999.84 510.3V510.6H1002.84V510.3H999.84ZM1000.91 512.037C1004.5 513.115 1006.95 515.268 1008.36 518.545L1011.12 517.355C1009.33 513.232 1006.18 510.485 1001.77 509.163L1000.91 512.037ZM1008.38 518.576C1009.95 522.004 1010.79 526.714 1010.79 532.8H1013.79C1013.79 526.486 1012.93 521.296 1011.1 517.324L1008.38 518.576ZM1010.79 532.8V551.25H1013.79V532.8H1010.79ZM1010.79 551.25C1010.79 554.277 1010.89 556.784 1011.1 558.757L1014.08 558.443C1013.89 556.616 1013.79 554.223 1013.79 551.25H1010.79ZM1011.1 558.766C1011.32 560.732 1011.86 562.681 1012.72 564.609L1015.46 563.391C1014.72 561.719 1014.26 560.068 1014.08 558.434L1011.1 558.766ZM1014.09 562.5H997.29V565.5H1014.09V562.5ZM998.704 563.501C998.132 561.88 997.761 560.382 997.577 559.002L994.603 559.398C994.819 561.018 995.247 562.72 995.875 564.499L998.704 563.501ZM997.577 559.002C997.391 557.613 997.29 555.005 997.29 551.1H994.29C994.29 554.995 994.388 557.787 994.603 559.398L997.577 559.002ZM997.29 551.1V531.9H994.29V551.1H997.29ZM997.29 531.9C997.29 527.031 996.498 523.212 994.537 520.884L992.242 522.816C993.482 524.288 994.29 527.169 994.29 531.9H997.29ZM994.567 520.921C992.652 518.494 989.435 517.5 985.44 517.5V520.5C989.044 520.5 991.128 521.406 992.213 522.779L994.567 520.921ZM985.44 517.5H979.74V520.5H985.44V517.5ZM978.24 519V564H981.24V519H978.24ZM979.74 562.5H963.24V565.5H979.74V562.5ZM964.74 564V459H961.74V564H964.74ZM985.74 505.5C989.279 505.5 992.198 504.586 994.182 502.478L991.998 500.422C990.782 501.714 988.801 502.5 985.74 502.5V505.5ZM994.151 502.511C996.269 500.392 997.14 497.048 997.14 492.9H994.14C994.14 496.752 993.31 499.108 992.029 500.389L994.151 502.511ZM997.14 492.9V484.8H994.14V492.9H997.14ZM997.14 484.8C997.14 480.881 996.43 477.7 994.698 475.596L992.382 477.504C993.449 478.8 994.14 481.119 994.14 484.8H997.14ZM994.731 475.639C993.054 473.446 990.429 472.5 987.24 472.5V475.5C989.851 475.5 991.425 476.254 992.348 477.461L994.731 475.639ZM987.24 472.5H979.74V475.5H987.24V472.5ZM978.24 474V504H981.24V474H978.24ZM979.74 505.5H985.74V502.5H979.74V505.5ZM1023.74 459V457.5H1022.24V459H1023.74ZM1040.24 459H1041.74V457.5H1040.24V459ZM1040.24 564V565.5H1041.74V564H1040.24ZM1023.74 564H1022.24V565.5H1023.74V564ZM1024.49 436.65V435.15H1022.99V436.65H1024.49ZM1039.49 436.65H1040.99V435.15H1039.49V436.65ZM1039.49 451.95V453.45H1040.99V451.95H1039.49ZM1024.49 451.95H1022.99V453.45H1024.49V451.95ZM1023.74 460.5H1040.24V457.5H1023.74V460.5ZM1038.74 459V564H1041.74V459H1038.74ZM1040.24 562.5H1023.74V565.5H1040.24V562.5ZM1025.24 564V459H1022.24V564H1025.24ZM1024.49 438.15H1039.49V435.15H1024.49V438.15ZM1037.99 436.65V451.95H1040.99V436.65H1037.99ZM1039.49 450.45H1024.49V453.45H1039.49V450.45ZM1025.99 451.95V436.65H1022.99V451.95H1025.99ZM1052.6 459V457.5H1051.1V459H1052.6ZM1076.15 459L1077.63 458.792L1077.45 457.5H1076.15V459ZM1086.65 534.15L1085.16 534.358L1085.34 535.65H1086.65V534.15ZM1086.95 534.15V535.65H1088.25L1088.43 534.358L1086.95 534.15ZM1097.45 459V457.5H1096.14L1095.96 458.792L1097.45 459ZM1121 459H1122.5V457.5H1121V459ZM1121 564V565.5H1122.5V564H1121ZM1105.4 564H1103.9V565.5H1105.4V564ZM1105.4 484.5H1106.9V483H1105.4V484.5ZM1105.1 484.5V483H1103.8L1103.61 484.276L1105.1 484.5ZM1093.1 564V565.5H1094.39L1094.58 564.224L1093.1 564ZM1079.3 564L1077.81 564.224L1078 565.5H1079.3V564ZM1067.3 484.5L1068.78 484.276L1068.59 483H1067.3V484.5ZM1067 484.5V483H1065.5V484.5H1067ZM1067 564V565.5H1068.5V564H1067ZM1052.6 564H1051.1V565.5H1052.6V564ZM1052.6 460.5H1076.15V457.5H1052.6V460.5ZM1074.66 459.208L1085.16 534.358L1088.13 533.942L1077.63 458.792L1074.66 459.208ZM1086.65 535.65H1086.95V532.65H1086.65V535.65ZM1088.43 534.358L1098.93 459.208L1095.96 458.792L1085.46 533.942L1088.43 534.358ZM1097.45 460.5H1121V457.5H1097.45V460.5ZM1119.5 459V564H1122.5V459H1119.5ZM1121 562.5H1105.4V565.5H1121V562.5ZM1106.9 564V484.5H1103.9V564H1106.9ZM1105.4 483H1105.1V486H1105.4V483ZM1103.61 484.276L1091.61 563.776L1094.58 564.224L1106.58 484.724L1103.61 484.276ZM1093.1 562.5H1079.3V565.5H1093.1V562.5ZM1080.78 563.776L1068.78 484.276L1065.81 484.724L1077.81 564.224L1080.78 563.776ZM1067.3 483H1067V486H1067.3V483ZM1065.5 484.5V564H1068.5V484.5H1065.5ZM1067 562.5H1052.6V565.5H1067V562.5ZM1054.1 564V459H1051.1V564H1054.1ZM1133.31 459V457.5H1131.81V459H1133.31ZM1149.81 459H1151.31V457.5H1149.81V459ZM1149.81 564V565.5H1151.31V564H1149.81ZM1133.31 564H1131.81V565.5H1133.31V564ZM1134.06 436.65V435.15H1132.56V436.65H1134.06ZM1149.06 436.65H1150.56V435.15H1149.06V436.65ZM1149.06 451.95V453.45H1150.56V451.95H1149.06ZM1134.06 451.95H1132.56V453.45H1134.06V451.95ZM1133.31 460.5H1149.81V457.5H1133.31V460.5ZM1148.31 459V564H1151.31V459H1148.31ZM1149.81 562.5H1133.31V565.5H1149.81V562.5ZM1134.81 564V459H1131.81V564H1134.81ZM1134.06 438.15H1149.06V435.15H1134.06V438.15ZM1147.56 436.65V451.95H1150.56V436.65H1147.56ZM1149.06 450.45H1134.06V453.45H1149.06V450.45ZM1135.56 451.95V436.65H1132.56V451.95H1135.56ZM1158.87 549.3L1157.48 548.735L1157.37 549.007V549.3H1158.87ZM1189.47 474L1190.86 474.565L1191.69 472.5H1189.47V474ZM1160.37 474H1158.87V475.5H1160.37V474ZM1160.37 459V457.5H1158.87V459H1160.37ZM1207.17 459H1208.67V457.5H1207.17V459ZM1207.17 473.7L1208.56 474.265L1208.67 473.993V473.7H1207.17ZM1176.57 549L1175.18 548.435L1174.34 550.5H1176.57V549ZM1207.17 549H1208.67V547.5H1207.17V549ZM1207.17 564V565.5H1208.67V564H1207.17ZM1158.87 564H1157.37V565.5H1158.87V564ZM1160.26 549.865L1190.86 474.565L1188.08 473.435L1157.48 548.735L1160.26 549.865ZM1189.47 472.5H1160.37V475.5H1189.47V472.5ZM1161.87 474V459H1158.87V474H1161.87ZM1160.37 460.5H1207.17V457.5H1160.37V460.5ZM1205.67 459V473.7H1208.67V459H1205.67ZM1205.78 473.135L1175.18 548.435L1177.96 549.565L1208.56 474.265L1205.78 473.135ZM1176.57 550.5H1207.17V547.5H1176.57V550.5ZM1205.67 549V564H1208.67V549H1205.67ZM1207.17 562.5H1158.87V565.5H1207.17V562.5ZM1160.37 564V549.3H1157.37V564H1160.37Z" fill="white"/>
<rect x="515" y="428" width="696" height="115" fill="black"/>
<path d="M521.15 428V426.5H519.65V428H521.15ZM537.65 428H539.15V426.5H537.65V428ZM537.65 470.75H536.15V472.25H537.65V470.75ZM555.35 470.75V472.25H556.85V470.75H555.35ZM555.35 428V426.5H553.85V428H555.35ZM571.85 428H573.35V426.5H571.85V428ZM571.85 533V534.5H573.35V533H571.85ZM555.35 533H553.85V534.5H555.35V533ZM555.35 485.75H556.85V484.25H555.35V485.75ZM537.65 485.75V484.25H536.15V485.75H537.65ZM537.65 533V534.5H539.15V533H537.65ZM521.15 533H519.65V534.5H521.15V533ZM521.15 429.5H537.65V426.5H521.15V429.5ZM536.15 428V470.75H539.15V428H536.15ZM537.65 472.25H555.35V469.25H537.65V472.25ZM556.85 470.75V428H553.85V470.75H556.85ZM555.35 429.5H571.85V426.5H555.35V429.5ZM570.35 428V533H573.35V428H570.35ZM571.85 531.5H555.35V534.5H571.85V531.5ZM556.85 533V485.75H553.85V533H556.85ZM555.35 484.25H537.65V487.25H555.35V484.25ZM536.15 485.75V533H539.15V485.75H536.15ZM537.65 531.5H521.15V534.5H537.65V531.5ZM522.65 533V428H519.65V533H522.65ZM584.138 428V426.5H582.638V428H584.138ZM600.638 428H602.138V426.5H600.638V428ZM600.638 533V534.5H602.138V533H600.638ZM584.138 533H582.638V534.5H584.138V533ZM584.888 405.65V404.15H583.388V405.65H584.888ZM599.888 405.65H601.388V404.15H599.888V405.65ZM599.888 420.95V422.45H601.388V420.95H599.888ZM584.888 420.95H583.388V422.45H584.888V420.95ZM584.138 429.5H600.638V426.5H584.138V429.5ZM599.138 428V533H602.138V428H599.138ZM600.638 531.5H584.138V534.5H600.638V531.5ZM585.638 533V428H582.638V533H585.638ZM584.888 407.15H599.888V404.15H584.888V407.15ZM598.388 405.65V420.95H601.388V405.65H598.388ZM599.888 419.45H584.888V422.45H599.888V419.45ZM586.388 420.95V405.65H583.388V420.95H586.388ZM609.696 518.3L608.306 517.735L608.196 518.007V518.3H609.696ZM640.296 443L641.685 443.565L642.524 441.5H640.296V443ZM611.196 443H609.696V444.5H611.196V443ZM611.196 428V426.5H609.696V428H611.196ZM657.996 428H659.496V426.5H657.996V428ZM657.996 442.7L659.385 443.265L659.496 442.993V442.7H657.996ZM627.396 518L626.006 517.435L625.167 519.5H627.396V518ZM657.996 518H659.496V516.5H657.996V518ZM657.996 533V534.5H659.496V533H657.996ZM609.696 533H608.196V534.5H609.696V533ZM611.085 518.865L641.685 443.565L638.906 442.435L608.306 517.735L611.085 518.865ZM640.296 441.5H611.196V444.5H640.296V441.5ZM612.696 443V428H609.696V443H612.696ZM611.196 429.5H657.996V426.5H611.196V429.5ZM656.496 428V442.7H659.496V428H656.496ZM656.606 442.135L626.006 517.435L628.785 518.565L659.385 443.265L656.606 442.135ZM627.396 519.5H657.996V516.5H627.396V519.5ZM656.496 518V533H659.496V518H656.496ZM657.996 531.5H609.696V534.5H657.996V531.5ZM611.196 533V518.3H608.196V533H611.196ZM667.341 428V426.5H665.841V428H667.341ZM690.891 428L692.377 427.792L692.196 426.5H690.891V428ZM701.391 503.15L699.906 503.358L700.086 504.65H701.391V503.15ZM701.691 503.15V504.65H702.996L703.177 503.358L701.691 503.15ZM712.191 428V426.5H710.886L710.706 427.792L712.191 428ZM735.741 428H737.241V426.5H735.741V428ZM735.741 533V534.5H737.241V533H735.741ZM720.141 533H718.641V534.5H720.141V533ZM720.141 453.5H721.641V452H720.141V453.5ZM719.841 453.5V452H718.551L718.358 453.276L719.841 453.5ZM707.841 533V534.5H709.132L709.325 533.224L707.841 533ZM694.041 533L692.558 533.224L692.751 534.5H694.041V533ZM682.041 453.5L683.525 453.276L683.332 452H682.041V453.5ZM681.741 453.5V452H680.241V453.5H681.741ZM681.741 533V534.5H683.241V533H681.741ZM667.341 533H665.841V534.5H667.341V533ZM667.341 429.5H690.891V426.5H667.341V429.5ZM689.406 428.208L699.906 503.358L702.877 502.942L692.377 427.792L689.406 428.208ZM701.391 504.65H701.691V501.65H701.391V504.65ZM703.177 503.358L713.677 428.208L710.706 427.792L700.206 502.942L703.177 503.358ZM712.191 429.5H735.741V426.5H712.191V429.5ZM734.241 428V533H737.241V428H734.241ZM735.741 531.5H720.141V534.5H735.741V531.5ZM721.641 533V453.5H718.641V533H721.641ZM720.141 452H719.841V455H720.141V452ZM718.358 453.276L706.358 532.776L709.325 533.224L721.325 453.724L718.358 453.276ZM707.841 531.5H694.041V534.5H707.841V531.5ZM695.525 532.776L683.525 453.276L680.558 453.724L692.558 533.224L695.525 532.776ZM682.041 452H681.741V455H682.041V452ZM680.241 453.5V533H683.241V453.5H680.241ZM681.741 531.5H667.341V534.5H681.741V531.5ZM668.841 533V428H665.841V533H668.841ZM748.054 428V426.5H746.554V428H748.054ZM793.054 428H794.554V426.5H793.054V428ZM793.054 443V444.5H794.554V443H793.054ZM764.554 443V441.5H763.054V443H764.554ZM764.554 470.75H763.054V472.25H764.554V470.75ZM787.204 470.75H788.704V469.25H787.204V470.75ZM787.204 485.75V487.25H788.704V485.75H787.204ZM764.554 485.75V484.25H763.054V485.75H764.554ZM764.554 518H763.054V519.5H764.554V518ZM793.054 518H794.554V516.5H793.054V518ZM793.054 533V534.5H794.554V533H793.054ZM748.054 533H746.554V534.5H748.054V533ZM748.054 429.5H793.054V426.5H748.054V429.5ZM791.554 428V443H794.554V428H791.554ZM793.054 441.5H764.554V444.5H793.054V441.5ZM763.054 443V470.75H766.054V443H763.054ZM764.554 472.25H787.204V469.25H764.554V472.25ZM785.704 470.75V485.75H788.704V470.75H785.704ZM787.204 484.25H764.554V487.25H787.204V484.25ZM763.054 485.75V518H766.054V485.75H763.054ZM764.554 519.5H793.054V516.5H764.554V519.5ZM791.554 518V533H794.554V518H791.554ZM793.054 531.5H748.054V534.5H793.054V531.5ZM749.554 533V428H746.554V533H749.554ZM815.446 443H816.946V441.5H815.446V443ZM798.196 443H796.696V444.5H798.196V443ZM798.196 428V426.5H796.696V428H798.196ZM849.196 428H850.696V426.5H849.196V428ZM849.196 443V444.5H850.696V443H849.196ZM831.946 443V441.5H830.446V443H831.946ZM831.946 533V534.5H833.446V533H831.946ZM815.446 533H813.946V534.5H815.446V533ZM815.446 441.5H798.196V444.5H815.446V441.5ZM799.696 443V428H796.696V443H799.696ZM798.196 429.5H849.196V426.5H798.196V429.5ZM847.696 428V443H850.696V428H847.696ZM849.196 441.5H831.946V444.5H849.196V441.5ZM830.446 443V533H833.446V443H830.446ZM831.946 531.5H815.446V534.5H831.946V531.5ZM816.946 533V443H813.946V533H816.946ZM857.185 428V426.5H855.685V428H857.185ZM873.685 428H875.185V426.5H873.685V428ZM873.685 518H872.185V519.5H873.685V518ZM900.835 518H902.335V516.5H900.835V518ZM900.835 533V534.5H902.335V533H900.835ZM857.185 533H855.685V534.5H857.185V533ZM857.185 429.5H873.685V426.5H857.185V429.5ZM872.185 428V518H875.185V428H872.185ZM873.685 519.5H900.835V516.5H873.685V519.5ZM899.335 518V533H902.335V518H899.335ZM900.835 531.5H857.185V534.5H900.835V531.5ZM858.685 533V428H855.685V533H858.685ZM908.748 428V426.5H907.248V428H908.748ZM953.748 428H955.248V426.5H953.748V428ZM953.748 443V444.5H955.248V443H953.748ZM925.248 443V441.5H923.748V443H925.248ZM925.248 470.75H923.748V472.25H925.248V470.75ZM947.898 470.75H949.398V469.25H947.898V470.75ZM947.898 485.75V487.25H949.398V485.75H947.898ZM925.248 485.75V484.25H923.748V485.75H925.248ZM925.248 518H923.748V519.5H925.248V518ZM953.748 518H955.248V516.5H953.748V518ZM953.748 533V534.5H955.248V533H953.748ZM908.748 533H907.248V534.5H908.748V533ZM908.748 429.5H953.748V426.5H908.748V429.5ZM952.248 428V443H955.248V428H952.248ZM953.748 441.5H925.248V444.5H953.748V441.5ZM923.748 443V470.75H926.748V443H923.748ZM925.248 472.25H947.898V469.25H925.248V472.25ZM946.398 470.75V485.75H949.398V470.75H946.398ZM947.898 484.25H925.248V487.25H947.898V484.25ZM923.748 485.75V518H926.748V485.75H923.748ZM925.248 519.5H953.748V516.5H925.248V519.5ZM952.248 518V533H955.248V518H952.248ZM953.748 531.5H908.748V534.5H953.748V531.5ZM910.248 533V428H907.248V533H910.248ZM963.24 428V426.5H961.74V428H963.24ZM1006.29 434L1005.22 435.047L1005.22 435.054L1005.23 435.061L1006.29 434ZM1001.34 479.3L1000.78 477.909L999.84 478.287V479.3H1001.34ZM1001.34 479.6H999.84V480.716L1000.91 481.037L1001.34 479.6ZM1009.74 486.95L1008.36 487.545L1008.37 487.561L1008.38 487.576L1009.74 486.95ZM1012.59 527.6L1011.1 527.757L1011.1 527.766L1012.59 527.6ZM1014.09 533V534.5H1016.4L1015.46 532.391L1014.09 533ZM997.29 533L995.875 533.499L996.229 534.5H997.29V533ZM993.39 490.85L992.213 491.779L992.227 491.798L992.242 491.816L993.39 490.85ZM979.74 488V486.5H978.24V488H979.74ZM979.74 533V534.5H981.24V533H979.74ZM963.24 533H961.74V534.5H963.24V533ZM993.09 470.45L992.029 469.389L992.013 469.405L991.998 469.422L993.09 470.45ZM993.54 445.55L992.348 446.461L992.365 446.483L992.382 446.504L993.54 445.55ZM979.74 443V441.5H978.24V443H979.74ZM979.74 473H978.24V474.5H979.74V473ZM963.24 429.5H987.69V426.5H963.24V429.5ZM987.69 429.5C995.993 429.5 1001.72 431.458 1005.22 435.047L1007.36 432.953C1003.06 428.542 996.386 426.5 987.69 426.5V429.5ZM1005.23 435.061C1008.74 438.568 1010.64 444.156 1010.64 452.15H1013.64C1013.64 443.744 1011.64 437.232 1007.35 432.939L1005.23 435.061ZM1010.64 452.15V458.6H1013.64V452.15H1010.64ZM1010.64 458.6C1010.64 463.9 1009.76 468.089 1008.11 471.256C1006.47 474.39 1004.05 476.592 1000.78 477.909L1001.9 480.691C1005.83 479.108 1008.8 476.41 1010.77 472.644C1012.72 468.911 1013.64 464.2 1013.64 458.6H1010.64ZM999.84 479.3V479.6H1002.84V479.3H999.84ZM1000.91 481.037C1004.5 482.115 1006.95 484.268 1008.36 487.545L1011.12 486.355C1009.33 482.232 1006.18 479.485 1001.77 478.163L1000.91 481.037ZM1008.38 487.576C1009.95 491.004 1010.79 495.714 1010.79 501.8H1013.79C1013.79 495.486 1012.93 490.296 1011.1 486.324L1008.38 487.576ZM1010.79 501.8V520.25H1013.79V501.8H1010.79ZM1010.79 520.25C1010.79 523.277 1010.89 525.784 1011.1 527.757L1014.08 527.443C1013.89 525.616 1013.79 523.223 1013.79 520.25H1010.79ZM1011.1 527.766C1011.32 529.732 1011.86 531.681 1012.72 533.609L1015.46 532.391C1014.72 530.719 1014.26 529.068 1014.08 527.434L1011.1 527.766ZM1014.09 531.5H997.29V534.5H1014.09V531.5ZM998.704 532.501C998.132 530.88 997.761 529.382 997.577 528.002L994.603 528.398C994.819 530.018 995.247 531.72 995.875 533.499L998.704 532.501ZM997.577 528.002C997.391 526.613 997.29 524.005 997.29 520.1H994.29C994.29 523.995 994.388 526.787 994.603 528.398L997.577 528.002ZM997.29 520.1V500.9H994.29V520.1H997.29ZM997.29 500.9C997.29 496.031 996.498 492.212 994.537 489.884L992.242 491.816C993.482 493.288 994.29 496.169 994.29 500.9H997.29ZM994.567 489.921C992.652 487.494 989.435 486.5 985.44 486.5V489.5C989.044 489.5 991.128 490.406 992.213 491.779L994.567 489.921ZM985.44 486.5H979.74V489.5H985.44V486.5ZM978.24 488V533H981.24V488H978.24ZM979.74 531.5H963.24V534.5H979.74V531.5ZM964.74 533V428H961.74V533H964.74ZM985.74 474.5C989.279 474.5 992.198 473.586 994.182 471.478L991.998 469.422C990.782 470.714 988.801 471.5 985.74 471.5V474.5ZM994.151 471.511C996.269 469.392 997.14 466.048 997.14 461.9H994.14C994.14 465.752 993.31 468.108 992.029 469.389L994.151 471.511ZM997.14 461.9V453.8H994.14V461.9H997.14ZM997.14 453.8C997.14 449.881 996.43 446.7 994.698 444.596L992.382 446.504C993.449 447.8 994.14 450.119 994.14 453.8H997.14ZM994.731 444.639C993.054 442.446 990.429 441.5 987.24 441.5V444.5C989.851 444.5 991.425 445.254 992.348 446.461L994.731 444.639ZM987.24 441.5H979.74V444.5H987.24V441.5ZM978.24 443V473H981.24V443H978.24ZM979.74 474.5H985.74V471.5H979.74V474.5ZM1023.74 428V426.5H1022.24V428H1023.74ZM1040.24 428H1041.74V426.5H1040.24V428ZM1040.24 533V534.5H1041.74V533H1040.24ZM1023.74 533H1022.24V534.5H1023.74V533ZM1024.49 405.65V404.15H1022.99V405.65H1024.49ZM1039.49 405.65H1040.99V404.15H1039.49V405.65ZM1039.49 420.95V422.45H1040.99V420.95H1039.49ZM1024.49 420.95H1022.99V422.45H1024.49V420.95ZM1023.74 429.5H1040.24V426.5H1023.74V429.5ZM1038.74 428V533H1041.74V428H1038.74ZM1040.24 531.5H1023.74V534.5H1040.24V531.5ZM1025.24 533V428H1022.24V533H1025.24ZM1024.49 407.15H1039.49V404.15H1024.49V407.15ZM1037.99 405.65V420.95H1040.99V405.65H1037.99ZM1039.49 419.45H1024.49V422.45H1039.49V419.45ZM1025.99 420.95V405.65H1022.99V420.95H1025.99ZM1052.6 428V426.5H1051.1V428H1052.6ZM1076.15 428L1077.63 427.792L1077.45 426.5H1076.15V428ZM1086.65 503.15L1085.16 503.358L1085.34 504.65H1086.65V503.15ZM1086.95 503.15V504.65H1088.25L1088.43 503.358L1086.95 503.15ZM1097.45 428V426.5H1096.14L1095.96 427.792L1097.45 428ZM1121 428H1122.5V426.5H1121V428ZM1121 533V534.5H1122.5V533H1121ZM1105.4 533H1103.9V534.5H1105.4V533ZM1105.4 453.5H1106.9V452H1105.4V453.5ZM1105.1 453.5V452H1103.8L1103.61 453.276L1105.1 453.5ZM1093.1 533V534.5H1094.39L1094.58 533.224L1093.1 533ZM1079.3 533L1077.81 533.224L1078 534.5H1079.3V533ZM1067.3 453.5L1068.78 453.276L1068.59 452H1067.3V453.5ZM1067 453.5V452H1065.5V453.5H1067ZM1067 533V534.5H1068.5V533H1067ZM1052.6 533H1051.1V534.5H1052.6V533ZM1052.6 429.5H1076.15V426.5H1052.6V429.5ZM1074.66 428.208L1085.16 503.358L1088.13 502.942L1077.63 427.792L1074.66 428.208ZM1086.65 504.65H1086.95V501.65H1086.65V504.65ZM1088.43 503.358L1098.93 428.208L1095.96 427.792L1085.46 502.942L1088.43 503.358ZM1097.45 429.5H1121V426.5H1097.45V429.5ZM1119.5 428V533H1122.5V428H1119.5ZM1121 531.5H1105.4V534.5H1121V531.5ZM1106.9 533V453.5H1103.9V533H1106.9ZM1105.4 452H1105.1V455H1105.4V452ZM1103.61 453.276L1091.61 532.776L1094.58 533.224L1106.58 453.724L1103.61 453.276ZM1093.1 531.5H1079.3V534.5H1093.1V531.5ZM1080.78 532.776L1068.78 453.276L1065.81 453.724L1077.81 533.224L1080.78 532.776ZM1067.3 452H1067V455H1067.3V452ZM1065.5 453.5V533H1068.5V453.5H1065.5ZM1067 531.5H1052.6V534.5H1067V531.5ZM1054.1 533V428H1051.1V533H1054.1ZM1133.31 428V426.5H1131.81V428H1133.31ZM1149.81 428H1151.31V426.5H1149.81V428ZM1149.81 533V534.5H1151.31V533H1149.81ZM1133.31 533H1131.81V534.5H1133.31V533ZM1134.06 405.65V404.15H1132.56V405.65H1134.06ZM1149.06 405.65H1150.56V404.15H1149.06V405.65ZM1149.06 420.95V422.45H1150.56V420.95H1149.06ZM1134.06 420.95H1132.56V422.45H1134.06V420.95ZM1133.31 429.5H1149.81V426.5H1133.31V429.5ZM1148.31 428V533H1151.31V428H1148.31ZM1149.81 531.5H1133.31V534.5H1149.81V531.5ZM1134.81 533V428H1131.81V533H1134.81ZM1134.06 407.15H1149.06V404.15H1134.06V407.15ZM1147.56 405.65V420.95H1150.56V405.65H1147.56ZM1149.06 419.45H1134.06V422.45H1149.06V419.45ZM1135.56 420.95V405.65H1132.56V420.95H1135.56ZM1158.87 518.3L1157.48 517.735L1157.37 518.007V518.3H1158.87ZM1189.47 443L1190.86 443.565L1191.69 441.5H1189.47V443ZM1160.37 443H1158.87V444.5H1160.37V443ZM1160.37 428V426.5H1158.87V428H1160.37ZM1207.17 428H1208.67V426.5H1207.17V428ZM1207.17 442.7L1208.56 443.265L1208.67 442.993V442.7H1207.17ZM1176.57 518L1175.18 517.435L1174.34 519.5H1176.57V518ZM1207.17 518H1208.67V516.5H1207.17V518ZM1207.17 533V534.5H1208.67V533H1207.17ZM1158.87 533H1157.37V534.5H1158.87V533ZM1160.26 518.865L1190.86 443.565L1188.08 442.435L1157.48 517.735L1160.26 518.865ZM1189.47 441.5H1160.37V444.5H1189.47V441.5ZM1161.87 443V428H1158.87V443H1161.87ZM1160.37 429.5H1207.17V426.5H1160.37V429.5ZM1205.67 428V442.7H1208.67V428H1205.67ZM1205.78 442.135L1175.18 517.435L1177.96 518.565L1208.56 443.265L1205.78 442.135ZM1176.57 519.5H1207.17V516.5H1176.57V519.5ZM1205.67 518V533H1208.67V518H1205.67ZM1207.17 531.5H1158.87V534.5H1207.17V531.5ZM1160.37 533V518.3H1157.37V533H1160.37Z" fill="white"/>
<rect x="515" y="397" width="696" height="98" fill="black"/>
<rect x="1298" y="252" width="112" height="112" fill="#ECC41C"/>
<rect x="1285.5" y="269.5" width="107" height="107" stroke="white" stroke-width="5"/>
<path d="M1332.59 296.766L1329.3 300.049L1352.76 323.5L1329.31 346.954L1332.59 350.234L1357.68 325.14L1359.25 323.5L1357.68 321.86L1332.59 296.766Z" fill="white"/>
<path d="M521.15 383V381.5H519.65V383H521.15ZM537.65 383H539.15V381.5H537.65V383ZM537.65 425.75H536.15V427.25H537.65V425.75ZM555.35 425.75V427.25H556.85V425.75H555.35ZM555.35 383V381.5H553.85V383H555.35ZM571.85 383H573.35V381.5H571.85V383ZM571.85 488V489.5H573.35V488H571.85ZM555.35 488H553.85V489.5H555.35V488ZM555.35 440.75H556.85V439.25H555.35V440.75ZM537.65 440.75V439.25H536.15V440.75H537.65ZM537.65 488V489.5H539.15V488H537.65ZM521.15 488H519.65V489.5H521.15V488ZM521.15 384.5H537.65V381.5H521.15V384.5ZM536.15 383V425.75H539.15V383H536.15ZM537.65 427.25H555.35V424.25H537.65V427.25ZM556.85 425.75V383H553.85V425.75H556.85ZM555.35 384.5H571.85V381.5H555.35V384.5ZM570.35 383V488H573.35V383H570.35ZM571.85 486.5H555.35V489.5H571.85V486.5ZM556.85 488V440.75H553.85V488H556.85ZM555.35 439.25H537.65V442.25H555.35V439.25ZM536.15 440.75V488H539.15V440.75H536.15ZM537.65 486.5H521.15V489.5H537.65V486.5ZM522.65 488V383H519.65V488H522.65ZM584.138 383V381.5H582.638V383H584.138ZM600.638 383H602.138V381.5H600.638V383ZM600.638 488V489.5H602.138V488H600.638ZM584.138 488H582.638V489.5H584.138V488ZM584.888 360.65V359.15H583.388V360.65H584.888ZM599.888 360.65H601.388V359.15H599.888V360.65ZM599.888 375.95V377.45H601.388V375.95H599.888ZM584.888 375.95H583.388V377.45H584.888V375.95ZM584.138 384.5H600.638V381.5H584.138V384.5ZM599.138 383V488H602.138V383H599.138ZM600.638 486.5H584.138V489.5H600.638V486.5ZM585.638 488V383H582.638V488H585.638ZM584.888 362.15H599.888V359.15H584.888V362.15ZM598.388 360.65V375.95H601.388V360.65H598.388ZM599.888 374.45H584.888V377.45H599.888V374.45ZM586.388 375.95V360.65H583.388V375.95H586.388ZM609.696 473.3L608.306 472.735L608.196 473.007V473.3H609.696ZM640.296 398L641.685 398.565L642.524 396.5H640.296V398ZM611.196 398H609.696V399.5H611.196V398ZM611.196 383V381.5H609.696V383H611.196ZM657.996 383H659.496V381.5H657.996V383ZM657.996 397.7L659.385 398.265L659.496 397.993V397.7H657.996ZM627.396 473L626.006 472.435L625.167 474.5H627.396V473ZM657.996 473H659.496V471.5H657.996V473ZM657.996 488V489.5H659.496V488H657.996ZM609.696 488H608.196V489.5H609.696V488ZM611.085 473.865L641.685 398.565L638.906 397.435L608.306 472.735L611.085 473.865ZM640.296 396.5H611.196V399.5H640.296V396.5ZM612.696 398V383H609.696V398H612.696ZM611.196 384.5H657.996V381.5H611.196V384.5ZM656.496 383V397.7H659.496V383H656.496ZM656.606 397.135L626.006 472.435L628.785 473.565L659.385 398.265L656.606 397.135ZM627.396 474.5H657.996V471.5H627.396V474.5ZM656.496 473V488H659.496V473H656.496ZM657.996 486.5H609.696V489.5H657.996V486.5ZM611.196 488V473.3H608.196V488H611.196ZM667.341 383V381.5H665.841V383H667.341ZM690.891 383L692.377 382.792L692.196 381.5H690.891V383ZM701.391 458.15L699.906 458.358L700.086 459.65H701.391V458.15ZM701.691 458.15V459.65H702.996L703.177 458.358L701.691 458.15ZM712.191 383V381.5H710.886L710.706 382.792L712.191 383ZM735.741 383H737.241V381.5H735.741V383ZM735.741 488V489.5H737.241V488H735.741ZM720.141 488H718.641V489.5H720.141V488ZM720.141 408.5H721.641V407H720.141V408.5ZM719.841 408.5V407H718.551L718.358 408.276L719.841 408.5ZM707.841 488V489.5H709.132L709.325 488.224L707.841 488ZM694.041 488L692.558 488.224L692.751 489.5H694.041V488ZM682.041 408.5L683.525 408.276L683.332 407H682.041V408.5ZM681.741 408.5V407H680.241V408.5H681.741ZM681.741 488V489.5H683.241V488H681.741ZM667.341 488H665.841V489.5H667.341V488ZM667.341 384.5H690.891V381.5H667.341V384.5ZM689.406 383.208L699.906 458.358L702.877 457.942L692.377 382.792L689.406 383.208ZM701.391 459.65H701.691V456.65H701.391V459.65ZM703.177 458.358L713.677 383.208L710.706 382.792L700.206 457.942L703.177 458.358ZM712.191 384.5H735.741V381.5H712.191V384.5ZM734.241 383V488H737.241V383H734.241ZM735.741 486.5H720.141V489.5H735.741V486.5ZM721.641 488V408.5H718.641V488H721.641ZM720.141 407H719.841V410H720.141V407ZM718.358 408.276L706.358 487.776L709.325 488.224L721.325 408.724L718.358 408.276ZM707.841 486.5H694.041V489.5H707.841V486.5ZM695.525 487.776L683.525 408.276L680.558 408.724L692.558 488.224L695.525 487.776ZM682.041 407H681.741V410H682.041V407ZM680.241 408.5V488H683.241V408.5H680.241ZM681.741 486.5H667.341V489.5H681.741V486.5ZM668.841 488V383H665.841V488H668.841ZM748.054 383V381.5H746.554V383H748.054ZM793.054 383H794.554V381.5H793.054V383ZM793.054 398V399.5H794.554V398H793.054ZM764.554 398V396.5H763.054V398H764.554ZM764.554 425.75H763.054V427.25H764.554V425.75ZM787.204 425.75H788.704V424.25H787.204V425.75ZM787.204 440.75V442.25H788.704V440.75H787.204ZM764.554 440.75V439.25H763.054V440.75H764.554ZM764.554 473H763.054V474.5H764.554V473ZM793.054 473H794.554V471.5H793.054V473ZM793.054 488V489.5H794.554V488H793.054ZM748.054 488H746.554V489.5H748.054V488ZM748.054 384.5H793.054V381.5H748.054V384.5ZM791.554 383V398H794.554V383H791.554ZM793.054 396.5H764.554V399.5H793.054V396.5ZM763.054 398V425.75H766.054V398H763.054ZM764.554 427.25H787.204V424.25H764.554V427.25ZM785.704 425.75V440.75H788.704V425.75H785.704ZM787.204 439.25H764.554V442.25H787.204V439.25ZM763.054 440.75V473H766.054V440.75H763.054ZM764.554 474.5H793.054V471.5H764.554V474.5ZM791.554 473V488H794.554V473H791.554ZM793.054 486.5H748.054V489.5H793.054V486.5ZM749.554 488V383H746.554V488H749.554ZM815.446 398H816.946V396.5H815.446V398ZM798.196 398H796.696V399.5H798.196V398ZM798.196 383V381.5H796.696V383H798.196ZM849.196 383H850.696V381.5H849.196V383ZM849.196 398V399.5H850.696V398H849.196ZM831.946 398V396.5H830.446V398H831.946ZM831.946 488V489.5H833.446V488H831.946ZM815.446 488H813.946V489.5H815.446V488ZM815.446 396.5H798.196V399.5H815.446V396.5ZM799.696 398V383H796.696V398H799.696ZM798.196 384.5H849.196V381.5H798.196V384.5ZM847.696 383V398H850.696V383H847.696ZM849.196 396.5H831.946V399.5H849.196V396.5ZM830.446 398V488H833.446V398H830.446ZM831.946 486.5H815.446V489.5H831.946V486.5ZM816.946 488V398H813.946V488H816.946ZM857.185 383V381.5H855.685V383H857.185ZM873.685 383H875.185V381.5H873.685V383ZM873.685 473H872.185V474.5H873.685V473ZM900.835 473H902.335V471.5H900.835V473ZM900.835 488V489.5H902.335V488H900.835ZM857.185 488H855.685V489.5H857.185V488ZM857.185 384.5H873.685V381.5H857.185V384.5ZM872.185 383V473H875.185V383H872.185ZM873.685 474.5H900.835V471.5H873.685V474.5ZM899.335 473V488H902.335V473H899.335ZM900.835 486.5H857.185V489.5H900.835V486.5ZM858.685 488V383H855.685V488H858.685ZM908.748 383V381.5H907.248V383H908.748ZM953.748 383H955.248V381.5H953.748V383ZM953.748 398V399.5H955.248V398H953.748ZM925.248 398V396.5H923.748V398H925.248ZM925.248 425.75H923.748V427.25H925.248V425.75ZM947.898 425.75H949.398V424.25H947.898V425.75ZM947.898 440.75V442.25H949.398V440.75H947.898ZM925.248 440.75V439.25H923.748V440.75H925.248ZM925.248 473H923.748V474.5H925.248V473ZM953.748 473H955.248V471.5H953.748V473ZM953.748 488V489.5H955.248V488H953.748ZM908.748 488H907.248V489.5H908.748V488ZM908.748 384.5H953.748V381.5H908.748V384.5ZM952.248 383V398H955.248V383H952.248ZM953.748 396.5H925.248V399.5H953.748V396.5ZM923.748 398V425.75H926.748V398H923.748ZM925.248 427.25H947.898V424.25H925.248V427.25ZM946.398 425.75V440.75H949.398V425.75H946.398ZM947.898 439.25H925.248V442.25H947.898V439.25ZM923.748 440.75V473H926.748V440.75H923.748ZM925.248 474.5H953.748V471.5H925.248V474.5ZM952.248 473V488H955.248V473H952.248ZM953.748 486.5H908.748V489.5H953.748V486.5ZM910.248 488V383H907.248V488H910.248ZM963.24 383V381.5H961.74V383H963.24ZM1006.29 389L1005.22 390.047L1005.22 390.054L1005.23 390.061L1006.29 389ZM1001.34 434.3L1000.78 432.909L999.84 433.287V434.3H1001.34ZM1001.34 434.6H999.84V435.716L1000.91 436.037L1001.34 434.6ZM1009.74 441.95L1008.36 442.545L1008.37 442.561L1008.38 442.576L1009.74 441.95ZM1012.59 482.6L1011.1 482.757L1011.1 482.766L1012.59 482.6ZM1014.09 488V489.5H1016.4L1015.46 487.391L1014.09 488ZM997.29 488L995.875 488.499L996.229 489.5H997.29V488ZM993.39 445.85L992.213 446.779L992.227 446.798L992.242 446.816L993.39 445.85ZM979.74 443V441.5H978.24V443H979.74ZM979.74 488V489.5H981.24V488H979.74ZM963.24 488H961.74V489.5H963.24V488ZM993.09 425.45L992.029 424.389L992.013 424.405L991.998 424.422L993.09 425.45ZM993.54 400.55L992.348 401.461L992.365 401.483L992.382 401.504L993.54 400.55ZM979.74 398V396.5H978.24V398H979.74ZM979.74 428H978.24V429.5H979.74V428ZM963.24 384.5H987.69V381.5H963.24V384.5ZM987.69 384.5C995.993 384.5 1001.72 386.458 1005.22 390.047L1007.36 387.953C1003.06 383.542 996.386 381.5 987.69 381.5V384.5ZM1005.23 390.061C1008.74 393.568 1010.64 399.156 1010.64 407.15H1013.64C1013.64 398.744 1011.64 392.232 1007.35 387.939L1005.23 390.061ZM1010.64 407.15V413.6H1013.64V407.15H1010.64ZM1010.64 413.6C1010.64 418.9 1009.76 423.089 1008.11 426.256C1006.47 429.39 1004.05 431.592 1000.78 432.909L1001.9 435.691C1005.83 434.108 1008.8 431.41 1010.77 427.644C1012.72 423.911 1013.64 419.2 1013.64 413.6H1010.64ZM999.84 434.3V434.6H1002.84V434.3H999.84ZM1000.91 436.037C1004.5 437.115 1006.95 439.268 1008.36 442.545L1011.12 441.355C1009.33 437.232 1006.18 434.485 1001.77 433.163L1000.91 436.037ZM1008.38 442.576C1009.95 446.004 1010.79 450.714 1010.79 456.8H1013.79C1013.79 450.486 1012.93 445.296 1011.1 441.324L1008.38 442.576ZM1010.79 456.8V475.25H1013.79V456.8H1010.79ZM1010.79 475.25C1010.79 478.277 1010.89 480.784 1011.1 482.757L1014.08 482.443C1013.89 480.616 1013.79 478.223 1013.79 475.25H1010.79ZM1011.1 482.766C1011.32 484.732 1011.86 486.681 1012.72 488.609L1015.46 487.391C1014.72 485.719 1014.26 484.068 1014.08 482.434L1011.1 482.766ZM1014.09 486.5H997.29V489.5H1014.09V486.5ZM998.704 487.501C998.132 485.88 997.761 484.382 997.577 483.002L994.603 483.398C994.819 485.018 995.247 486.72 995.875 488.499L998.704 487.501ZM997.577 483.002C997.391 481.613 997.29 479.005 997.29 475.1H994.29C994.29 478.995 994.388 481.787 994.603 483.398L997.577 483.002ZM997.29 475.1V455.9H994.29V475.1H997.29ZM997.29 455.9C997.29 451.031 996.498 447.212 994.537 444.884L992.242 446.816C993.482 448.288 994.29 451.169 994.29 455.9H997.29ZM994.567 444.921C992.652 442.494 989.435 441.5 985.44 441.5V444.5C989.044 444.5 991.128 445.406 992.213 446.779L994.567 444.921ZM985.44 441.5H979.74V444.5H985.44V441.5ZM978.24 443V488H981.24V443H978.24ZM979.74 486.5H963.24V489.5H979.74V486.5ZM964.74 488V383H961.74V488H964.74ZM985.74 429.5C989.279 429.5 992.198 428.586 994.182 426.478L991.998 424.422C990.782 425.714 988.801 426.5 985.74 426.5V429.5ZM994.151 426.511C996.269 424.392 997.14 421.048 997.14 416.9H994.14C994.14 420.752 993.31 423.108 992.029 424.389L994.151 426.511ZM997.14 416.9V408.8H994.14V416.9H997.14ZM997.14 408.8C997.14 404.881 996.43 401.7 994.698 399.596L992.382 401.504C993.449 402.8 994.14 405.119 994.14 408.8H997.14ZM994.731 399.639C993.054 397.446 990.429 396.5 987.24 396.5V399.5C989.851 399.5 991.425 400.254 992.348 401.461L994.731 399.639ZM987.24 396.5H979.74V399.5H987.24V396.5ZM978.24 398V428H981.24V398H978.24ZM979.74 429.5H985.74V426.5H979.74V429.5ZM1023.74 383V381.5H1022.24V383H1023.74ZM1040.24 383H1041.74V381.5H1040.24V383ZM1040.24 488V489.5H1041.74V488H1040.24ZM1023.74 488H1022.24V489.5H1023.74V488ZM1024.49 360.65V359.15H1022.99V360.65H1024.49ZM1039.49 360.65H1040.99V359.15H1039.49V360.65ZM1039.49 375.95V377.45H1040.99V375.95H1039.49ZM1024.49 375.95H1022.99V377.45H1024.49V375.95ZM1023.74 384.5H1040.24V381.5H1023.74V384.5ZM1038.74 383V488H1041.74V383H1038.74ZM1040.24 486.5H1023.74V489.5H1040.24V486.5ZM1025.24 488V383H1022.24V488H1025.24ZM1024.49 362.15H1039.49V359.15H1024.49V362.15ZM1037.99 360.65V375.95H1040.99V360.65H1037.99ZM1039.49 374.45H1024.49V377.45H1039.49V374.45ZM1025.99 375.95V360.65H1022.99V375.95H1025.99ZM1052.6 383V381.5H1051.1V383H1052.6ZM1076.15 383L1077.63 382.792L1077.45 381.5H1076.15V383ZM1086.65 458.15L1085.16 458.358L1085.34 459.65H1086.65V458.15ZM1086.95 458.15V459.65H1088.25L1088.43 458.358L1086.95 458.15ZM1097.45 383V381.5H1096.14L1095.96 382.792L1097.45 383ZM1121 383H1122.5V381.5H1121V383ZM1121 488V489.5H1122.5V488H1121ZM1105.4 488H1103.9V489.5H1105.4V488ZM1105.4 408.5H1106.9V407H1105.4V408.5ZM1105.1 408.5V407H1103.8L1103.61 408.276L1105.1 408.5ZM1093.1 488V489.5H1094.39L1094.58 488.224L1093.1 488ZM1079.3 488L1077.81 488.224L1078 489.5H1079.3V488ZM1067.3 408.5L1068.78 408.276L1068.59 407H1067.3V408.5ZM1067 408.5V407H1065.5V408.5H1067ZM1067 488V489.5H1068.5V488H1067ZM1052.6 488H1051.1V489.5H1052.6V488ZM1052.6 384.5H1076.15V381.5H1052.6V384.5ZM1074.66 383.208L1085.16 458.358L1088.13 457.942L1077.63 382.792L1074.66 383.208ZM1086.65 459.65H1086.95V456.65H1086.65V459.65ZM1088.43 458.358L1098.93 383.208L1095.96 382.792L1085.46 457.942L1088.43 458.358ZM1097.45 384.5H1121V381.5H1097.45V384.5ZM1119.5 383V488H1122.5V383H1119.5ZM1121 486.5H1105.4V489.5H1121V486.5ZM1106.9 488V408.5H1103.9V488H1106.9ZM1105.4 407H1105.1V410H1105.4V407ZM1103.61 408.276L1091.61 487.776L1094.58 488.224L1106.58 408.724L1103.61 408.276ZM1093.1 486.5H1079.3V489.5H1093.1V486.5ZM1080.78 487.776L1068.78 408.276L1065.81 408.724L1077.81 488.224L1080.78 487.776ZM1067.3 407H1067V410H1067.3V407ZM1065.5 408.5V488H1068.5V408.5H1065.5ZM1067 486.5H1052.6V489.5H1067V486.5ZM1054.1 488V383H1051.1V488H1054.1ZM1133.31 383V381.5H1131.81V383H1133.31ZM1149.81 383H1151.31V381.5H1149.81V383ZM1149.81 488V489.5H1151.31V488H1149.81ZM1133.31 488H1131.81V489.5H1133.31V488ZM1134.06 360.65V359.15H1132.56V360.65H1134.06ZM1149.06 360.65H1150.56V359.15H1149.06V360.65ZM1149.06 375.95V377.45H1150.56V375.95H1149.06ZM1134.06 375.95H1132.56V377.45H1134.06V375.95ZM1133.31 384.5H1149.81V381.5H1133.31V384.5ZM1148.31 383V488H1151.31V383H1148.31ZM1149.81 486.5H1133.31V489.5H1149.81V486.5ZM1134.81 488V383H1131.81V488H1134.81ZM1134.06 362.15H1149.06V359.15H1134.06V362.15ZM1147.56 360.65V375.95H1150.56V360.65H1147.56ZM1149.06 374.45H1134.06V377.45H1149.06V374.45ZM1135.56 375.95V360.65H1132.56V375.95H1135.56ZM1158.87 473.3L1157.48 472.735L1157.37 473.007V473.3H1158.87ZM1189.47 398L1190.86 398.565L1191.69 396.5H1189.47V398ZM1160.37 398H1158.87V399.5H1160.37V398ZM1160.37 383V381.5H1158.87V383H1160.37ZM1207.17 383H1208.67V381.5H1207.17V383ZM1207.17 397.7L1208.56 398.265L1208.67 397.993V397.7H1207.17ZM1176.57 473L1175.18 472.435L1174.34 474.5H1176.57V473ZM1207.17 473H1208.67V471.5H1207.17V473ZM1207.17 488V489.5H1208.67V488H1207.17ZM1158.87 488H1157.37V489.5H1158.87V488ZM1160.26 473.865L1190.86 398.565L1188.08 397.435L1157.48 472.735L1160.26 473.865ZM1189.47 396.5H1160.37V399.5H1189.47V396.5ZM1161.87 398V383H1158.87V398H1161.87ZM1160.37 384.5H1207.17V381.5H1160.37V384.5ZM1205.67 383V397.7H1208.67V383H1205.67ZM1205.78 397.135L1175.18 472.435L1177.96 473.565L1208.56 398.265L1205.78 397.135ZM1176.57 474.5H1207.17V471.5H1176.57V474.5ZM1205.67 473V488H1208.67V473H1205.67ZM1207.17 486.5H1158.87V489.5H1207.17V486.5ZM1160.37 488V473.3H1157.37V488H1160.37Z" fill="white"/>
<rect x="515" y="352" width="696" height="83" fill="black"/>
<path d="M521.15 323V321.5H519.65V323H521.15ZM537.65 323H539.15V321.5H537.65V323ZM537.65 365.75H536.15V367.25H537.65V365.75ZM555.35 365.75V367.25H556.85V365.75H555.35ZM555.35 323V321.5H553.85V323H555.35ZM571.85 323H573.35V321.5H571.85V323ZM571.85 428V429.5H573.35V428H571.85ZM555.35 428H553.85V429.5H555.35V428ZM555.35 380.75H556.85V379.25H555.35V380.75ZM537.65 380.75V379.25H536.15V380.75H537.65ZM537.65 428V429.5H539.15V428H537.65ZM521.15 428H519.65V429.5H521.15V428ZM521.15 324.5H537.65V321.5H521.15V324.5ZM536.15 323V365.75H539.15V323H536.15ZM537.65 367.25H555.35V364.25H537.65V367.25ZM556.85 365.75V323H553.85V365.75H556.85ZM555.35 324.5H571.85V321.5H555.35V324.5ZM570.35 323V428H573.35V323H570.35ZM571.85 426.5H555.35V429.5H571.85V426.5ZM556.85 428V380.75H553.85V428H556.85ZM555.35 379.25H537.65V382.25H555.35V379.25ZM536.15 380.75V428H539.15V380.75H536.15ZM537.65 426.5H521.15V429.5H537.65V426.5ZM522.65 428V323H519.65V428H522.65ZM584.138 323V321.5H582.638V323H584.138ZM600.638 323H602.138V321.5H600.638V323ZM600.638 428V429.5H602.138V428H600.638ZM584.138 428H582.638V429.5H584.138V428ZM584.888 300.65V299.15H583.388V300.65H584.888ZM599.888 300.65H601.388V299.15H599.888V300.65ZM599.888 315.95V317.45H601.388V315.95H599.888ZM584.888 315.95H583.388V317.45H584.888V315.95ZM584.138 324.5H600.638V321.5H584.138V324.5ZM599.138 323V428H602.138V323H599.138ZM600.638 426.5H584.138V429.5H600.638V426.5ZM585.638 428V323H582.638V428H585.638ZM584.888 302.15H599.888V299.15H584.888V302.15ZM598.388 300.65V315.95H601.388V300.65H598.388ZM599.888 314.45H584.888V317.45H599.888V314.45ZM586.388 315.95V300.65H583.388V315.95H586.388ZM609.696 413.3L608.306 412.735L608.196 413.007V413.3H609.696ZM640.296 338L641.685 338.565L642.524 336.5H640.296V338ZM611.196 338H609.696V339.5H611.196V338ZM611.196 323V321.5H609.696V323H611.196ZM657.996 323H659.496V321.5H657.996V323ZM657.996 337.7L659.385 338.265L659.496 337.993V337.7H657.996ZM627.396 413L626.006 412.435L625.167 414.5H627.396V413ZM657.996 413H659.496V411.5H657.996V413ZM657.996 428V429.5H659.496V428H657.996ZM609.696 428H608.196V429.5H609.696V428ZM611.085 413.865L641.685 338.565L638.906 337.435L608.306 412.735L611.085 413.865ZM640.296 336.5H611.196V339.5H640.296V336.5ZM612.696 338V323H609.696V338H612.696ZM611.196 324.5H657.996V321.5H611.196V324.5ZM656.496 323V337.7H659.496V323H656.496ZM656.606 337.135L626.006 412.435L628.785 413.565L659.385 338.265L656.606 337.135ZM627.396 414.5H657.996V411.5H627.396V414.5ZM656.496 413V428H659.496V413H656.496ZM657.996 426.5H609.696V429.5H657.996V426.5ZM611.196 428V413.3H608.196V428H611.196ZM667.341 323V321.5H665.841V323H667.341ZM690.891 323L692.377 322.792L692.196 321.5H690.891V323ZM701.391 398.15L699.906 398.358L700.086 399.65H701.391V398.15ZM701.691 398.15V399.65H702.996L703.177 398.358L701.691 398.15ZM712.191 323V321.5H710.886L710.706 322.792L712.191 323ZM735.741 323H737.241V321.5H735.741V323ZM735.741 428V429.5H737.241V428H735.741ZM720.141 428H718.641V429.5H720.141V428ZM720.141 348.5H721.641V347H720.141V348.5ZM719.841 348.5V347H718.551L718.358 348.276L719.841 348.5ZM707.841 428V429.5H709.132L709.325 428.224L707.841 428ZM694.041 428L692.558 428.224L692.751 429.5H694.041V428ZM682.041 348.5L683.525 348.276L683.332 347H682.041V348.5ZM681.741 348.5V347H680.241V348.5H681.741ZM681.741 428V429.5H683.241V428H681.741ZM667.341 428H665.841V429.5H667.341V428ZM667.341 324.5H690.891V321.5H667.341V324.5ZM689.406 323.208L699.906 398.358L702.877 397.942L692.377 322.792L689.406 323.208ZM701.391 399.65H701.691V396.65H701.391V399.65ZM703.177 398.358L713.677 323.208L710.706 322.792L700.206 397.942L703.177 398.358ZM712.191 324.5H735.741V321.5H712.191V324.5ZM734.241 323V428H737.241V323H734.241ZM735.741 426.5H720.141V429.5H735.741V426.5ZM721.641 428V348.5H718.641V428H721.641ZM720.141 347H719.841V350H720.141V347ZM718.358 348.276L706.358 427.776L709.325 428.224L721.325 348.724L718.358 348.276ZM707.841 426.5H694.041V429.5H707.841V426.5ZM695.525 427.776L683.525 348.276L680.558 348.724L692.558 428.224L695.525 427.776ZM682.041 347H681.741V350H682.041V347ZM680.241 348.5V428H683.241V348.5H680.241ZM681.741 426.5H667.341V429.5H681.741V426.5ZM668.841 428V323H665.841V428H668.841ZM748.054 323V321.5H746.554V323H748.054ZM793.054 323H794.554V321.5H793.054V323ZM793.054 338V339.5H794.554V338H793.054ZM764.554 338V336.5H763.054V338H764.554ZM764.554 365.75H763.054V367.25H764.554V365.75ZM787.204 365.75H788.704V364.25H787.204V365.75ZM787.204 380.75V382.25H788.704V380.75H787.204ZM764.554 380.75V379.25H763.054V380.75H764.554ZM764.554 413H763.054V414.5H764.554V413ZM793.054 413H794.554V411.5H793.054V413ZM793.054 428V429.5H794.554V428H793.054ZM748.054 428H746.554V429.5H748.054V428ZM748.054 324.5H793.054V321.5H748.054V324.5ZM791.554 323V338H794.554V323H791.554ZM793.054 336.5H764.554V339.5H793.054V336.5ZM763.054 338V365.75H766.054V338H763.054ZM764.554 367.25H787.204V364.25H764.554V367.25ZM785.704 365.75V380.75H788.704V365.75H785.704ZM787.204 379.25H764.554V382.25H787.204V379.25ZM763.054 380.75V413H766.054V380.75H763.054ZM764.554 414.5H793.054V411.5H764.554V414.5ZM791.554 413V428H794.554V413H791.554ZM793.054 426.5H748.054V429.5H793.054V426.5ZM749.554 428V323H746.554V428H749.554ZM815.446 338H816.946V336.5H815.446V338ZM798.196 338H796.696V339.5H798.196V338ZM798.196 323V321.5H796.696V323H798.196ZM849.196 323H850.696V321.5H849.196V323ZM849.196 338V339.5H850.696V338H849.196ZM831.946 338V336.5H830.446V338H831.946ZM831.946 428V429.5H833.446V428H831.946ZM815.446 428H813.946V429.5H815.446V428ZM815.446 336.5H798.196V339.5H815.446V336.5ZM799.696 338V323H796.696V338H799.696ZM798.196 324.5H849.196V321.5H798.196V324.5ZM847.696 323V338H850.696V323H847.696ZM849.196 336.5H831.946V339.5H849.196V336.5ZM830.446 338V428H833.446V338H830.446ZM831.946 426.5H815.446V429.5H831.946V426.5ZM816.946 428V338H813.946V428H816.946ZM857.185 323V321.5H855.685V323H857.185ZM873.685 323H875.185V321.5H873.685V323ZM873.685 413H872.185V414.5H873.685V413ZM900.835 413H902.335V411.5H900.835V413ZM900.835 428V429.5H902.335V428H900.835ZM857.185 428H855.685V429.5H857.185V428ZM857.185 324.5H873.685V321.5H857.185V324.5ZM872.185 323V413H875.185V323H872.185ZM873.685 414.5H900.835V411.5H873.685V414.5ZM899.335 413V428H902.335V413H899.335ZM900.835 426.5H857.185V429.5H900.835V426.5ZM858.685 428V323H855.685V428H858.685ZM908.748 323V321.5H907.248V323H908.748ZM953.748 323H955.248V321.5H953.748V323ZM953.748 338V339.5H955.248V338H953.748ZM925.248 338V336.5H923.748V338H925.248ZM925.248 365.75H923.748V367.25H925.248V365.75ZM947.898 365.75H949.398V364.25H947.898V365.75ZM947.898 380.75V382.25H949.398V380.75H947.898ZM925.248 380.75V379.25H923.748V380.75H925.248ZM925.248 413H923.748V414.5H925.248V413ZM953.748 413H955.248V411.5H953.748V413ZM953.748 428V429.5H955.248V428H953.748ZM908.748 428H907.248V429.5H908.748V428ZM908.748 324.5H953.748V321.5H908.748V324.5ZM952.248 323V338H955.248V323H952.248ZM953.748 336.5H925.248V339.5H953.748V336.5ZM923.748 338V365.75H926.748V338H923.748ZM925.248 367.25H947.898V364.25H925.248V367.25ZM946.398 365.75V380.75H949.398V365.75H946.398ZM947.898 379.25H925.248V382.25H947.898V379.25ZM923.748 380.75V413H926.748V380.75H923.748ZM925.248 414.5H953.748V411.5H925.248V414.5ZM952.248 413V428H955.248V413H952.248ZM953.748 426.5H908.748V429.5H953.748V426.5ZM910.248 428V323H907.248V428H910.248ZM963.24 323V321.5H961.74V323H963.24ZM1006.29 329L1005.22 330.047L1005.22 330.054L1005.23 330.061L1006.29 329ZM1001.34 374.3L1000.78 372.909L999.84 373.287V374.3H1001.34ZM1001.34 374.6H999.84V375.716L1000.91 376.037L1001.34 374.6ZM1009.74 381.95L1008.36 382.545L1008.37 382.561L1008.38 382.576L1009.74 381.95ZM1012.59 422.6L1011.1 422.757L1011.1 422.766L1012.59 422.6ZM1014.09 428V429.5H1016.4L1015.46 427.391L1014.09 428ZM997.29 428L995.875 428.499L996.229 429.5H997.29V428ZM993.39 385.85L992.213 386.779L992.227 386.798L992.242 386.816L993.39 385.85ZM979.74 383V381.5H978.24V383H979.74ZM979.74 428V429.5H981.24V428H979.74ZM963.24 428H961.74V429.5H963.24V428ZM993.09 365.45L992.029 364.389L992.013 364.405L991.998 364.422L993.09 365.45ZM993.54 340.55L992.348 341.461L992.365 341.483L992.382 341.504L993.54 340.55ZM979.74 338V336.5H978.24V338H979.74ZM979.74 368H978.24V369.5H979.74V368ZM963.24 324.5H987.69V321.5H963.24V324.5ZM987.69 324.5C995.993 324.5 1001.72 326.458 1005.22 330.047L1007.36 327.953C1003.06 323.542 996.386 321.5 987.69 321.5V324.5ZM1005.23 330.061C1008.74 333.568 1010.64 339.156 1010.64 347.15H1013.64C1013.64 338.744 1011.64 332.232 1007.35 327.939L1005.23 330.061ZM1010.64 347.15V353.6H1013.64V347.15H1010.64ZM1010.64 353.6C1010.64 358.9 1009.76 363.089 1008.11 366.256C1006.47 369.39 1004.05 371.592 1000.78 372.909L1001.9 375.691C1005.83 374.108 1008.8 371.41 1010.77 367.644C1012.72 363.911 1013.64 359.2 1013.64 353.6H1010.64ZM999.84 374.3V374.6H1002.84V374.3H999.84ZM1000.91 376.037C1004.5 377.115 1006.95 379.268 1008.36 382.545L1011.12 381.355C1009.33 377.232 1006.18 374.485 1001.77 373.163L1000.91 376.037ZM1008.38 382.576C1009.95 386.004 1010.79 390.714 1010.79 396.8H1013.79C1013.79 390.486 1012.93 385.296 1011.1 381.324L1008.38 382.576ZM1010.79 396.8V415.25H1013.79V396.8H1010.79ZM1010.79 415.25C1010.79 418.277 1010.89 420.784 1011.1 422.757L1014.08 422.443C1013.89 420.616 1013.79 418.223 1013.79 415.25H1010.79ZM1011.1 422.766C1011.32 424.732 1011.86 426.681 1012.72 428.609L1015.46 427.391C1014.72 425.719 1014.26 424.068 1014.08 422.434L1011.1 422.766ZM1014.09 426.5H997.29V429.5H1014.09V426.5ZM998.704 427.501C998.132 425.88 997.761 424.382 997.577 423.002L994.603 423.398C994.819 425.018 995.247 426.72 995.875 428.499L998.704 427.501ZM997.577 423.002C997.391 421.613 997.29 419.005 997.29 415.1H994.29C994.29 418.995 994.388 421.787 994.603 423.398L997.577 423.002ZM997.29 415.1V395.9H994.29V415.1H997.29ZM997.29 395.9C997.29 391.031 996.498 387.212 994.537 384.884L992.242 386.816C993.482 388.288 994.29 391.169 994.29 395.9H997.29ZM994.567 384.921C992.652 382.494 989.435 381.5 985.44 381.5V384.5C989.044 384.5 991.128 385.406 992.213 386.779L994.567 384.921ZM985.44 381.5H979.74V384.5H985.44V381.5ZM978.24 383V428H981.24V383H978.24ZM979.74 426.5H963.24V429.5H979.74V426.5ZM964.74 428V323H961.74V428H964.74ZM985.74 369.5C989.279 369.5 992.198 368.586 994.182 366.478L991.998 364.422C990.782 365.714 988.801 366.5 985.74 366.5V369.5ZM994.151 366.511C996.269 364.392 997.14 361.048 997.14 356.9H994.14C994.14 360.752 993.31 363.108 992.029 364.389L994.151 366.511ZM997.14 356.9V348.8H994.14V356.9H997.14ZM997.14 348.8C997.14 344.881 996.43 341.7 994.698 339.596L992.382 341.504C993.449 342.8 994.14 345.119 994.14 348.8H997.14ZM994.731 339.639C993.054 337.446 990.429 336.5 987.24 336.5V339.5C989.851 339.5 991.425 340.254 992.348 341.461L994.731 339.639ZM987.24 336.5H979.74V339.5H987.24V336.5ZM978.24 338V368H981.24V338H978.24ZM979.74 369.5H985.74V366.5H979.74V369.5ZM1023.74 323V321.5H1022.24V323H1023.74ZM1040.24 323H1041.74V321.5H1040.24V323ZM1040.24 428V429.5H1041.74V428H1040.24ZM1023.74 428H1022.24V429.5H1023.74V428ZM1024.49 300.65V299.15H1022.99V300.65H1024.49ZM1039.49 300.65H1040.99V299.15H1039.49V300.65ZM1039.49 315.95V317.45H1040.99V315.95H1039.49ZM1024.49 315.95H1022.99V317.45H1024.49V315.95ZM1023.74 324.5H1040.24V321.5H1023.74V324.5ZM1038.74 323V428H1041.74V323H1038.74ZM1040.24 426.5H1023.74V429.5H1040.24V426.5ZM1025.24 428V323H1022.24V428H1025.24ZM1024.49 302.15H1039.49V299.15H1024.49V302.15ZM1037.99 300.65V315.95H1040.99V300.65H1037.99ZM1039.49 314.45H1024.49V317.45H1039.49V314.45ZM1025.99 315.95V300.65H1022.99V315.95H1025.99ZM1052.6 323V321.5H1051.1V323H1052.6ZM1076.15 323L1077.63 322.792L1077.45 321.5H1076.15V323ZM1086.65 398.15L1085.16 398.358L1085.34 399.65H1086.65V398.15ZM1086.95 398.15V399.65H1088.25L1088.43 398.358L1086.95 398.15ZM1097.45 323V321.5H1096.14L1095.96 322.792L1097.45 323ZM1121 323H1122.5V321.5H1121V323ZM1121 428V429.5H1122.5V428H1121ZM1105.4 428H1103.9V429.5H1105.4V428ZM1105.4 348.5H1106.9V347H1105.4V348.5ZM1105.1 348.5V347H1103.8L1103.61 348.276L1105.1 348.5ZM1093.1 428V429.5H1094.39L1094.58 428.224L1093.1 428ZM1079.3 428L1077.81 428.224L1078 429.5H1079.3V428ZM1067.3 348.5L1068.78 348.276L1068.59 347H1067.3V348.5ZM1067 348.5V347H1065.5V348.5H1067ZM1067 428V429.5H1068.5V428H1067ZM1052.6 428H1051.1V429.5H1052.6V428ZM1052.6 324.5H1076.15V321.5H1052.6V324.5ZM1074.66 323.208L1085.16 398.358L1088.13 397.942L1077.63 322.792L1074.66 323.208ZM1086.65 399.65H1086.95V396.65H1086.65V399.65ZM1088.43 398.358L1098.93 323.208L1095.96 322.792L1085.46 397.942L1088.43 398.358ZM1097.45 324.5H1121V321.5H1097.45V324.5ZM1119.5 323V428H1122.5V323H1119.5ZM1121 426.5H1105.4V429.5H1121V426.5ZM1106.9 428V348.5H1103.9V428H1106.9ZM1105.4 347H1105.1V350H1105.4V347ZM1103.61 348.276L1091.61 427.776L1094.58 428.224L1106.58 348.724L1103.61 348.276ZM1093.1 426.5H1079.3V429.5H1093.1V426.5ZM1080.78 427.776L1068.78 348.276L1065.81 348.724L1077.81 428.224L1080.78 427.776ZM1067.3 347H1067V350H1067.3V347ZM1065.5 348.5V428H1068.5V348.5H1065.5ZM1067 426.5H1052.6V429.5H1067V426.5ZM1054.1 428V323H1051.1V428H1054.1ZM1133.31 323V321.5H1131.81V323H1133.31ZM1149.81 323H1151.31V321.5H1149.81V323ZM1149.81 428V429.5H1151.31V428H1149.81ZM1133.31 428H1131.81V429.5H1133.31V428ZM1134.06 300.65V299.15H1132.56V300.65H1134.06ZM1149.06 300.65H1150.56V299.15H1149.06V300.65ZM1149.06 315.95V317.45H1150.56V315.95H1149.06ZM1134.06 315.95H1132.56V317.45H1134.06V315.95ZM1133.31 324.5H1149.81V321.5H1133.31V324.5ZM1148.31 323V428H1151.31V323H1148.31ZM1149.81 426.5H1133.31V429.5H1149.81V426.5ZM1134.81 428V323H1131.81V428H1134.81ZM1134.06 302.15H1149.06V299.15H1134.06V302.15ZM1147.56 300.65V315.95H1150.56V300.65H1147.56ZM1149.06 314.45H1134.06V317.45H1149.06V314.45ZM1135.56 315.95V300.65H1132.56V315.95H1135.56ZM1158.87 413.3L1157.48 412.735L1157.37 413.007V413.3H1158.87ZM1189.47 338L1190.86 338.565L1191.69 336.5H1189.47V338ZM1160.37 338H1158.87V339.5H1160.37V338ZM1160.37 323V321.5H1158.87V323H1160.37ZM1207.17 323H1208.67V321.5H1207.17V323ZM1207.17 337.7L1208.56 338.265L1208.67 337.993V337.7H1207.17ZM1176.57 413L1175.18 412.435L1174.34 414.5H1176.57V413ZM1207.17 413H1208.67V411.5H1207.17V413ZM1207.17 428V429.5H1208.67V428H1207.17ZM1158.87 428H1157.37V429.5H1158.87V428ZM1160.26 413.865L1190.86 338.565L1188.08 337.435L1157.48 412.735L1160.26 413.865ZM1189.47 336.5H1160.37V339.5H1189.47V336.5ZM1161.87 338V323H1158.87V338H1161.87ZM1160.37 324.5H1207.17V321.5H1160.37V324.5ZM1205.67 323V337.7H1208.67V323H1205.67ZM1205.78 337.135L1175.18 412.435L1177.96 413.565L1208.56 338.265L1205.78 337.135ZM1176.57 414.5H1207.17V411.5H1176.57V414.5ZM1205.67 413V428H1208.67V413H1205.67ZM1207.17 426.5H1158.87V429.5H1207.17V426.5ZM1160.37 428V413.3H1157.37V428H1160.37Z" fill="white"/>
<rect x="515" y="292" width="696" height="77" fill="black"/>
<path d="M521.15 259H537.65V301.75H555.35V259H571.85V364H555.35V316.75H537.65V364H521.15V259ZM584.138 259H600.638V364H584.138V259ZM584.888 236.65H599.888V251.95H584.888V236.65ZM609.696 349.3L640.296 274H611.196V259H657.996V273.7L627.396 349H657.996V364H609.696V349.3ZM667.341 259H690.891L701.391 334.15H701.691L712.191 259H735.741V364H720.141V284.5H719.841L707.841 364H694.041L682.041 284.5H681.741V364H667.341V259ZM748.054 259H793.054V274H764.554V301.75H787.204V316.75H764.554V349H793.054V364H748.054V259ZM815.446 274H798.196V259H849.196V274H831.946V364H815.446V274ZM857.185 259H873.685V349H900.835V364H857.185V259ZM908.748 259H953.748V274H925.248V301.75H947.898V316.75H925.248V349H953.748V364H908.748V259ZM963.24 259H987.69C996.19 259 1002.39 261 1006.29 265C1010.19 268.9 1012.14 274.95 1012.14 283.15V289.6C1012.14 300.5 1008.54 307.4 1001.34 310.3V310.6C1005.34 311.8 1008.14 314.25 1009.74 317.95C1011.44 321.65 1012.29 326.6 1012.29 332.8V351.25C1012.29 354.25 1012.39 356.7 1012.59 358.6C1012.79 360.4 1013.29 362.2 1014.09 364H997.29C996.69 362.3 996.29 360.7 996.09 359.2C995.89 357.7 995.79 355 995.79 351.1V331.9C995.79 327.1 994.99 323.75 993.39 321.85C991.89 319.95 989.24 319 985.44 319H979.74V364H963.24V259ZM985.74 304C989.04 304 991.49 303.15 993.09 301.45C994.79 299.75 995.64 296.9 995.64 292.9V284.8C995.64 281 994.94 278.25 993.54 276.55C992.24 274.85 990.14 274 987.24 274H979.74V304H985.74ZM1023.74 259H1040.24V364H1023.74V259ZM1024.49 236.65H1039.49V251.95H1024.49V236.65ZM1052.6 259H1076.15L1086.65 334.15H1086.95L1097.45 259H1121V364H1105.4V284.5H1105.1L1093.1 364H1079.3L1067.3 284.5H1067V364H1052.6V259ZM1133.31 259H1149.81V364H1133.31V259ZM1134.06 236.65H1149.06V251.95H1134.06V236.65ZM1158.87 349.3L1189.47 274H1160.37V259H1207.17V273.7L1176.57 349H1207.17V364H1158.87V349.3Z" fill="#ECC41C"/>
<path d="M-1 361C-1 361 5.5 361 44 361C82.5 361 107.5 229.5 132.5 229.5C157.5 229.5 192.5 480.5 217.5 480.5C242.5 480.5 266.5 293.5 279.5 293.5C292.5 293.5 302 366 317 366C332 366 347 318 363.5 318C380 318 395.5 492 417 492C438.5 492 441.5 359 467.5 359C493.5 359 523 359 523 359" stroke="#ECC41C" stroke-width="10"/>
</g>
<defs>
<clipPath id="clip0">
<rect width="1920" height="650" fill="white"/>
</clipPath>
</defs>
</svg>
