<svg xmlns="http://www.w3.org/2000/svg" xmlns:svg="http://www.w3.org/2000/svg" id="svg" width="400" height="271.865" version="1.1" viewBox="0 0 400 271.865"><metadata id="metadata13"/><g id="svgg"><path id="path0" fill="#ecc41c" fill-rule="evenodd" stroke="none" d="M135.283 36.407 C 116.074 37.470,103.318 47.562,98.739 65.320 C 97.237 71.143,97.150 72.213,97.024 86.485 L 96.905 99.805 110.441 99.805 L 123.977 99.805 123.977 89.214 C 123.978 83.085,124.099 77.637,124.265 76.283 C 125.417 66.886,129.986 62.516,138.661 62.516 C 148.893 62.516,153.120 68.487,153.120 82.940 C 153.120 100.814,146.137 114.189,125.046 136.712 C 109.804 152.990,102.922 163.997,99.386 177.753 C 97.308 185.838,96.948 190.146,96.947 206.953 L 96.946 220.403 138.142 220.403 L 179.337 220.403 179.337 207.277 L 179.337 194.152 152.269 194.152 L 125.202 194.152 125.355 189.539 C 125.785 176.573,130.167 168.519,146.180 151.267 C 173.457 121.880,182.626 103.478,181.857 79.662 C 180.893 49.808,164.710 34.779,135.283 36.407 M226.901 36.314 C 207.257 36.939,194.227 47.040,189.588 65.237 C 188.342 70.124,188.131 72.332,187.993 81.936 L 187.861 91.228 201.374 91.228 L 214.887 91.228 215.017 82.976 C 215.153 74.349,215.259 73.432,216.506 70.099 C 220.203 60.219,235.535 59.728,240.385 69.334 C 242.194 72.918,242.739 76.979,242.749 86.940 C 242.768 108.133,239.534 112.195,222.417 112.476 L 215.205 112.595 215.205 125.563 L 215.205 138.532 219.818 138.534 C 239.370 138.543,243.064 142.747,243.449 165.432 C 243.718 181.331,242.951 187.260,240.058 191.618 C 235.941 197.820,224.277 198.575,218.691 193.001 C 214.937 189.254,214.165 185.608,214.165 171.612 L 214.165 162.703 200.650 162.703 L 187.135 162.703 187.135 172.980 C 187.135 178.632,187.258 184.392,187.409 185.780 C 190.054 210.140,204.487 222.793,229.630 222.793 C 254.489 222.793,268.391 210.912,271.659 186.875 C 272.229 182.682,272.128 155.885,271.527 152.047 C 269.359 138.180,263.546 129.747,252.996 125.159 L 251.021 124.301 253.745 123.000 C 263.609 118.288,268.697 110.648,270.749 97.466 C 271.430 93.089,271.424 75.646,270.740 71.098 C 267.143 47.185,252.418 35.502,226.901 36.314 M318.778 36.407 C 299.569 37.470,286.814 47.562,282.235 65.320 C 280.733 71.143,280.646 72.213,280.519 86.485 L 280.401 99.805 293.937 99.805 L 307.472 99.805 307.473 89.214 C 307.474 83.085,307.595 77.637,307.761 76.283 C 308.912 66.886,313.482 62.516,322.157 62.516 C 332.389 62.516,336.616 68.487,336.616 82.940 C 336.616 100.814,329.633 114.189,308.542 136.712 C 293.300 152.990,286.418 163.997,282.882 177.753 C 280.804 185.838,280.444 190.146,280.443 206.953 L 280.442 220.403 321.637 220.403 L 362.833 220.403 362.833 207.277 L 362.833 194.152 335.765 194.152 L 308.697 194.152 308.850 189.539 C 309.281 176.573,313.663 168.519,329.676 151.267 C 356.953 121.880,366.122 103.478,365.353 79.662 C 364.389 49.808,348.206 34.779,318.778 36.407 M372.710 206.368 L 372.710 220.143 386.355 220.143 L 400.000 220.143 400.000 206.368 L 400.000 192.593 386.355 192.593 L 372.710 192.593 372.710 206.368"/><path style="fill:#fff" id="path1" fill="#040404" fill-rule="evenodd" stroke="none" d="M15.075 56.010 L 15.075 71.215 50.422 71.215 L 85.770 71.215 85.770 56.010 L 85.770 40.806 80.702 40.806 L 75.634 40.806 75.634 50.422 L 75.634 60.039 64.847 60.039 L 54.061 60.039 54.061 52.372 L 54.061 44.704 48.993 44.704 L 43.925 44.704 43.925 52.372 L 43.925 60.039 34.568 60.039 L 25.211 60.039 25.211 50.422 L 25.211 40.806 20.143 40.806 L 15.075 40.806 15.075 56.010 M27.310 89.167 C 20.890 90.450,16.827 94.259,15.492 100.246 C 15.148 101.788,15.075 103.899,15.075 112.267 L 15.075 122.417 50.422 122.417 L 85.770 122.417 85.770 112.267 C 85.770 103.899,85.697 101.788,85.353 100.246 C 84.160 94.900,80.971 91.462,75.504 89.629 L 73.684 89.019 51.072 88.979 C 38.635 88.956,27.943 89.041,27.310 89.167 M72.381 100.662 C 74.972 101.831,75.452 102.860,75.585 107.537 L 75.691 111.241 50.422 111.241 L 25.153 111.241 25.258 107.537 C 25.364 103.735,25.508 103.139,26.608 101.925 C 28.251 100.112,28.303 100.108,51.072 100.154 C 69.976 100.192,71.415 100.226,72.381 100.662 M26.381 140.212 C 18.109 142.058,14.035 147.507,14.035 156.725 C 14.035 165.392,17.530 170.565,24.951 172.881 L 26.901 173.489 50.422 173.489 L 73.944 173.489 75.893 172.881 C 83.314 170.565,86.810 165.392,86.810 156.725 C 86.810 148.121,83.426 143.054,76.023 140.571 L 74.204 139.961 51.072 139.913 C 32.560 139.874,27.629 139.934,26.381 140.212 M73.162 151.533 C 77.887 153.260,77.694 160.547,72.886 161.941 C 71.822 162.250,68.023 162.313,50.422 162.313 C 26.818 162.313,27.465 162.358,25.707 160.600 C 22.568 157.461,24.384 152.190,28.919 151.277 C 30.986 150.861,71.972 151.098,73.162 151.533 M26.864 189.857 C 18.338 191.405,14.026 196.816,14.040 205.955 C 14.053 215.315,18.454 220.820,27.031 222.205 C 29.339 222.578,71.506 222.578,73.814 222.205 C 83.776 220.596,89.036 211.550,86.286 200.756 C 84.171 192.459,79.365 189.738,66.472 189.537 L 59.259 189.425 59.259 194.751 L 59.259 200.077 65.692 200.198 C 69.763 200.275,72.504 200.438,73.159 200.643 C 77.783 202.091,77.687 209.420,73.025 210.826 C 71.259 211.359,29.799 211.338,27.958 210.804 C 23.172 209.416,22.977 202.263,27.682 200.688 C 28.335 200.470,30.624 200.290,33.853 200.202 L 38.986 200.064 38.986 194.769 L 38.986 189.474 33.853 189.497 C 30.887 189.511,27.936 189.663,26.864 189.857"/><path id="path2" fill="#b0c810" fill-rule="evenodd" stroke="none"/><path id="path3" fill="#b0c810" fill-rule="evenodd" stroke="none"/><path id="path4" fill="#b0c810" fill-rule="evenodd" stroke="none"/></g></svg>