<svg width="256" height="174" viewBox="0 0 256 174" fill="none" xmlns="http://www.w3.org/2000/svg">
<g clip-path="url(#clip0)">
<path fill-rule="evenodd" clip-rule="evenodd" d="M86.5811 23.3014C74.2874 23.9817 66.1235 30.4408 63.193 41.8064C62.2317 45.5332 62.176 46.218 62.0954 55.3525L62.0192 63.8776H70.6822H79.3453V57.0991C79.3459 53.1764 79.4234 49.6895 79.5296 48.8229C80.2669 42.8086 83.191 40.0117 88.743 40.0117C95.2915 40.0117 97.9968 43.8333 97.9968 53.0836C97.9968 64.5234 93.5277 73.0837 80.0294 87.499C70.2746 97.9173 65.8701 104.962 63.607 113.766C62.2771 118.941 62.0467 121.698 62.0461 132.455L62.0454 141.063H88.4109H114.776V132.662V124.262H97.4522H80.1293L80.2272 121.309C80.5024 113.011 83.3069 107.856 93.5552 96.8145C111.012 78.0061 116.881 66.2284 116.388 50.9856C115.772 31.8783 105.414 22.2594 86.5811 23.3014ZM145.217 23.2418C132.644 23.6418 124.305 30.1067 121.336 41.7532C120.539 44.881 120.404 46.2942 120.316 52.441L120.231 58.3881H128.879H137.528L137.611 53.1066C137.698 47.5851 137.766 46.9982 138.564 44.865C140.93 38.5416 150.742 38.2273 153.846 44.3754C155.004 46.6693 155.353 49.2684 155.359 55.6437C155.372 69.2077 153.302 71.8075 142.347 71.9873L137.731 72.0635V80.3633V88.6638L140.684 88.6651C153.197 88.6708 155.561 91.3615 155.807 105.88C155.98 116.056 155.489 119.851 153.637 122.64C151.002 126.61 143.537 127.093 139.962 123.525C137.56 121.127 137.066 118.794 137.066 109.836V104.134H128.416H119.766V110.711C119.766 114.329 119.845 118.015 119.942 118.904C121.635 134.495 130.872 142.593 146.963 142.593C162.873 142.593 171.77 134.989 173.862 119.604C174.227 116.921 174.162 99.7701 173.777 97.3137C172.39 88.4385 168.669 83.0412 161.917 80.1048L160.653 79.5556L162.397 78.7229C168.71 75.7071 171.966 70.8174 173.279 62.3806C173.715 59.5792 173.711 48.4152 173.274 45.5044C170.972 30.1995 161.548 22.7221 145.217 23.2418ZM204.018 23.3014C191.724 23.9817 183.561 30.4408 180.63 41.8064C179.669 45.5332 179.613 46.218 179.532 55.3525L179.457 63.8776H188.12H196.782L196.783 57.0991C196.783 53.1764 196.861 49.6895 196.967 48.8229C197.704 42.8086 200.628 40.0117 206.18 40.0117C212.729 40.0117 215.434 43.8333 215.434 53.0836C215.434 64.5234 210.965 73.0837 197.467 87.499C187.712 97.9173 183.308 104.962 181.044 113.766C179.715 118.941 179.484 121.698 179.484 132.455L179.483 141.063H205.848H232.213V132.662V124.262H214.89H197.566L197.664 121.309C197.94 113.011 200.744 107.856 210.993 96.8145C228.45 78.0061 234.318 66.2284 233.826 50.9856C233.209 31.8783 222.852 22.2594 204.018 23.3014ZM238.534 132.08V140.897H247.267H256V132.08V123.264H247.267H238.534V132.08Z" fill="#ECC41C"/>
<path fill-rule="evenodd" clip-rule="evenodd" d="M9.64799 35.8477V45.5793H32.2701H54.8928V35.8477V26.1168H51.6493H48.4058V32.2713V38.4264H41.5021H34.599V33.5193V28.6116H31.3555H28.112V33.5193V38.4264H22.1235H16.135V32.2713V26.1168H12.8915H9.64799V35.8477ZM17.4784 57.069C13.3696 57.8902 10.7693 60.328 9.91487 64.1598C9.69471 65.1468 9.64799 66.4979 9.64799 71.8536V78.3498H32.2701H54.8928V71.8536C54.8928 66.4979 54.8461 65.1468 54.6259 64.1598C53.8624 60.7383 51.8214 58.5379 48.3225 57.3647L47.1577 56.9743L32.6861 56.9487C24.7264 56.934 17.8835 56.9884 17.4784 57.069ZM46.3238 64.4261C47.9821 65.1743 48.2893 65.8329 48.3744 68.8263L48.4422 71.1969H32.2701H16.0979L16.1651 68.8263C16.233 66.3929 16.3251 66.0114 17.0291 65.2344C18.0806 64.0741 18.1139 64.0715 32.6861 64.101C44.7846 64.1253 45.7056 64.147 46.3238 64.4261ZM16.8838 89.739C11.5898 90.9205 8.98239 94.408 8.98239 100.308C8.98239 105.855 11.2192 109.166 15.9686 110.648L17.2166 111.037H32.2701H47.3242L48.5715 110.648C53.3209 109.166 55.5584 105.855 55.5584 100.308C55.5584 94.801 53.3926 91.558 48.6547 89.9688L47.4906 89.5784L32.6861 89.5477C20.8384 89.5227 17.6826 89.5611 16.8838 89.739ZM46.8237 96.9848C49.8477 98.0901 49.7242 102.754 46.647 103.646C45.9661 103.844 43.5347 103.884 32.2701 103.884C17.1635 103.884 17.5776 103.913 16.4525 102.788C14.4435 100.779 15.6058 97.4052 18.5082 96.8209C19.831 96.5546 46.0621 96.7063 46.8237 96.9848ZM17.193 121.513C11.7363 122.504 8.97663 125.967 8.98559 131.816C8.99391 137.807 11.8106 141.33 17.2998 142.217C18.777 142.455 45.7638 142.455 47.241 142.217C53.6166 141.187 56.983 135.397 55.223 128.489C53.8694 123.178 50.7936 121.437 42.5421 121.308L37.9258 121.237V124.645V128.054L42.0429 128.132C44.6483 128.181 46.4025 128.285 46.8217 128.416C49.7811 129.343 49.7197 134.034 46.736 134.934C45.6058 135.275 19.0714 135.261 17.8931 134.92C14.8301 134.031 14.7053 129.453 17.7165 128.445C18.1344 128.306 19.5994 128.19 21.6659 128.134L24.951 128.046V124.657V121.268L21.6659 121.283C19.7677 121.292 17.879 121.389 17.193 121.513Z" fill="#040404"/>
</g>
<defs>
<clipPath id="clip0">
<rect width="256" height="174" fill="white"/>
</clipPath>
</defs>
</svg>
