<svg width="1920" height="550" viewBox="0 0 1920 550" fill="none" xmlns="http://www.w3.org/2000/svg">
<g filter="url(#filter0_d)">
<path d="M552.15 186H576.6C585.1 186 591.3 188 595.2 192C599.1 195.9 601.05 201.95 601.05 210.15V216.6C601.05 227.5 597.45 234.4 590.25 237.3V237.6C594.25 238.8 597.05 241.25 598.65 244.95C600.35 248.65 601.2 253.6 601.2 259.8V278.25C601.2 281.25 601.3 283.7 601.5 285.6C601.7 287.4 602.2 289.2 603 291H586.2C585.6 289.3 585.2 287.7 585 286.2C584.8 284.7 584.7 282 584.7 278.1V258.9C584.7 254.1 583.9 250.75 582.3 248.85C580.8 246.95 578.15 246 574.35 246H568.65V291H552.15V186ZM574.65 231C577.95 231 580.4 230.15 582 228.45C583.7 226.75 584.55 223.9 584.55 219.9V211.8C584.55 208 583.85 205.25 582.45 203.55C581.15 201.85 579.05 201 576.15 201H568.65V231H574.65ZM612.648 186H657.648V201H629.148V228.75H651.798V243.75H629.148V276H657.648V291H612.648V186ZM667.14 186H710.79V201H683.64V230.25H704.94V245.25H683.64V291H667.14V186ZM718.703 186H763.703V201H735.203V228.75H757.853V243.75H735.203V276H763.703V291H718.703V186ZM773.195 186H797.645C806.145 186 812.345 188 816.245 192C820.145 195.9 822.095 201.95 822.095 210.15V216.6C822.095 227.5 818.495 234.4 811.295 237.3V237.6C815.295 238.8 818.095 241.25 819.695 244.95C821.395 248.65 822.245 253.6 822.245 259.8V278.25C822.245 281.25 822.345 283.7 822.545 285.6C822.745 287.4 823.245 289.2 824.045 291H807.245C806.645 289.3 806.245 287.7 806.045 286.2C805.845 284.7 805.745 282 805.745 278.1V258.9C805.745 254.1 804.945 250.75 803.345 248.85C801.845 246.95 799.195 246 795.395 246H789.695V291H773.195V186ZM795.695 231C798.995 231 801.445 230.15 803.045 228.45C804.745 226.75 805.595 223.9 805.595 219.9V211.8C805.595 208 804.895 205.25 803.495 203.55C802.195 201.85 800.095 201 797.195 201H789.695V231H795.695ZM846.443 186H868.793L885.893 291H869.393L866.393 270.15V270.45H847.643L844.643 291H829.343L846.443 186ZM864.443 256.2L857.093 204.3H856.793L849.593 256.2H864.443ZM893.898 186H914.598L930.648 248.85H930.948V186H945.648V291H928.698L908.898 214.35H908.598V291H893.898V186ZM979.362 292.5C971.362 292.5 965.312 290.25 961.212 285.75C957.112 281.15 955.062 274.6 955.062 266.1V260.1H970.662V267.3C970.662 274.1 973.512 277.5 979.212 277.5C982.012 277.5 984.112 276.7 985.512 275.1C987.012 273.4 987.762 270.7 987.762 267C987.762 262.6 986.762 258.75 984.762 255.45C982.762 252.05 979.062 248 973.662 243.3C966.862 237.3 962.112 231.9 959.412 227.1C956.712 222.2 955.362 216.7 955.362 210.6C955.362 202.3 957.462 195.9 961.662 191.4C965.862 186.8 971.962 184.5 979.962 184.5C987.862 184.5 993.812 186.8 997.812 191.4C1001.91 195.9 1003.96 202.4 1003.96 210.9V215.25H988.362V209.85C988.362 206.25 987.662 203.65 986.262 202.05C984.862 200.35 982.812 199.5 980.112 199.5C974.612 199.5 971.862 202.85 971.862 209.55C971.862 213.35 972.862 216.9 974.862 220.2C976.962 223.5 980.712 227.5 986.112 232.2C993.012 238.2 997.762 243.65 1000.36 248.55C1002.96 253.45 1004.26 259.2 1004.26 265.8C1004.26 274.4 1002.11 281 997.812 285.6C993.612 290.2 987.462 292.5 979.362 292.5ZM1013.72 186H1030.22V276H1057.37V291H1013.72V186ZM1078.62 186H1100.97L1118.07 291H1101.57L1098.57 270.15V270.45H1079.82L1076.82 291H1061.52L1078.62 186ZM1096.62 256.2L1089.27 204.3H1088.97L1081.77 256.2H1096.62ZM1126.08 186H1150.53C1159.03 186 1165.23 188 1169.13 192C1173.03 195.9 1174.98 201.95 1174.98 210.15V216.6C1174.98 227.5 1171.38 234.4 1164.18 237.3V237.6C1168.18 238.8 1170.98 241.25 1172.58 244.95C1174.28 248.65 1175.13 253.6 1175.13 259.8V278.25C1175.13 281.25 1175.23 283.7 1175.43 285.6C1175.63 287.4 1176.13 289.2 1176.93 291H1160.13C1159.53 289.3 1159.13 287.7 1158.93 286.2C1158.73 284.7 1158.63 282 1158.63 278.1V258.9C1158.63 254.1 1157.83 250.75 1156.23 248.85C1154.73 246.95 1152.08 246 1148.28 246H1142.58V291H1126.08V186ZM1148.58 231C1151.88 231 1154.33 230.15 1155.93 228.45C1157.63 226.75 1158.48 223.9 1158.48 219.9V211.8C1158.48 208 1157.78 205.25 1156.38 203.55C1155.08 201.85 1152.98 201 1150.08 201H1142.58V231H1148.58ZM1186.57 186H1203.07V291H1186.57V186ZM1215.43 186H1238.98L1249.48 261.15H1249.78L1260.28 186H1283.83V291H1268.23V211.5H1267.93L1255.93 291H1242.13L1230.13 211.5H1229.83V291H1215.43V186ZM1296.14 186H1312.64V291H1296.14V186ZM1321.7 276.3L1352.3 201H1323.2V186H1370V200.7L1339.4 276H1370V291H1321.7V276.3Z" fill="black"/>
</g>
<g filter="url(#filter1_d)">
<rect x="1385" y="166" width="31" height="31" fill="#EAC61C"/>
</g>
<defs>
<filter id="filter0_d" x="552.15" y="184.5" width="870.852" height="191" filterUnits="userSpaceOnUse" color-interpolation-filters="sRGB">
<feFlood flood-opacity="0" result="BackgroundImageFix"/>
<feColorMatrix in="SourceAlpha" type="matrix" values="0 0 0 0 0 0 0 0 0 0 0 0 0 0 0 0 0 0 127 0" result="hardAlpha"/>
<feOffset dx="31" dy="61"/>
<feGaussianBlur stdDeviation="11"/>
<feComposite in2="hardAlpha" operator="out"/>
<feColorMatrix type="matrix" values="0 0 0 0 0 0 0 0 0 0 0 0 0 0 0 0 0 0 0.15 0"/>
<feBlend mode="normal" in2="BackgroundImageFix" result="effect1_dropShadow"/>
<feBlend mode="normal" in="SourceGraphic" in2="effect1_dropShadow" result="shape"/>
</filter>
<filter id="filter1_d" x="1385" y="166" width="84" height="114" filterUnits="userSpaceOnUse" color-interpolation-filters="sRGB">
<feFlood flood-opacity="0" result="BackgroundImageFix"/>
<feColorMatrix in="SourceAlpha" type="matrix" values="0 0 0 0 0 0 0 0 0 0 0 0 0 0 0 0 0 0 127 0" result="hardAlpha"/>
<feOffset dx="31" dy="61"/>
<feGaussianBlur stdDeviation="11"/>
<feComposite in2="hardAlpha" operator="out"/>
<feColorMatrix type="matrix" values="0 0 0 0 0 0 0 0 0 0 0 0 0 0 0 0 0 0 0.15 0"/>
<feBlend mode="normal" in2="BackgroundImageFix" result="effect1_dropShadow"/>
<feBlend mode="normal" in="SourceGraphic" in2="effect1_dropShadow" result="shape"/>
</filter>
</defs>
</svg>
